M48
; DRILL file {KiCad (5.1.4)-1} date 01/03/22 17:18:45
; FORMAT={-:-/ absolute / inch / decimal}
; #@! TF.CreationDate,2022-01-03T17:18:45-05:00
; #@! TF.GenerationSoftware,Kicad,Pcbnew,(5.1.4)-1
; #@! TF.FileFunction,NonPlated,1,2,NPTH
FMAT,2
INCH
T1C0.0256
T2C0.0689
T3C0.1181
T4C0.1200
T5C0.1570
%
G90
G05
T1
X11.1662Y-5.7411
X11.3938Y-5.7411
T2
X10.325Y-9.46
X10.725Y-9.46
X5.82Y-9.46
X6.22Y-9.46
X9.01Y-6.085
X9.41Y-6.085
X12.01Y-7.96
X12.41Y-7.96
X6.2Y-8.71
X6.6Y-8.71
X6.385Y-7.21
X6.785Y-7.21
X16.325Y-6.085
X16.725Y-6.085
X4.885Y-6.085
X5.285Y-6.085
X4.42Y-10.21
X4.82Y-10.21
X13.135Y-6.085
X13.535Y-6.085
X11.445Y-8.71
X11.845Y-8.71
X19.51Y-7.21
X19.91Y-7.21
X8.075Y-9.46
X8.475Y-9.46
X5.635Y-7.21
X6.035Y-7.21
X6.385Y-6.085
X6.785Y-6.085
X17.26Y-7.96
X17.66Y-7.96
X3.855Y-9.46
X4.255Y-9.46
X17.635Y-10.21
X18.035Y-10.21
X8.635Y-7.21
X9.035Y-7.21
X7.7Y-8.71
X8.1Y-8.71
X19.51Y-9.835
X19.91Y-9.835
X12.76Y-7.96
X13.16Y-7.96
X3.48Y-10.21
X3.88Y-10.21
X16.325Y-10.21
X16.725Y-10.21
X18.76Y-9.46
X19.16Y-9.46
X11.825Y-9.46
X12.225Y-9.46
X16.325Y-7.96
X16.725Y-7.96
X18.01Y-7.96
X18.41Y-7.96
X5.07Y-9.46
X5.47Y-9.46
X9.2Y-8.71
X9.6Y-8.71
X8.165Y-10.21
X8.565Y-10.21
X6.01Y-7.96
X6.41Y-7.96
X8.825Y-9.46
X9.225Y-9.46
X12.195Y-8.71
X12.595Y-8.71
X17.26Y-9.46
X17.66Y-9.46
X7.885Y-7.21
X8.285Y-7.21
X11.635Y-6.085
X12.035Y-6.085
X12.855Y-10.21
X13.255Y-10.21
X18.76Y-10.21
X19.16Y-10.21
X10.51Y-6.085
X10.91Y-6.085
X10.135Y-7.21
X10.535Y-7.21
X12.385Y-7.21
X12.785Y-7.21
X8.26Y-6.085
X8.66Y-6.085
X15.575Y-7.96
X15.975Y-7.96
X18.76Y-7.21
X19.16Y-7.21
X14.825Y-7.96
X15.225Y-7.96
X15.575Y-9.46
X15.975Y-9.46
X15.575Y-7.21
X15.975Y-7.21
X5.635Y-6.085
X6.035Y-6.085
X14.825Y-6.085
X15.225Y-6.085
X4.7Y-8.71
X5.1Y-8.71
X12.385Y-6.085
X12.785Y-6.085
X10.51Y-7.96
X10.91Y-7.96
X15.575Y-6.085
X15.975Y-6.085
X6.95Y-8.71
X7.35Y-8.71
X18.01Y-8.71
X18.41Y-8.71
X13.23Y-9.46
X13.63Y-9.46
X5.355Y-10.21
X5.755Y-10.21
X8.26Y-7.96
X8.66Y-7.96
X9.95Y-8.71
X10.35Y-8.71
X10.885Y-7.21
X11.285Y-7.21
X18.76Y-7.96
X19.16Y-7.96
X7.325Y-9.46
X7.725Y-9.46
X14.825Y-7.21
X15.225Y-7.21
X10.98Y-10.21
X11.38Y-10.21
X18.01Y-7.21
X18.41Y-7.21
X7.51Y-7.96
X7.91Y-7.96
X9.76Y-6.085
X10.16Y-6.085
X4.51Y-7.96
X4.91Y-7.96
X11.915Y-10.21
X12.315Y-10.21
X9.575Y-9.46
X9.975Y-9.46
X6.57Y-9.46
X6.97Y-9.46
X9.76Y-7.96
X10.16Y-7.96
X11.635Y-7.21
X12.035Y-7.21
X3.665Y-8.71
X4.065Y-8.71
X13.885Y-6.085
X14.285Y-6.085
X19.51Y-8.335
X19.91Y-8.335
X18.76Y-8.71
X19.16Y-8.71
X16.325Y-7.21
X16.725Y-7.21
X13.7Y-7.96
X14.1Y-7.96
X9.01Y-7.96
X9.41Y-7.96
X7.135Y-6.085
X7.535Y-6.085
X13.415Y-8.71
X13.815Y-8.71
X17.26Y-7.21
X17.66Y-7.21
X17.26Y-8.71
X17.66Y-8.71
X3.575Y-7.96
X3.975Y-7.96
X7.135Y-7.21
X7.535Y-7.21
X9.385Y-7.21
X9.785Y-7.21
X11.075Y-9.46
X11.475Y-9.46
X13.51Y-7.21
X13.91Y-7.21
X13.79Y-10.21
X14.19Y-10.21
X3.385Y-6.085
X3.785Y-6.085
X10.7Y-8.71
X11.1Y-8.71
X5.26Y-7.96
X5.66Y-7.96
X14.825Y-10.21
X15.225Y-10.21
X4.885Y-7.21
X5.285Y-7.21
X15.575Y-10.21
X15.975Y-10.21
X3.385Y-7.21
X3.785Y-7.21
X11.26Y-7.96
X11.66Y-7.96
X6.76Y-7.96
X7.16Y-7.96
X18.01Y-9.46
X18.41Y-9.46
X5.45Y-8.71
X5.85Y-8.71
X8.45Y-8.71
X8.85Y-8.71
X4.135Y-7.21
X4.535Y-7.21
T3
X11.965Y-10.11
X12.215Y-10.01
X9.625Y-9.36
X9.875Y-9.26
X6.62Y-9.36
X6.87Y-9.26
X9.81Y-7.86
X10.06Y-7.76
X11.685Y-7.11
X11.935Y-7.01
X3.715Y-8.61
X3.965Y-8.51
X13.935Y-5.985
X14.185Y-5.885
X19.56Y-8.235
X19.81Y-8.135
X18.81Y-8.61
X19.06Y-8.51
X16.375Y-7.11
X16.625Y-7.01
X13.75Y-7.86
X14.0Y-7.76
X9.06Y-7.86
X9.31Y-7.76
X7.185Y-5.985
X7.435Y-5.885
X13.465Y-8.61
X13.715Y-8.51
X17.31Y-7.11
X17.56Y-7.01
X17.31Y-8.61
X17.56Y-8.51
X3.625Y-7.86
X3.875Y-7.76
X7.185Y-7.11
X7.435Y-7.01
X9.435Y-7.11
X9.685Y-7.01
X11.125Y-9.36
X11.375Y-9.26
X13.56Y-7.11
X13.81Y-7.01
X13.84Y-10.11
X14.09Y-10.01
X3.435Y-5.985
X3.685Y-5.885
X10.75Y-8.61
X11.0Y-8.51
X5.31Y-7.86
X5.56Y-7.76
X14.875Y-10.11
X15.125Y-10.01
X4.935Y-7.11
X5.185Y-7.01
X15.625Y-10.11
X15.875Y-10.01
X3.435Y-7.11
X3.685Y-7.01
X11.31Y-7.86
X11.56Y-7.76
X6.81Y-7.86
X7.06Y-7.76
X18.06Y-9.36
X18.31Y-9.26
X5.5Y-8.61
X5.75Y-8.51
X8.5Y-8.61
X8.75Y-8.51
X4.185Y-7.11
X4.435Y-7.01
X10.375Y-9.36
X10.625Y-9.26
X5.87Y-9.36
X6.12Y-9.26
X9.06Y-5.985
X9.31Y-5.885
X12.06Y-7.86
X12.31Y-7.76
X6.25Y-8.61
X6.5Y-8.51
X6.435Y-7.11
X6.685Y-7.01
X16.375Y-5.985
X16.625Y-5.885
X4.935Y-5.985
X5.185Y-5.885
X4.47Y-10.11
X4.72Y-10.01
X13.185Y-5.985
X13.435Y-5.885
X11.495Y-8.61
X11.745Y-8.51
X19.56Y-7.11
X19.81Y-7.01
X8.125Y-9.36
X8.375Y-9.26
X5.685Y-7.11
X5.935Y-7.01
X6.435Y-5.985
X6.685Y-5.885
X17.31Y-7.86
X17.56Y-7.76
X3.905Y-9.36
X4.155Y-9.26
X17.685Y-10.11
X17.935Y-10.01
X8.685Y-7.11
X8.935Y-7.01
X7.75Y-8.61
X8.0Y-8.51
X19.56Y-9.735
X19.81Y-9.635
X12.81Y-7.86
X13.06Y-7.76
X3.53Y-10.11
X3.78Y-10.01
X16.375Y-10.11
X16.625Y-10.01
X18.81Y-9.36
X19.06Y-9.26
X11.875Y-9.36
X12.125Y-9.26
X16.375Y-7.86
X16.625Y-7.76
X18.06Y-7.86
X18.31Y-7.76
X5.12Y-9.36
X5.37Y-9.26
X9.25Y-8.61
X9.5Y-8.51
X8.215Y-10.11
X8.465Y-10.01
X6.06Y-7.86
X6.31Y-7.76
X8.875Y-9.36
X9.125Y-9.26
X12.245Y-8.61
X12.495Y-8.51
X17.31Y-9.36
X17.56Y-9.26
X7.935Y-7.11
X8.185Y-7.01
X11.685Y-5.985
X11.935Y-5.885
X12.905Y-10.11
X13.155Y-10.01
X18.81Y-10.11
X19.06Y-10.01
X10.56Y-5.985
X10.81Y-5.885
X10.185Y-7.11
X10.435Y-7.01
X12.435Y-7.11
X12.685Y-7.01
X8.31Y-5.985
X8.56Y-5.885
X15.625Y-7.86
X15.875Y-7.76
X18.81Y-7.11
X19.06Y-7.01
X14.875Y-7.86
X15.125Y-7.76
X15.625Y-9.36
X15.875Y-9.26
X15.625Y-7.11
X15.875Y-7.01
X5.685Y-5.985
X5.935Y-5.885
X14.875Y-5.985
X15.125Y-5.885
X4.75Y-8.61
X5.0Y-8.51
X12.435Y-5.985
X12.685Y-5.885
X10.56Y-7.86
X10.81Y-7.76
X15.625Y-5.985
X15.875Y-5.885
X7.0Y-8.61
X7.25Y-8.51
X18.06Y-8.61
X18.31Y-8.51
X13.28Y-9.36
X13.53Y-9.26
X5.405Y-10.11
X5.655Y-10.01
X8.31Y-7.86
X8.56Y-7.76
X10.0Y-8.61
X10.25Y-8.51
X10.935Y-7.11
X11.185Y-7.01
X18.81Y-7.86
X19.06Y-7.76
X7.375Y-9.36
X7.625Y-9.26
X14.875Y-7.11
X15.125Y-7.01
X11.03Y-10.11
X11.28Y-10.01
X18.06Y-7.11
X18.31Y-7.01
X7.56Y-7.86
X7.81Y-7.76
X9.81Y-5.985
X10.06Y-5.885
X4.56Y-7.86
X4.81Y-7.76
T4
X6.3965Y-9.935
X10.3335Y-9.935
X12.96Y-9.185
X13.9Y-9.185
X19.435Y-7.865
X19.435Y-8.805
X13.145Y-8.435
X14.085Y-8.435
X13.24Y-6.935
X14.18Y-6.935
X3.585Y-9.185
X4.525Y-9.185
X17.365Y-9.935
X18.305Y-9.935
X19.435Y-9.365
X19.435Y-10.305
T5
X11.085Y-7.21
X18.96Y-7.96
X7.525Y-9.46
X15.025Y-7.21
X11.18Y-10.21
X18.21Y-7.21
X7.71Y-7.96
X9.96Y-6.085
X4.71Y-7.96
X12.115Y-10.21
X9.775Y-9.46
X6.77Y-9.46
X9.96Y-7.96
X11.835Y-7.21
X3.865Y-8.71
X14.085Y-6.085
X19.71Y-8.335
X20.035Y-7.865
X20.035Y-8.805
X18.96Y-8.71
X16.525Y-7.21
X13.9Y-7.96
X9.21Y-7.96
X7.335Y-6.085
X13.145Y-9.035
X13.615Y-8.71
X14.085Y-9.035
X17.46Y-7.21
X17.46Y-8.71
X3.775Y-7.96
X7.335Y-7.21
X9.585Y-7.21
X11.275Y-9.46
X13.24Y-7.535
X13.71Y-7.21
X14.18Y-7.535
X13.99Y-10.21
X3.585Y-6.085
X10.9Y-8.71
X5.46Y-7.96
X15.025Y-10.21
X5.085Y-7.21
X15.775Y-10.21
X3.585Y-7.21
X11.46Y-7.96
X6.96Y-7.96
X18.21Y-9.46
X5.65Y-8.71
X8.65Y-8.71
X4.335Y-7.21
X10.525Y-9.46
X6.02Y-9.46
X9.21Y-6.085
X12.21Y-7.96
X6.4Y-8.71
X6.585Y-7.21
X16.525Y-6.085
X5.085Y-6.085
X4.62Y-10.21
X13.335Y-6.085
X11.645Y-8.71
X19.71Y-7.21
X8.275Y-9.46
X5.835Y-7.21
X6.585Y-6.085
X17.46Y-7.96
X3.585Y-9.785
X4.055Y-9.46
X4.525Y-9.785
X17.365Y-10.535
X17.835Y-10.21
X18.305Y-10.535
X8.835Y-7.21
X7.9Y-8.71
X19.71Y-9.835
X20.035Y-9.365
X20.035Y-10.305
X12.96Y-7.96
X3.68Y-10.21
X16.525Y-10.21
X18.96Y-9.46
X12.025Y-9.46
X16.525Y-7.96
X18.21Y-7.96
X5.27Y-9.46
X9.4Y-8.71
X6.3965Y-10.535
X8.365Y-10.21
X10.3335Y-10.535
X6.21Y-7.96
X9.025Y-9.46
X12.395Y-8.71
X17.46Y-9.46
X8.085Y-7.21
X11.835Y-6.085
X13.055Y-10.21
X18.96Y-10.21
X10.71Y-6.085
X10.335Y-7.21
X12.585Y-7.21
X8.46Y-6.085
X15.775Y-7.96
X18.96Y-7.21
X15.025Y-7.96
X15.775Y-9.46
X15.775Y-7.21
X5.835Y-6.085
X15.025Y-6.085
X4.9Y-8.71
X12.585Y-6.085
X10.71Y-7.96
X15.775Y-6.085
X7.15Y-8.71
X18.21Y-8.71
X12.96Y-9.785
X13.43Y-9.46
X13.9Y-9.785
X5.555Y-10.21
X8.46Y-7.96
X10.15Y-8.71
T0
M30
