M48
; DRILL file {KiCad (5.1.4)-1} date 01/03/22 17:18:45
; FORMAT={-:-/ absolute / inch / decimal}
; #@! TF.CreationDate,2022-01-03T17:18:45-05:00
; #@! TF.GenerationSoftware,Kicad,Pcbnew,(5.1.4)-1
; #@! TF.FileFunction,Plated,1,2,PTH
FMAT,2
INCH
T1C0.0157
T2C0.0236
T3C0.0394
%
G90
G05
T1
X3.105Y-7.365
X3.205Y-7.235
X3.3Y-7.22
X3.315Y-6.085
X3.39Y-6.53
X3.4Y-10.025
X3.42Y-7.855
X3.5Y-8.61
X3.775Y-9.255
X3.97Y-7.11
X4.245Y-10.11
X4.32Y-7.86
X4.5Y-8.61
X4.68Y-5.985
X4.715Y-7.11
X4.88Y-9.365
X5.09Y-7.86
X5.18Y-10.11
X5.275Y-8.61
X5.46Y-5.985
X5.465Y-7.11
X5.635Y-9.355
X5.83Y-7.86
X6.03Y-8.605
X6.205Y-5.985
X6.215Y-7.105
X6.4Y-9.36
X6.565Y-7.86
X6.775Y-8.605
X6.96Y-5.98
X6.97Y-7.11
X7.145Y-9.36
X7.33Y-7.86
X7.52Y-8.605
X7.725Y-7.105
X7.89Y-9.36
X7.98Y-10.11
X8.075Y-5.985
X8.075Y-7.86
X8.26Y-8.61
X8.455Y-7.11
X8.665Y-9.36
X8.835Y-7.86
X8.85Y-5.985
X9.03Y-8.61
X9.215Y-7.11
X9.405Y-9.36
X9.575Y-7.86
X9.58Y-5.98
X9.77Y-8.605
X9.955Y-7.1
X10.15Y-9.36
X10.34Y-5.985
X10.34Y-7.86
X10.515Y-8.605
X10.71Y-7.11
X10.8Y-10.11
X10.885Y-9.36
X10.905Y-6.36
X11.075Y-7.86
X11.145Y-5.875
X11.22Y-5.855
X11.2415Y-5.895
X11.25Y-8.61
X11.3223Y-5.8832
X11.36Y-5.8945
X11.385Y-6.375
X11.435Y-5.93
X11.455Y-7.105
X11.52Y-6.36
X11.5561Y-6.076
X11.655Y-9.36
X11.725Y-10.115
X11.825Y-7.86
X11.965Y-6.315
X12.01Y-8.61
X12.195Y-7.11
X12.22Y-5.985
X12.585Y-7.86
X12.675Y-10.11
X12.95Y-5.985
X13.045Y-9.36
X13.23Y-8.605
X13.335Y-7.11
X13.53Y-7.855
X13.61Y-10.11
X13.7Y-5.98
X14.035Y-7.435
X14.17Y-8.185
X14.32Y-9.225
X14.33Y-10.35
X14.455Y-8.605
X14.47Y-9.3171
X14.635Y-9.4306
X14.635Y-10.11
X14.7215Y-7.435
X14.745Y-6.085
X14.745Y-7.735
X14.75Y-7.0
X14.785Y-8.585
X14.805Y-9.53
X14.93Y-8.795
X15.03Y-8.775
X15.105Y-8.67
X15.17Y-8.185
X15.3Y-9.115
X15.305Y-9.01
X15.385Y-9.0363
X15.435Y-9.1033
X15.495Y-6.115
X15.495Y-7.0
X15.495Y-7.735
X15.495Y-7.975
X15.495Y-9.27
X15.495Y-9.48
X15.5Y-9.98
X15.535Y-8.98
X15.55Y-8.83
X15.64Y-8.535
X15.875Y-8.65
X15.875Y-8.735
X16.195Y-9.03
X16.195Y-9.07
X16.245Y-7.0
X16.245Y-7.75
X16.245Y-9.985
X16.25Y-6.11
X16.785Y-6.31
X16.795Y-6.4352
X16.805Y-8.185
X16.81Y-7.435
X16.8839Y-6.9511
X16.985Y-7.03
X17.145Y-7.435
X17.15Y-8.185
X17.18Y-7.225
X17.18Y-7.735
X17.18Y-8.47
X17.18Y-9.21
X17.555Y-9.995
X17.93Y-7.255
X17.93Y-7.715
X17.93Y-8.47
X17.93Y-9.23
X18.68Y-7.25
X18.68Y-7.715
X18.68Y-8.48
X18.68Y-9.225
X18.68Y-9.99
X19.43Y-7.235
X19.43Y-8.1
X19.43Y-9.595
X20.265Y-5.795
T3
X15.695Y-8.735
X15.695Y-8.835
X15.695Y-8.935
X15.795Y-8.735
X15.795Y-8.835
X15.795Y-8.935
X17.98Y-6.145
X17.98Y-6.245
X18.08Y-6.145
X18.08Y-6.245
X18.18Y-6.145
X18.18Y-6.245
X18.28Y-6.145
X18.28Y-6.245
X18.38Y-6.145
X18.38Y-6.245
X18.48Y-6.145
X18.48Y-6.245
X18.58Y-6.145
X18.58Y-6.245
X18.68Y-6.145
X18.68Y-6.245
X18.78Y-6.145
X18.78Y-6.245
X18.88Y-6.145
X18.88Y-6.245
T2
G00X11.1099Y-5.5856
M15
G01X11.1099Y-5.6092
M16
G05
G00X11.1099Y-5.7403
M15
G01X11.1099Y-5.7836
M16
G05
G00X11.4501Y-5.5856
M15
G01X11.4501Y-5.6092
M16
G05
G00X11.4501Y-5.7403
M15
G01X11.4501Y-5.7836
M16
G05
T0
M30
