M48
; DRILL file {KiCad (5.1.4)-1} date 01/03/22 17:19:49
; FORMAT={-:-/ absolute / inch / decimal}
; #@! TF.CreationDate,2022-01-03T17:19:49-05:00
; #@! TF.GenerationSoftware,Kicad,Pcbnew,(5.1.4)-1
; #@! TF.FileFunction,Plated,1,2,PTH
FMAT,2
INCH
T1C0.0157
T2C0.0394
%
G90
G05
T1
X2.76Y-6.68
X3.415Y-5.09
X3.415Y-5.845
X4.72Y-5.095
X4.72Y-5.845
X5.375Y-6.17
X6.04Y-5.095
X6.04Y-5.845
X6.56Y-6.17
X7.33Y-5.095
X7.33Y-5.85
X8.645Y-5.85
X8.65Y-5.095
X9.98Y-5.09
X9.98Y-5.845
X11.28Y-5.09
X11.28Y-5.855
X12.605Y-5.09
X12.61Y-5.85
X13.91Y-5.095
X13.91Y-5.85
X15.21Y-5.095
X15.21Y-5.85
X16.48Y-5.095
X16.48Y-5.845
X16.87Y-6.835
X17.225Y-5.52
X17.285Y-6.085
X17.835Y-5.105
X17.835Y-5.845
T2
X17.285Y-6.32
X17.285Y-6.42
X17.385Y-6.32
X17.385Y-6.42
X17.485Y-6.32
X17.485Y-6.42
X17.585Y-6.32
X17.585Y-6.42
X17.685Y-6.32
X17.685Y-6.42
X17.785Y-6.32
X17.785Y-6.42
X17.885Y-6.32
X17.885Y-6.42
X17.985Y-6.32
X17.985Y-6.42
X18.085Y-6.32
X18.085Y-6.42
X18.185Y-6.32
X18.185Y-6.42
T0
M30
