G04 #@! TF.GenerationSoftware,KiCad,Pcbnew,(5.1.4)-1*
G04 #@! TF.CreationDate,2022-01-03T17:19:45-05:00*
G04 #@! TF.ProjectId,DOMAIN-1_Upper-Board,444f4d41-494e-42d3-915f-55707065722d,rev?*
G04 #@! TF.SameCoordinates,Original*
G04 #@! TF.FileFunction,Legend,Top*
G04 #@! TF.FilePolarity,Positive*
%FSLAX46Y46*%
G04 Gerber Fmt 4.6, Leading zero omitted, Abs format (unit mm)*
G04 Created by KiCad (PCBNEW (5.1.4)-1) date 2022-01-03 17:19:45*
%MOMM*%
%LPD*%
G04 APERTURE LIST*
%ADD10C,0.150000*%
%ADD11C,0.700000*%
G04 APERTURE END LIST*
D10*
X391535333Y-170124380D02*
X391535333Y-169124380D01*
X391773428Y-169124380D01*
X391916285Y-169172000D01*
X392011523Y-169267238D01*
X392059142Y-169362476D01*
X392106761Y-169552952D01*
X392106761Y-169695809D01*
X392059142Y-169886285D01*
X392011523Y-169981523D01*
X391916285Y-170076761D01*
X391773428Y-170124380D01*
X391535333Y-170124380D01*
X392725809Y-169124380D02*
X392916285Y-169124380D01*
X393011523Y-169172000D01*
X393106761Y-169267238D01*
X393154380Y-169457714D01*
X393154380Y-169791047D01*
X393106761Y-169981523D01*
X393011523Y-170076761D01*
X392916285Y-170124380D01*
X392725809Y-170124380D01*
X392630571Y-170076761D01*
X392535333Y-169981523D01*
X392487714Y-169791047D01*
X392487714Y-169457714D01*
X392535333Y-169267238D01*
X392630571Y-169172000D01*
X392725809Y-169124380D01*
X393582952Y-170124380D02*
X393582952Y-169124380D01*
X393916285Y-169838666D01*
X394249619Y-169124380D01*
X394249619Y-170124380D01*
X394678190Y-169838666D02*
X395154380Y-169838666D01*
X394582952Y-170124380D02*
X394916285Y-169124380D01*
X395249619Y-170124380D01*
X395582952Y-170124380D02*
X395582952Y-169124380D01*
X396059142Y-170124380D02*
X396059142Y-169124380D01*
X396630571Y-170124380D01*
X396630571Y-169124380D01*
X397106761Y-169743428D02*
X397868666Y-169743428D01*
X398868666Y-170124380D02*
X398297238Y-170124380D01*
X398582952Y-170124380D02*
X398582952Y-169124380D01*
X398487714Y-169267238D01*
X398392476Y-169362476D01*
X398297238Y-169410095D01*
X400059142Y-169124380D02*
X400059142Y-169933904D01*
X400106761Y-170029142D01*
X400154380Y-170076761D01*
X400249619Y-170124380D01*
X400440095Y-170124380D01*
X400535333Y-170076761D01*
X400582952Y-170029142D01*
X400630571Y-169933904D01*
X400630571Y-169124380D01*
X401106761Y-169457714D02*
X401106761Y-170457714D01*
X401106761Y-169505333D02*
X401202000Y-169457714D01*
X401392476Y-169457714D01*
X401487714Y-169505333D01*
X401535333Y-169552952D01*
X401582952Y-169648190D01*
X401582952Y-169933904D01*
X401535333Y-170029142D01*
X401487714Y-170076761D01*
X401392476Y-170124380D01*
X401202000Y-170124380D01*
X401106761Y-170076761D01*
X402011523Y-169457714D02*
X402011523Y-170457714D01*
X402011523Y-169505333D02*
X402106761Y-169457714D01*
X402297238Y-169457714D01*
X402392476Y-169505333D01*
X402440095Y-169552952D01*
X402487714Y-169648190D01*
X402487714Y-169933904D01*
X402440095Y-170029142D01*
X402392476Y-170076761D01*
X402297238Y-170124380D01*
X402106761Y-170124380D01*
X402011523Y-170076761D01*
X403297238Y-170076761D02*
X403202000Y-170124380D01*
X403011523Y-170124380D01*
X402916285Y-170076761D01*
X402868666Y-169981523D01*
X402868666Y-169600571D01*
X402916285Y-169505333D01*
X403011523Y-169457714D01*
X403202000Y-169457714D01*
X403297238Y-169505333D01*
X403344857Y-169600571D01*
X403344857Y-169695809D01*
X402868666Y-169791047D01*
X403773428Y-170124380D02*
X403773428Y-169457714D01*
X403773428Y-169648190D02*
X403821047Y-169552952D01*
X403868666Y-169505333D01*
X403963904Y-169457714D01*
X404059142Y-169457714D01*
X405487714Y-169600571D02*
X405630571Y-169648190D01*
X405678190Y-169695809D01*
X405725809Y-169791047D01*
X405725809Y-169933904D01*
X405678190Y-170029142D01*
X405630571Y-170076761D01*
X405535333Y-170124380D01*
X405154380Y-170124380D01*
X405154380Y-169124380D01*
X405487714Y-169124380D01*
X405582952Y-169172000D01*
X405630571Y-169219619D01*
X405678190Y-169314857D01*
X405678190Y-169410095D01*
X405630571Y-169505333D01*
X405582952Y-169552952D01*
X405487714Y-169600571D01*
X405154380Y-169600571D01*
X406297238Y-170124380D02*
X406202000Y-170076761D01*
X406154380Y-170029142D01*
X406106761Y-169933904D01*
X406106761Y-169648190D01*
X406154380Y-169552952D01*
X406202000Y-169505333D01*
X406297238Y-169457714D01*
X406440095Y-169457714D01*
X406535333Y-169505333D01*
X406582952Y-169552952D01*
X406630571Y-169648190D01*
X406630571Y-169933904D01*
X406582952Y-170029142D01*
X406535333Y-170076761D01*
X406440095Y-170124380D01*
X406297238Y-170124380D01*
X407487714Y-170124380D02*
X407487714Y-169600571D01*
X407440095Y-169505333D01*
X407344857Y-169457714D01*
X407154380Y-169457714D01*
X407059142Y-169505333D01*
X407487714Y-170076761D02*
X407392476Y-170124380D01*
X407154380Y-170124380D01*
X407059142Y-170076761D01*
X407011523Y-169981523D01*
X407011523Y-169886285D01*
X407059142Y-169791047D01*
X407154380Y-169743428D01*
X407392476Y-169743428D01*
X407487714Y-169695809D01*
X407963904Y-170124380D02*
X407963904Y-169457714D01*
X407963904Y-169648190D02*
X408011523Y-169552952D01*
X408059142Y-169505333D01*
X408154380Y-169457714D01*
X408249619Y-169457714D01*
X409011523Y-170124380D02*
X409011523Y-169124380D01*
X409011523Y-170076761D02*
X408916285Y-170124380D01*
X408725809Y-170124380D01*
X408630571Y-170076761D01*
X408582952Y-170029142D01*
X408535333Y-169933904D01*
X408535333Y-169648190D01*
X408582952Y-169552952D01*
X408630571Y-169505333D01*
X408725809Y-169457714D01*
X408916285Y-169457714D01*
X409011523Y-169505333D01*
X410249619Y-170124380D02*
X410249619Y-169124380D01*
X410630571Y-169124380D01*
X410725809Y-169172000D01*
X410773428Y-169219619D01*
X410821047Y-169314857D01*
X410821047Y-169457714D01*
X410773428Y-169552952D01*
X410725809Y-169600571D01*
X410630571Y-169648190D01*
X410249619Y-169648190D01*
X411821047Y-170029142D02*
X411773428Y-170076761D01*
X411630571Y-170124380D01*
X411535333Y-170124380D01*
X411392476Y-170076761D01*
X411297238Y-169981523D01*
X411249619Y-169886285D01*
X411202000Y-169695809D01*
X411202000Y-169552952D01*
X411249619Y-169362476D01*
X411297238Y-169267238D01*
X411392476Y-169172000D01*
X411535333Y-169124380D01*
X411630571Y-169124380D01*
X411773428Y-169172000D01*
X411821047Y-169219619D01*
X412582952Y-169600571D02*
X412725809Y-169648190D01*
X412773428Y-169695809D01*
X412821047Y-169791047D01*
X412821047Y-169933904D01*
X412773428Y-170029142D01*
X412725809Y-170076761D01*
X412630571Y-170124380D01*
X412249619Y-170124380D01*
X412249619Y-169124380D01*
X412582952Y-169124380D01*
X412678190Y-169172000D01*
X412725809Y-169219619D01*
X412773428Y-169314857D01*
X412773428Y-169410095D01*
X412725809Y-169505333D01*
X412678190Y-169552952D01*
X412582952Y-169600571D01*
X412249619Y-169600571D01*
X414582952Y-170124380D02*
X414249619Y-169648190D01*
X414011523Y-170124380D02*
X414011523Y-169124380D01*
X414392476Y-169124380D01*
X414487714Y-169172000D01*
X414535333Y-169219619D01*
X414582952Y-169314857D01*
X414582952Y-169457714D01*
X414535333Y-169552952D01*
X414487714Y-169600571D01*
X414392476Y-169648190D01*
X414011523Y-169648190D01*
X415392476Y-170076761D02*
X415297238Y-170124380D01*
X415106761Y-170124380D01*
X415011523Y-170076761D01*
X414963904Y-169981523D01*
X414963904Y-169600571D01*
X415011523Y-169505333D01*
X415106761Y-169457714D01*
X415297238Y-169457714D01*
X415392476Y-169505333D01*
X415440095Y-169600571D01*
X415440095Y-169695809D01*
X414963904Y-169791047D01*
X415773428Y-169457714D02*
X416011523Y-170124380D01*
X416249619Y-169457714D01*
X417916285Y-170124380D02*
X417344857Y-170124380D01*
X417630571Y-170124380D02*
X417630571Y-169124380D01*
X417535333Y-169267238D01*
X417440095Y-169362476D01*
X417344857Y-169410095D01*
X418344857Y-170029142D02*
X418392476Y-170076761D01*
X418344857Y-170124380D01*
X418297238Y-170076761D01*
X418344857Y-170029142D01*
X418344857Y-170124380D01*
X419011523Y-169124380D02*
X419106761Y-169124380D01*
X419202000Y-169172000D01*
X419249619Y-169219619D01*
X419297238Y-169314857D01*
X419344857Y-169505333D01*
X419344857Y-169743428D01*
X419297238Y-169933904D01*
X419249619Y-170029142D01*
X419202000Y-170076761D01*
X419106761Y-170124380D01*
X419011523Y-170124380D01*
X418916285Y-170076761D01*
X418868666Y-170029142D01*
X418821047Y-169933904D01*
X418773428Y-169743428D01*
X418773428Y-169505333D01*
X418821047Y-169314857D01*
X418868666Y-169219619D01*
X418916285Y-169172000D01*
X419011523Y-169124380D01*
X420440095Y-169124380D02*
X421059142Y-169124380D01*
X420725809Y-169505333D01*
X420868666Y-169505333D01*
X420963904Y-169552952D01*
X421011523Y-169600571D01*
X421059142Y-169695809D01*
X421059142Y-169933904D01*
X421011523Y-170029142D01*
X420963904Y-170076761D01*
X420868666Y-170124380D01*
X420582952Y-170124380D01*
X420487714Y-170076761D01*
X420440095Y-170029142D01*
X422202000Y-169076761D02*
X421344857Y-170362476D01*
X423059142Y-170124380D02*
X422487714Y-170124380D01*
X422773428Y-170124380D02*
X422773428Y-169124380D01*
X422678190Y-169267238D01*
X422582952Y-169362476D01*
X422487714Y-169410095D01*
X424202000Y-169076761D02*
X423344857Y-170362476D01*
X424487714Y-169219619D02*
X424535333Y-169172000D01*
X424630571Y-169124380D01*
X424868666Y-169124380D01*
X424963904Y-169172000D01*
X425011523Y-169219619D01*
X425059142Y-169314857D01*
X425059142Y-169410095D01*
X425011523Y-169552952D01*
X424440095Y-170124380D01*
X425059142Y-170124380D01*
X425678190Y-169124380D02*
X425773428Y-169124380D01*
X425868666Y-169172000D01*
X425916285Y-169219619D01*
X425963904Y-169314857D01*
X426011523Y-169505333D01*
X426011523Y-169743428D01*
X425963904Y-169933904D01*
X425916285Y-170029142D01*
X425868666Y-170076761D01*
X425773428Y-170124380D01*
X425678190Y-170124380D01*
X425582952Y-170076761D01*
X425535333Y-170029142D01*
X425487714Y-169933904D01*
X425440095Y-169743428D01*
X425440095Y-169505333D01*
X425487714Y-169314857D01*
X425535333Y-169219619D01*
X425582952Y-169172000D01*
X425678190Y-169124380D01*
X426392476Y-169219619D02*
X426440095Y-169172000D01*
X426535333Y-169124380D01*
X426773428Y-169124380D01*
X426868666Y-169172000D01*
X426916285Y-169219619D01*
X426963904Y-169314857D01*
X426963904Y-169410095D01*
X426916285Y-169552952D01*
X426344857Y-170124380D01*
X426963904Y-170124380D01*
X427344857Y-169219619D02*
X427392476Y-169172000D01*
X427487714Y-169124380D01*
X427725809Y-169124380D01*
X427821047Y-169172000D01*
X427868666Y-169219619D01*
X427916285Y-169314857D01*
X427916285Y-169410095D01*
X427868666Y-169552952D01*
X427297238Y-170124380D01*
X427916285Y-170124380D01*
D11*
X104548000Y-169917666D02*
X104548000Y-162917666D01*
X106214666Y-162917666D01*
X107214666Y-163251000D01*
X107881333Y-163917666D01*
X108214666Y-164584333D01*
X108548000Y-165917666D01*
X108548000Y-166917666D01*
X108214666Y-168251000D01*
X107881333Y-168917666D01*
X107214666Y-169584333D01*
X106214666Y-169917666D01*
X104548000Y-169917666D01*
X112881333Y-162917666D02*
X114214666Y-162917666D01*
X114881333Y-163251000D01*
X115548000Y-163917666D01*
X115881333Y-165251000D01*
X115881333Y-167584333D01*
X115548000Y-168917666D01*
X114881333Y-169584333D01*
X114214666Y-169917666D01*
X112881333Y-169917666D01*
X112214666Y-169584333D01*
X111548000Y-168917666D01*
X111214666Y-167584333D01*
X111214666Y-165251000D01*
X111548000Y-163917666D01*
X112214666Y-163251000D01*
X112881333Y-162917666D01*
X118881333Y-169917666D02*
X118881333Y-162917666D01*
X121214666Y-167917666D01*
X123548000Y-162917666D01*
X123548000Y-169917666D01*
X126548000Y-167917666D02*
X129881333Y-167917666D01*
X125881333Y-169917666D02*
X128214666Y-162917666D01*
X130548000Y-169917666D01*
X132881333Y-169917666D02*
X132881333Y-162917666D01*
X136214666Y-169917666D02*
X136214666Y-162917666D01*
X140214666Y-169917666D01*
X140214666Y-162917666D01*
X143548000Y-167251000D02*
X148881333Y-167251000D01*
X155881333Y-169917666D02*
X151881333Y-169917666D01*
X153881333Y-169917666D02*
X153881333Y-162917666D01*
X153214666Y-163917666D01*
X152548000Y-164584333D01*
X151881333Y-164917666D01*
M02*
