M48
; DRILL file {KiCad (5.1.4)-1} date 01/03/22 17:19:49
; FORMAT={-:-/ absolute / inch / decimal}
; #@! TF.CreationDate,2022-01-03T17:19:49-05:00
; #@! TF.GenerationSoftware,Kicad,Pcbnew,(5.1.4)-1
; #@! TF.FileFunction,NonPlated,1,2,NPTH
FMAT,2
INCH
T1C0.0689
T2C0.1181
T3C0.1570
%
G90
G05
T1
X11.47Y-5.945
X11.87Y-5.945
X18.03Y-5.195
X18.43Y-5.195
X3.595Y-5.945
X3.995Y-5.945
X10.155Y-5.195
X10.555Y-5.195
X3.595Y-5.195
X3.995Y-5.195
X11.47Y-5.195
X11.87Y-5.195
X18.03Y-5.945
X18.43Y-5.945
X6.22Y-5.945
X6.62Y-5.945
X16.72Y-5.945
X17.12Y-5.945
X14.095Y-5.195
X14.495Y-5.195
X14.09Y-5.945
X14.49Y-5.945
X7.53Y-5.945
X7.93Y-5.945
X12.78Y-5.945
X13.18Y-5.945
X15.405Y-5.195
X15.805Y-5.195
X6.22Y-5.195
X6.62Y-5.195
X7.53Y-5.195
X7.93Y-5.195
X8.845Y-5.945
X9.245Y-5.945
X15.405Y-5.945
X15.805Y-5.945
X10.155Y-5.945
X10.555Y-5.945
X4.91Y-5.945
X5.31Y-5.945
X16.72Y-5.195
X17.12Y-5.195
X12.78Y-5.195
X13.18Y-5.195
X8.845Y-5.195
X9.245Y-5.195
X4.905Y-5.195
X5.305Y-5.195
T2
X7.58Y-5.095
X7.83Y-4.995
X8.895Y-5.845
X9.145Y-5.745
X15.455Y-5.845
X15.705Y-5.745
X10.205Y-5.845
X10.455Y-5.745
X4.96Y-5.845
X5.21Y-5.745
X16.77Y-5.095
X17.02Y-4.995
X12.83Y-5.095
X13.08Y-4.995
X8.895Y-5.095
X9.145Y-4.995
X4.955Y-5.095
X5.205Y-4.995
X11.52Y-5.845
X11.77Y-5.745
X18.08Y-5.095
X18.33Y-4.995
X3.645Y-5.845
X3.895Y-5.745
X10.205Y-5.095
X10.455Y-4.995
X3.645Y-5.095
X3.895Y-4.995
X11.52Y-5.095
X11.77Y-4.995
X18.08Y-5.845
X18.33Y-5.745
X6.27Y-5.845
X6.52Y-5.745
X16.77Y-5.845
X17.02Y-5.745
X14.145Y-5.095
X14.395Y-4.995
X14.14Y-5.845
X14.39Y-5.745
X7.58Y-5.845
X7.83Y-5.745
X12.83Y-5.845
X13.08Y-5.745
X15.455Y-5.095
X15.705Y-4.995
X6.27Y-5.095
X6.52Y-4.995
T3
X7.73Y-5.195
X9.045Y-5.945
X15.605Y-5.945
X10.355Y-5.945
X5.11Y-5.945
X16.92Y-5.195
X12.98Y-5.195
X9.045Y-5.195
X5.105Y-5.195
X11.67Y-5.945
X18.23Y-5.195
X3.795Y-5.945
X10.355Y-5.195
X3.795Y-5.195
X11.67Y-5.195
X18.23Y-5.945
X6.42Y-5.945
X16.92Y-5.945
X14.295Y-5.195
X14.29Y-5.945
X7.73Y-5.945
X12.98Y-5.945
X15.605Y-5.195
X6.42Y-5.195
T0
M30
