G04 #@! TF.GenerationSoftware,KiCad,Pcbnew,(5.1.4)-1*
G04 #@! TF.CreationDate,2022-01-03T17:19:45-05:00*
G04 #@! TF.ProjectId,DOMAIN-1_Upper-Board,444f4d41-494e-42d3-915f-55707065722d,rev?*
G04 #@! TF.SameCoordinates,Original*
G04 #@! TF.FileFunction,Copper,L2,Bot*
G04 #@! TF.FilePolarity,Positive*
%FSLAX46Y46*%
G04 Gerber Fmt 4.6, Leading zero omitted, Abs format (unit mm)*
G04 Created by KiCad (PCBNEW (5.1.4)-1) date 2022-01-03 17:19:45*
%MOMM*%
%LPD*%
G04 APERTURE LIST*
%ADD10R,2.550000X2.500000*%
%ADD11C,0.100000*%
%ADD12C,0.875000*%
%ADD13R,1.400000X1.800000*%
%ADD14C,1.700000*%
%ADD15R,1.200000X0.900000*%
%ADD16C,0.800000*%
%ADD17C,0.250000*%
%ADD18C,0.381000*%
G04 APERTURE END LIST*
D10*
X368935000Y-126873000D03*
X356008000Y-129413000D03*
D11*
G36*
X488656691Y-124113053D02*
G01*
X488677926Y-124116203D01*
X488698750Y-124121419D01*
X488718962Y-124128651D01*
X488738368Y-124137830D01*
X488756781Y-124148866D01*
X488774024Y-124161654D01*
X488789930Y-124176070D01*
X488804346Y-124191976D01*
X488817134Y-124209219D01*
X488828170Y-124227632D01*
X488837349Y-124247038D01*
X488844581Y-124267250D01*
X488849797Y-124288074D01*
X488852947Y-124309309D01*
X488854000Y-124330750D01*
X488854000Y-124843250D01*
X488852947Y-124864691D01*
X488849797Y-124885926D01*
X488844581Y-124906750D01*
X488837349Y-124926962D01*
X488828170Y-124946368D01*
X488817134Y-124964781D01*
X488804346Y-124982024D01*
X488789930Y-124997930D01*
X488774024Y-125012346D01*
X488756781Y-125025134D01*
X488738368Y-125036170D01*
X488718962Y-125045349D01*
X488698750Y-125052581D01*
X488677926Y-125057797D01*
X488656691Y-125060947D01*
X488635250Y-125062000D01*
X488197750Y-125062000D01*
X488176309Y-125060947D01*
X488155074Y-125057797D01*
X488134250Y-125052581D01*
X488114038Y-125045349D01*
X488094632Y-125036170D01*
X488076219Y-125025134D01*
X488058976Y-125012346D01*
X488043070Y-124997930D01*
X488028654Y-124982024D01*
X488015866Y-124964781D01*
X488004830Y-124946368D01*
X487995651Y-124926962D01*
X487988419Y-124906750D01*
X487983203Y-124885926D01*
X487980053Y-124864691D01*
X487979000Y-124843250D01*
X487979000Y-124330750D01*
X487980053Y-124309309D01*
X487983203Y-124288074D01*
X487988419Y-124267250D01*
X487995651Y-124247038D01*
X488004830Y-124227632D01*
X488015866Y-124209219D01*
X488028654Y-124191976D01*
X488043070Y-124176070D01*
X488058976Y-124161654D01*
X488076219Y-124148866D01*
X488094632Y-124137830D01*
X488114038Y-124128651D01*
X488134250Y-124121419D01*
X488155074Y-124116203D01*
X488176309Y-124113053D01*
X488197750Y-124112000D01*
X488635250Y-124112000D01*
X488656691Y-124113053D01*
X488656691Y-124113053D01*
G37*
D12*
X488416500Y-124587000D03*
D11*
G36*
X490231691Y-124113053D02*
G01*
X490252926Y-124116203D01*
X490273750Y-124121419D01*
X490293962Y-124128651D01*
X490313368Y-124137830D01*
X490331781Y-124148866D01*
X490349024Y-124161654D01*
X490364930Y-124176070D01*
X490379346Y-124191976D01*
X490392134Y-124209219D01*
X490403170Y-124227632D01*
X490412349Y-124247038D01*
X490419581Y-124267250D01*
X490424797Y-124288074D01*
X490427947Y-124309309D01*
X490429000Y-124330750D01*
X490429000Y-124843250D01*
X490427947Y-124864691D01*
X490424797Y-124885926D01*
X490419581Y-124906750D01*
X490412349Y-124926962D01*
X490403170Y-124946368D01*
X490392134Y-124964781D01*
X490379346Y-124982024D01*
X490364930Y-124997930D01*
X490349024Y-125012346D01*
X490331781Y-125025134D01*
X490313368Y-125036170D01*
X490293962Y-125045349D01*
X490273750Y-125052581D01*
X490252926Y-125057797D01*
X490231691Y-125060947D01*
X490210250Y-125062000D01*
X489772750Y-125062000D01*
X489751309Y-125060947D01*
X489730074Y-125057797D01*
X489709250Y-125052581D01*
X489689038Y-125045349D01*
X489669632Y-125036170D01*
X489651219Y-125025134D01*
X489633976Y-125012346D01*
X489618070Y-124997930D01*
X489603654Y-124982024D01*
X489590866Y-124964781D01*
X489579830Y-124946368D01*
X489570651Y-124926962D01*
X489563419Y-124906750D01*
X489558203Y-124885926D01*
X489555053Y-124864691D01*
X489554000Y-124843250D01*
X489554000Y-124330750D01*
X489555053Y-124309309D01*
X489558203Y-124288074D01*
X489563419Y-124267250D01*
X489570651Y-124247038D01*
X489579830Y-124227632D01*
X489590866Y-124209219D01*
X489603654Y-124191976D01*
X489618070Y-124176070D01*
X489633976Y-124161654D01*
X489651219Y-124148866D01*
X489669632Y-124137830D01*
X489689038Y-124128651D01*
X489709250Y-124121419D01*
X489730074Y-124116203D01*
X489751309Y-124113053D01*
X489772750Y-124112000D01*
X490210250Y-124112000D01*
X490231691Y-124113053D01*
X490231691Y-124113053D01*
G37*
D12*
X489991500Y-124587000D03*
D11*
G36*
X488656691Y-153450053D02*
G01*
X488677926Y-153453203D01*
X488698750Y-153458419D01*
X488718962Y-153465651D01*
X488738368Y-153474830D01*
X488756781Y-153485866D01*
X488774024Y-153498654D01*
X488789930Y-153513070D01*
X488804346Y-153528976D01*
X488817134Y-153546219D01*
X488828170Y-153564632D01*
X488837349Y-153584038D01*
X488844581Y-153604250D01*
X488849797Y-153625074D01*
X488852947Y-153646309D01*
X488854000Y-153667750D01*
X488854000Y-154180250D01*
X488852947Y-154201691D01*
X488849797Y-154222926D01*
X488844581Y-154243750D01*
X488837349Y-154263962D01*
X488828170Y-154283368D01*
X488817134Y-154301781D01*
X488804346Y-154319024D01*
X488789930Y-154334930D01*
X488774024Y-154349346D01*
X488756781Y-154362134D01*
X488738368Y-154373170D01*
X488718962Y-154382349D01*
X488698750Y-154389581D01*
X488677926Y-154394797D01*
X488656691Y-154397947D01*
X488635250Y-154399000D01*
X488197750Y-154399000D01*
X488176309Y-154397947D01*
X488155074Y-154394797D01*
X488134250Y-154389581D01*
X488114038Y-154382349D01*
X488094632Y-154373170D01*
X488076219Y-154362134D01*
X488058976Y-154349346D01*
X488043070Y-154334930D01*
X488028654Y-154319024D01*
X488015866Y-154301781D01*
X488004830Y-154283368D01*
X487995651Y-154263962D01*
X487988419Y-154243750D01*
X487983203Y-154222926D01*
X487980053Y-154201691D01*
X487979000Y-154180250D01*
X487979000Y-153667750D01*
X487980053Y-153646309D01*
X487983203Y-153625074D01*
X487988419Y-153604250D01*
X487995651Y-153584038D01*
X488004830Y-153564632D01*
X488015866Y-153546219D01*
X488028654Y-153528976D01*
X488043070Y-153513070D01*
X488058976Y-153498654D01*
X488076219Y-153485866D01*
X488094632Y-153474830D01*
X488114038Y-153465651D01*
X488134250Y-153458419D01*
X488155074Y-153453203D01*
X488176309Y-153450053D01*
X488197750Y-153449000D01*
X488635250Y-153449000D01*
X488656691Y-153450053D01*
X488656691Y-153450053D01*
G37*
D12*
X488416500Y-153924000D03*
D11*
G36*
X490231691Y-153450053D02*
G01*
X490252926Y-153453203D01*
X490273750Y-153458419D01*
X490293962Y-153465651D01*
X490313368Y-153474830D01*
X490331781Y-153485866D01*
X490349024Y-153498654D01*
X490364930Y-153513070D01*
X490379346Y-153528976D01*
X490392134Y-153546219D01*
X490403170Y-153564632D01*
X490412349Y-153584038D01*
X490419581Y-153604250D01*
X490424797Y-153625074D01*
X490427947Y-153646309D01*
X490429000Y-153667750D01*
X490429000Y-154180250D01*
X490427947Y-154201691D01*
X490424797Y-154222926D01*
X490419581Y-154243750D01*
X490412349Y-154263962D01*
X490403170Y-154283368D01*
X490392134Y-154301781D01*
X490379346Y-154319024D01*
X490364930Y-154334930D01*
X490349024Y-154349346D01*
X490331781Y-154362134D01*
X490313368Y-154373170D01*
X490293962Y-154382349D01*
X490273750Y-154389581D01*
X490252926Y-154394797D01*
X490231691Y-154397947D01*
X490210250Y-154399000D01*
X489772750Y-154399000D01*
X489751309Y-154397947D01*
X489730074Y-154394797D01*
X489709250Y-154389581D01*
X489689038Y-154382349D01*
X489669632Y-154373170D01*
X489651219Y-154362134D01*
X489633976Y-154349346D01*
X489618070Y-154334930D01*
X489603654Y-154319024D01*
X489590866Y-154301781D01*
X489579830Y-154283368D01*
X489570651Y-154263962D01*
X489563419Y-154243750D01*
X489558203Y-154222926D01*
X489555053Y-154201691D01*
X489554000Y-154180250D01*
X489554000Y-153667750D01*
X489555053Y-153646309D01*
X489558203Y-153625074D01*
X489563419Y-153604250D01*
X489570651Y-153584038D01*
X489579830Y-153564632D01*
X489590866Y-153546219D01*
X489603654Y-153528976D01*
X489618070Y-153513070D01*
X489633976Y-153498654D01*
X489651219Y-153485866D01*
X489669632Y-153474830D01*
X489689038Y-153465651D01*
X489709250Y-153458419D01*
X489730074Y-153453203D01*
X489751309Y-153450053D01*
X489772750Y-153449000D01*
X490210250Y-153449000D01*
X490231691Y-153450053D01*
X490231691Y-153450053D01*
G37*
D12*
X489991500Y-153924000D03*
D11*
G36*
X71893691Y-137956053D02*
G01*
X71914926Y-137959203D01*
X71935750Y-137964419D01*
X71955962Y-137971651D01*
X71975368Y-137980830D01*
X71993781Y-137991866D01*
X72011024Y-138004654D01*
X72026930Y-138019070D01*
X72041346Y-138034976D01*
X72054134Y-138052219D01*
X72065170Y-138070632D01*
X72074349Y-138090038D01*
X72081581Y-138110250D01*
X72086797Y-138131074D01*
X72089947Y-138152309D01*
X72091000Y-138173750D01*
X72091000Y-138686250D01*
X72089947Y-138707691D01*
X72086797Y-138728926D01*
X72081581Y-138749750D01*
X72074349Y-138769962D01*
X72065170Y-138789368D01*
X72054134Y-138807781D01*
X72041346Y-138825024D01*
X72026930Y-138840930D01*
X72011024Y-138855346D01*
X71993781Y-138868134D01*
X71975368Y-138879170D01*
X71955962Y-138888349D01*
X71935750Y-138895581D01*
X71914926Y-138900797D01*
X71893691Y-138903947D01*
X71872250Y-138905000D01*
X71434750Y-138905000D01*
X71413309Y-138903947D01*
X71392074Y-138900797D01*
X71371250Y-138895581D01*
X71351038Y-138888349D01*
X71331632Y-138879170D01*
X71313219Y-138868134D01*
X71295976Y-138855346D01*
X71280070Y-138840930D01*
X71265654Y-138825024D01*
X71252866Y-138807781D01*
X71241830Y-138789368D01*
X71232651Y-138769962D01*
X71225419Y-138749750D01*
X71220203Y-138728926D01*
X71217053Y-138707691D01*
X71216000Y-138686250D01*
X71216000Y-138173750D01*
X71217053Y-138152309D01*
X71220203Y-138131074D01*
X71225419Y-138110250D01*
X71232651Y-138090038D01*
X71241830Y-138070632D01*
X71252866Y-138052219D01*
X71265654Y-138034976D01*
X71280070Y-138019070D01*
X71295976Y-138004654D01*
X71313219Y-137991866D01*
X71331632Y-137980830D01*
X71351038Y-137971651D01*
X71371250Y-137964419D01*
X71392074Y-137959203D01*
X71413309Y-137956053D01*
X71434750Y-137955000D01*
X71872250Y-137955000D01*
X71893691Y-137956053D01*
X71893691Y-137956053D01*
G37*
D12*
X71653500Y-138430000D03*
D11*
G36*
X70318691Y-137956053D02*
G01*
X70339926Y-137959203D01*
X70360750Y-137964419D01*
X70380962Y-137971651D01*
X70400368Y-137980830D01*
X70418781Y-137991866D01*
X70436024Y-138004654D01*
X70451930Y-138019070D01*
X70466346Y-138034976D01*
X70479134Y-138052219D01*
X70490170Y-138070632D01*
X70499349Y-138090038D01*
X70506581Y-138110250D01*
X70511797Y-138131074D01*
X70514947Y-138152309D01*
X70516000Y-138173750D01*
X70516000Y-138686250D01*
X70514947Y-138707691D01*
X70511797Y-138728926D01*
X70506581Y-138749750D01*
X70499349Y-138769962D01*
X70490170Y-138789368D01*
X70479134Y-138807781D01*
X70466346Y-138825024D01*
X70451930Y-138840930D01*
X70436024Y-138855346D01*
X70418781Y-138868134D01*
X70400368Y-138879170D01*
X70380962Y-138888349D01*
X70360750Y-138895581D01*
X70339926Y-138900797D01*
X70318691Y-138903947D01*
X70297250Y-138905000D01*
X69859750Y-138905000D01*
X69838309Y-138903947D01*
X69817074Y-138900797D01*
X69796250Y-138895581D01*
X69776038Y-138888349D01*
X69756632Y-138879170D01*
X69738219Y-138868134D01*
X69720976Y-138855346D01*
X69705070Y-138840930D01*
X69690654Y-138825024D01*
X69677866Y-138807781D01*
X69666830Y-138789368D01*
X69657651Y-138769962D01*
X69650419Y-138749750D01*
X69645203Y-138728926D01*
X69642053Y-138707691D01*
X69641000Y-138686250D01*
X69641000Y-138173750D01*
X69642053Y-138152309D01*
X69645203Y-138131074D01*
X69650419Y-138110250D01*
X69657651Y-138090038D01*
X69666830Y-138070632D01*
X69677866Y-138052219D01*
X69690654Y-138034976D01*
X69705070Y-138019070D01*
X69720976Y-138004654D01*
X69738219Y-137991866D01*
X69756632Y-137980830D01*
X69776038Y-137971651D01*
X69796250Y-137964419D01*
X69817074Y-137959203D01*
X69838309Y-137956053D01*
X69859750Y-137955000D01*
X70297250Y-137955000D01*
X70318691Y-137956053D01*
X70318691Y-137956053D01*
G37*
D12*
X70078500Y-138430000D03*
D11*
G36*
X71893691Y-167039053D02*
G01*
X71914926Y-167042203D01*
X71935750Y-167047419D01*
X71955962Y-167054651D01*
X71975368Y-167063830D01*
X71993781Y-167074866D01*
X72011024Y-167087654D01*
X72026930Y-167102070D01*
X72041346Y-167117976D01*
X72054134Y-167135219D01*
X72065170Y-167153632D01*
X72074349Y-167173038D01*
X72081581Y-167193250D01*
X72086797Y-167214074D01*
X72089947Y-167235309D01*
X72091000Y-167256750D01*
X72091000Y-167769250D01*
X72089947Y-167790691D01*
X72086797Y-167811926D01*
X72081581Y-167832750D01*
X72074349Y-167852962D01*
X72065170Y-167872368D01*
X72054134Y-167890781D01*
X72041346Y-167908024D01*
X72026930Y-167923930D01*
X72011024Y-167938346D01*
X71993781Y-167951134D01*
X71975368Y-167962170D01*
X71955962Y-167971349D01*
X71935750Y-167978581D01*
X71914926Y-167983797D01*
X71893691Y-167986947D01*
X71872250Y-167988000D01*
X71434750Y-167988000D01*
X71413309Y-167986947D01*
X71392074Y-167983797D01*
X71371250Y-167978581D01*
X71351038Y-167971349D01*
X71331632Y-167962170D01*
X71313219Y-167951134D01*
X71295976Y-167938346D01*
X71280070Y-167923930D01*
X71265654Y-167908024D01*
X71252866Y-167890781D01*
X71241830Y-167872368D01*
X71232651Y-167852962D01*
X71225419Y-167832750D01*
X71220203Y-167811926D01*
X71217053Y-167790691D01*
X71216000Y-167769250D01*
X71216000Y-167256750D01*
X71217053Y-167235309D01*
X71220203Y-167214074D01*
X71225419Y-167193250D01*
X71232651Y-167173038D01*
X71241830Y-167153632D01*
X71252866Y-167135219D01*
X71265654Y-167117976D01*
X71280070Y-167102070D01*
X71295976Y-167087654D01*
X71313219Y-167074866D01*
X71331632Y-167063830D01*
X71351038Y-167054651D01*
X71371250Y-167047419D01*
X71392074Y-167042203D01*
X71413309Y-167039053D01*
X71434750Y-167038000D01*
X71872250Y-167038000D01*
X71893691Y-167039053D01*
X71893691Y-167039053D01*
G37*
D12*
X71653500Y-167513000D03*
D11*
G36*
X70318691Y-167039053D02*
G01*
X70339926Y-167042203D01*
X70360750Y-167047419D01*
X70380962Y-167054651D01*
X70400368Y-167063830D01*
X70418781Y-167074866D01*
X70436024Y-167087654D01*
X70451930Y-167102070D01*
X70466346Y-167117976D01*
X70479134Y-167135219D01*
X70490170Y-167153632D01*
X70499349Y-167173038D01*
X70506581Y-167193250D01*
X70511797Y-167214074D01*
X70514947Y-167235309D01*
X70516000Y-167256750D01*
X70516000Y-167769250D01*
X70514947Y-167790691D01*
X70511797Y-167811926D01*
X70506581Y-167832750D01*
X70499349Y-167852962D01*
X70490170Y-167872368D01*
X70479134Y-167890781D01*
X70466346Y-167908024D01*
X70451930Y-167923930D01*
X70436024Y-167938346D01*
X70418781Y-167951134D01*
X70400368Y-167962170D01*
X70380962Y-167971349D01*
X70360750Y-167978581D01*
X70339926Y-167983797D01*
X70318691Y-167986947D01*
X70297250Y-167988000D01*
X69859750Y-167988000D01*
X69838309Y-167986947D01*
X69817074Y-167983797D01*
X69796250Y-167978581D01*
X69776038Y-167971349D01*
X69756632Y-167962170D01*
X69738219Y-167951134D01*
X69720976Y-167938346D01*
X69705070Y-167923930D01*
X69690654Y-167908024D01*
X69677866Y-167890781D01*
X69666830Y-167872368D01*
X69657651Y-167852962D01*
X69650419Y-167832750D01*
X69645203Y-167811926D01*
X69642053Y-167790691D01*
X69641000Y-167769250D01*
X69641000Y-167256750D01*
X69642053Y-167235309D01*
X69645203Y-167214074D01*
X69650419Y-167193250D01*
X69657651Y-167173038D01*
X69666830Y-167153632D01*
X69677866Y-167135219D01*
X69690654Y-167117976D01*
X69705070Y-167102070D01*
X69720976Y-167087654D01*
X69738219Y-167074866D01*
X69756632Y-167063830D01*
X69776038Y-167054651D01*
X69796250Y-167047419D01*
X69817074Y-167042203D01*
X69838309Y-167039053D01*
X69859750Y-167038000D01*
X70297250Y-167038000D01*
X70318691Y-167039053D01*
X70318691Y-167039053D01*
G37*
D12*
X70078500Y-167513000D03*
D13*
X490600000Y-159906000D03*
X487300000Y-159906000D03*
X487300000Y-164706000D03*
X490600000Y-164706000D03*
X68962000Y-131686000D03*
X72262000Y-131686000D03*
X72262000Y-126886000D03*
X68962000Y-126886000D03*
X490727000Y-128410000D03*
X487427000Y-128410000D03*
X487427000Y-133210000D03*
X490727000Y-133210000D03*
X69216000Y-162928000D03*
X72516000Y-162928000D03*
X72516000Y-158128000D03*
X69216000Y-158128000D03*
D10*
X468884000Y-145923000D03*
X455957000Y-148463000D03*
X435610000Y-145923000D03*
X422683000Y-148463000D03*
X402209000Y-145923000D03*
X389282000Y-148463000D03*
X368808000Y-145923000D03*
X355881000Y-148463000D03*
X335534000Y-145923000D03*
X322607000Y-148463000D03*
X302260000Y-145923000D03*
X289333000Y-148463000D03*
X268859000Y-145923000D03*
X255932000Y-148463000D03*
X235585000Y-145923000D03*
X222658000Y-148463000D03*
X202184000Y-145923000D03*
X189257000Y-148463000D03*
X168910000Y-145923000D03*
X155983000Y-148463000D03*
X135636000Y-145923000D03*
X122709000Y-148463000D03*
X102235000Y-145923000D03*
X89308000Y-148463000D03*
X468884000Y-126873000D03*
X455957000Y-129413000D03*
X435610000Y-126873000D03*
X422683000Y-129413000D03*
X402209000Y-126873000D03*
X389282000Y-129413000D03*
X335534000Y-126873000D03*
X322607000Y-129413000D03*
X302260000Y-126873000D03*
X289333000Y-129413000D03*
X268859000Y-126873000D03*
X255932000Y-129413000D03*
X235585000Y-126873000D03*
X222658000Y-129413000D03*
X202184000Y-126873000D03*
X189257000Y-129413000D03*
X168910000Y-126873000D03*
X155983000Y-129413000D03*
X135509000Y-126873000D03*
X122582000Y-129413000D03*
X102235000Y-126873000D03*
X89308000Y-129413000D03*
D14*
X461899000Y-163068000D03*
X459359000Y-163068000D03*
X456819000Y-163068000D03*
X454279000Y-163068000D03*
X451739000Y-163068000D03*
X449199000Y-163068000D03*
X446659000Y-163068000D03*
X444119000Y-163068000D03*
X441579000Y-163068000D03*
X439039000Y-163068000D03*
X461899000Y-160528000D03*
X459359000Y-160528000D03*
X456819000Y-160528000D03*
X454279000Y-160528000D03*
X451739000Y-160528000D03*
X449199000Y-160528000D03*
X446659000Y-160528000D03*
X444119000Y-160528000D03*
X441579000Y-160528000D03*
D11*
G36*
X439663504Y-159679204D02*
G01*
X439687773Y-159682804D01*
X439711571Y-159688765D01*
X439734671Y-159697030D01*
X439756849Y-159707520D01*
X439777893Y-159720133D01*
X439797598Y-159734747D01*
X439815777Y-159751223D01*
X439832253Y-159769402D01*
X439846867Y-159789107D01*
X439859480Y-159810151D01*
X439869970Y-159832329D01*
X439878235Y-159855429D01*
X439884196Y-159879227D01*
X439887796Y-159903496D01*
X439889000Y-159928000D01*
X439889000Y-161128000D01*
X439887796Y-161152504D01*
X439884196Y-161176773D01*
X439878235Y-161200571D01*
X439869970Y-161223671D01*
X439859480Y-161245849D01*
X439846867Y-161266893D01*
X439832253Y-161286598D01*
X439815777Y-161304777D01*
X439797598Y-161321253D01*
X439777893Y-161335867D01*
X439756849Y-161348480D01*
X439734671Y-161358970D01*
X439711571Y-161367235D01*
X439687773Y-161373196D01*
X439663504Y-161376796D01*
X439639000Y-161378000D01*
X438439000Y-161378000D01*
X438414496Y-161376796D01*
X438390227Y-161373196D01*
X438366429Y-161367235D01*
X438343329Y-161358970D01*
X438321151Y-161348480D01*
X438300107Y-161335867D01*
X438280402Y-161321253D01*
X438262223Y-161304777D01*
X438245747Y-161286598D01*
X438231133Y-161266893D01*
X438218520Y-161245849D01*
X438208030Y-161223671D01*
X438199765Y-161200571D01*
X438193804Y-161176773D01*
X438190204Y-161152504D01*
X438189000Y-161128000D01*
X438189000Y-159928000D01*
X438190204Y-159903496D01*
X438193804Y-159879227D01*
X438199765Y-159855429D01*
X438208030Y-159832329D01*
X438218520Y-159810151D01*
X438231133Y-159789107D01*
X438245747Y-159769402D01*
X438262223Y-159751223D01*
X438280402Y-159734747D01*
X438300107Y-159720133D01*
X438321151Y-159707520D01*
X438343329Y-159697030D01*
X438366429Y-159688765D01*
X438390227Y-159682804D01*
X438414496Y-159679204D01*
X438439000Y-159678000D01*
X439639000Y-159678000D01*
X439663504Y-159679204D01*
X439663504Y-159679204D01*
G37*
D14*
X439039000Y-160528000D03*
D15*
X468122000Y-153417000D03*
X468122000Y-156717000D03*
X434848000Y-153417000D03*
X434848000Y-156717000D03*
X401447000Y-153417000D03*
X401447000Y-156717000D03*
X368046000Y-153417000D03*
X368046000Y-156717000D03*
X334772000Y-153417000D03*
X334772000Y-156717000D03*
X301498000Y-153417000D03*
X301498000Y-156717000D03*
X268097000Y-153417000D03*
X268097000Y-156717000D03*
X234823000Y-153417000D03*
X234823000Y-156717000D03*
X201422000Y-153417000D03*
X201422000Y-156717000D03*
X168148000Y-153417000D03*
X168148000Y-156717000D03*
X134874000Y-153417000D03*
X134874000Y-156717000D03*
X101473000Y-153417000D03*
X101473000Y-156717000D03*
X468122000Y-134367000D03*
X468122000Y-137667000D03*
X434848000Y-134367000D03*
X434848000Y-137667000D03*
X401447000Y-134367000D03*
X401447000Y-137667000D03*
X368173000Y-134367000D03*
X368173000Y-137667000D03*
X334772000Y-134367000D03*
X334772000Y-137667000D03*
X301498000Y-134367000D03*
X301498000Y-137667000D03*
X268097000Y-134367000D03*
X268097000Y-137667000D03*
X234823000Y-134367000D03*
X234823000Y-137667000D03*
X201422000Y-134367000D03*
X201422000Y-137667000D03*
X168148000Y-134367000D03*
X168148000Y-137667000D03*
X134747000Y-134367000D03*
X134747000Y-137667000D03*
X101473000Y-134367000D03*
X101473000Y-137667000D03*
D16*
X437515000Y-140208000D03*
X439039000Y-154559000D03*
X136525000Y-156718000D03*
X166624000Y-156718000D03*
X86741000Y-148463000D03*
X86741000Y-129286000D03*
X119888000Y-129413000D03*
X119888000Y-148463000D03*
X320294000Y-148590000D03*
X320167000Y-129286000D03*
X286512000Y-129286000D03*
X286512000Y-148717000D03*
X253492000Y-148463000D03*
X253492000Y-129286000D03*
X219710000Y-129413000D03*
X219583000Y-148590000D03*
X186182000Y-129413000D03*
X186182000Y-148590000D03*
X153416000Y-148463000D03*
X153416000Y-129413000D03*
X428498000Y-173609000D03*
X353314000Y-129413000D03*
X353314000Y-148590000D03*
X386334000Y-129413000D03*
X386334000Y-148590000D03*
X418592000Y-129413000D03*
X418592000Y-148463000D03*
X453009000Y-148463000D03*
X453009000Y-129667000D03*
X70104000Y-169672000D03*
D17*
X102235000Y-128373000D02*
X102235000Y-126873000D01*
X102673001Y-128811001D02*
X102235000Y-128373000D01*
X102673001Y-132529001D02*
X102673001Y-128811001D01*
X101473000Y-133729002D02*
X102673001Y-132529001D01*
X101473000Y-134367000D02*
X101473000Y-133729002D01*
X302348000Y-137667000D02*
X334772000Y-137667000D01*
X301498000Y-137667000D02*
X302348000Y-137667000D01*
X334772000Y-137667000D02*
X368173000Y-137667000D01*
X369023000Y-137667000D02*
X401447000Y-137667000D01*
X368173000Y-137667000D02*
X369023000Y-137667000D01*
X401447000Y-137667000D02*
X434848000Y-137667000D01*
X435698000Y-137667000D02*
X468122000Y-137667000D01*
X434848000Y-137667000D02*
X435698000Y-137667000D01*
X300648000Y-137667000D02*
X268097000Y-137667000D01*
X301498000Y-137667000D02*
X300648000Y-137667000D01*
X268097000Y-137667000D02*
X234823000Y-137667000D01*
X233973000Y-137667000D02*
X201422000Y-137667000D01*
X234823000Y-137667000D02*
X233973000Y-137667000D01*
X200572000Y-137667000D02*
X168148000Y-137667000D01*
X201422000Y-137667000D02*
X200572000Y-137667000D01*
X168148000Y-137667000D02*
X134747000Y-137667000D01*
X133897000Y-137667000D02*
X101473000Y-137667000D01*
X134747000Y-137667000D02*
X133897000Y-137667000D01*
X437515000Y-140184000D02*
X437515000Y-140208000D01*
X434848000Y-137667000D02*
X434998000Y-137667000D01*
X434998000Y-137667000D02*
X437515000Y-140184000D01*
X135509000Y-128373000D02*
X135509000Y-126873000D01*
X135947001Y-128811001D02*
X135509000Y-128373000D01*
X135947001Y-132466999D02*
X135947001Y-128811001D01*
X134747000Y-133667000D02*
X135947001Y-132466999D01*
X134747000Y-134367000D02*
X134747000Y-133667000D01*
X168910000Y-128373000D02*
X168910000Y-126873000D01*
X169348001Y-128811001D02*
X168910000Y-128373000D01*
X169348001Y-132466999D02*
X169348001Y-128811001D01*
X168148000Y-133667000D02*
X169348001Y-132466999D01*
X168148000Y-134367000D02*
X168148000Y-133667000D01*
X202184000Y-128373000D02*
X202184000Y-126873000D01*
X202622001Y-128811001D02*
X202184000Y-128373000D01*
X202622001Y-132466999D02*
X202622001Y-128811001D01*
X201422000Y-133667000D02*
X202622001Y-132466999D01*
X201422000Y-134367000D02*
X201422000Y-133667000D01*
X235585000Y-128373000D02*
X235585000Y-126873000D01*
X236023001Y-128811001D02*
X235585000Y-128373000D01*
X236023001Y-132466999D02*
X236023001Y-128811001D01*
X234823000Y-133667000D02*
X236023001Y-132466999D01*
X234823000Y-134367000D02*
X234823000Y-133667000D01*
X268859000Y-128373000D02*
X268859000Y-126873000D01*
X269297001Y-128811001D02*
X268859000Y-128373000D01*
X269297001Y-132466999D02*
X269297001Y-128811001D01*
X268097000Y-133667000D02*
X269297001Y-132466999D01*
X268097000Y-134367000D02*
X268097000Y-133667000D01*
X302260000Y-128373000D02*
X302260000Y-126873000D01*
X302698001Y-128811001D02*
X302260000Y-128373000D01*
X302698001Y-132529001D02*
X302698001Y-128811001D01*
X301498000Y-133729002D02*
X302698001Y-132529001D01*
X301498000Y-134367000D02*
X301498000Y-133729002D01*
X335534000Y-128373000D02*
X335534000Y-126873000D01*
X335972001Y-128811001D02*
X335534000Y-128373000D01*
X335972001Y-132466999D02*
X335972001Y-128811001D01*
X334772000Y-133667000D02*
X335972001Y-132466999D01*
X334772000Y-134367000D02*
X334772000Y-133667000D01*
X368935000Y-128373000D02*
X368935000Y-126873000D01*
X369373001Y-128811001D02*
X368935000Y-128373000D01*
X369373001Y-132529001D02*
X369373001Y-128811001D01*
X368173000Y-133729002D02*
X369373001Y-132529001D01*
X368173000Y-134367000D02*
X368173000Y-133729002D01*
X402209000Y-128373000D02*
X402209000Y-126873000D01*
X402647001Y-128811001D02*
X402209000Y-128373000D01*
X402647001Y-132529001D02*
X402647001Y-128811001D01*
X401447000Y-133729002D02*
X402647001Y-132529001D01*
X401447000Y-134367000D02*
X401447000Y-133729002D01*
X435610000Y-128373000D02*
X435610000Y-126873000D01*
X436048001Y-128811001D02*
X435610000Y-128373000D01*
X436048001Y-132529001D02*
X436048001Y-128811001D01*
X434848000Y-133729002D02*
X436048001Y-132529001D01*
X434848000Y-134367000D02*
X434848000Y-133729002D01*
X468884000Y-128373000D02*
X468884000Y-126873000D01*
X469322001Y-128811001D02*
X468884000Y-128373000D01*
X469322001Y-132529001D02*
X469322001Y-128811001D01*
X468122000Y-133729002D02*
X469322001Y-132529001D01*
X468122000Y-134367000D02*
X468122000Y-133729002D01*
X102235000Y-147423000D02*
X102235000Y-145923000D01*
X102673001Y-147861001D02*
X102235000Y-147423000D01*
X102673001Y-151579001D02*
X102673001Y-147861001D01*
X101473000Y-152779002D02*
X102673001Y-151579001D01*
X101473000Y-153417000D02*
X101473000Y-152779002D01*
X434848000Y-156717000D02*
X435698000Y-156717000D01*
X402297000Y-156717000D02*
X434848000Y-156717000D01*
X401447000Y-156717000D02*
X402297000Y-156717000D01*
X368896000Y-156717000D02*
X401447000Y-156717000D01*
X368046000Y-156717000D02*
X368896000Y-156717000D01*
X334772000Y-156717000D02*
X368046000Y-156717000D01*
X301498000Y-156717000D02*
X334772000Y-156717000D01*
X268097000Y-156717000D02*
X301498000Y-156717000D01*
X234823000Y-156717000D02*
X268097000Y-156717000D01*
X201422000Y-156717000D02*
X234823000Y-156717000D01*
X168998000Y-156717000D02*
X201422000Y-156717000D01*
X168148000Y-156717000D02*
X168998000Y-156717000D01*
X134874000Y-156717000D02*
X135724000Y-156717000D01*
X102323000Y-156717000D02*
X134874000Y-156717000D01*
X101473000Y-156717000D02*
X102323000Y-156717000D01*
X468122000Y-156717000D02*
X460630000Y-156717000D01*
X460630000Y-156717000D02*
X435698000Y-156717000D01*
X468122000Y-156717000D02*
X468363001Y-156717000D01*
X434848000Y-156717000D02*
X436881000Y-156717000D01*
X436881000Y-156717000D02*
X439039000Y-154559000D01*
X135724000Y-156717000D02*
X136524000Y-156717000D01*
X136524000Y-156717000D02*
X136525000Y-156718000D01*
X168147000Y-156718000D02*
X168148000Y-156717000D01*
X166624000Y-156718000D02*
X168147000Y-156718000D01*
X135636000Y-147423000D02*
X135636000Y-145923000D01*
X136074001Y-147861001D02*
X135636000Y-147423000D01*
X136074001Y-151579001D02*
X136074001Y-147861001D01*
X134874000Y-152779002D02*
X136074001Y-151579001D01*
X134874000Y-153417000D02*
X134874000Y-152779002D01*
X168910000Y-147423000D02*
X168910000Y-145923000D01*
X169348001Y-147861001D02*
X168910000Y-147423000D01*
X169348001Y-151579001D02*
X169348001Y-147861001D01*
X168148000Y-152779002D02*
X169348001Y-151579001D01*
X168148000Y-153417000D02*
X168148000Y-152779002D01*
X202184000Y-147423000D02*
X202184000Y-145923000D01*
X202622001Y-147861001D02*
X202184000Y-147423000D01*
X202622001Y-151579001D02*
X202622001Y-147861001D01*
X201422000Y-152779002D02*
X202622001Y-151579001D01*
X201422000Y-153417000D02*
X201422000Y-152779002D01*
X235585000Y-147423000D02*
X235585000Y-145923000D01*
X236023001Y-147861001D02*
X235585000Y-147423000D01*
X236023001Y-151579001D02*
X236023001Y-147861001D01*
X234823000Y-152779002D02*
X236023001Y-151579001D01*
X234823000Y-153417000D02*
X234823000Y-152779002D01*
X268859000Y-147423000D02*
X268859000Y-145923000D01*
X269297001Y-147861001D02*
X268859000Y-147423000D01*
X269297001Y-151516999D02*
X269297001Y-147861001D01*
X268097000Y-152717000D02*
X269297001Y-151516999D01*
X268097000Y-153417000D02*
X268097000Y-152717000D01*
X302260000Y-147423000D02*
X302260000Y-145923000D01*
X302698001Y-147861001D02*
X302260000Y-147423000D01*
X302698001Y-151579001D02*
X302698001Y-147861001D01*
X301498000Y-152779002D02*
X302698001Y-151579001D01*
X301498000Y-153417000D02*
X301498000Y-152779002D01*
X335534000Y-147423000D02*
X335534000Y-145923000D01*
X335972001Y-147861001D02*
X335534000Y-147423000D01*
X335972001Y-151579001D02*
X335972001Y-147861001D01*
X334772000Y-152779002D02*
X335972001Y-151579001D01*
X334772000Y-153417000D02*
X334772000Y-152779002D01*
X368808000Y-147423000D02*
X368808000Y-145923000D01*
X369246001Y-147861001D02*
X368808000Y-147423000D01*
X369246001Y-151516999D02*
X369246001Y-147861001D01*
X368046000Y-152717000D02*
X369246001Y-151516999D01*
X368046000Y-153417000D02*
X368046000Y-152717000D01*
X402209000Y-147423000D02*
X402209000Y-145923000D01*
X402647001Y-147861001D02*
X402209000Y-147423000D01*
X402647001Y-151516999D02*
X402647001Y-147861001D01*
X401447000Y-152717000D02*
X402647001Y-151516999D01*
X401447000Y-153417000D02*
X401447000Y-152717000D01*
X435610000Y-147423000D02*
X435610000Y-145923000D01*
X436048001Y-147861001D02*
X435610000Y-147423000D01*
X436048001Y-151516999D02*
X436048001Y-147861001D01*
X434848000Y-152717000D02*
X436048001Y-151516999D01*
X434848000Y-153417000D02*
X434848000Y-152717000D01*
X468884000Y-147423000D02*
X468884000Y-145923000D01*
X469322001Y-147861001D02*
X468884000Y-147423000D01*
X469322001Y-151516999D02*
X469322001Y-147861001D01*
X468122000Y-152717000D02*
X469322001Y-151516999D01*
X468122000Y-153417000D02*
X468122000Y-152717000D01*
X89308000Y-148463000D02*
X86741000Y-148463000D01*
X89181000Y-129286000D02*
X89308000Y-129413000D01*
X86741000Y-129286000D02*
X89181000Y-129286000D01*
X89308000Y-148463000D02*
X89308000Y-150774002D01*
X101831068Y-163297070D02*
X428844200Y-163297070D01*
X89308000Y-150774002D02*
X101831068Y-163297070D01*
X461049001Y-163917999D02*
X461899000Y-163068000D01*
X457573929Y-167393071D02*
X461049001Y-163917999D01*
X432940201Y-167393071D02*
X457573929Y-167393071D01*
X428844200Y-163297070D02*
X432940201Y-167393071D01*
X122582000Y-129413000D02*
X119888000Y-129413000D01*
X119888000Y-148463000D02*
X122709000Y-148463000D01*
X141169949Y-144097999D02*
X159919010Y-162847060D01*
X125574001Y-144097999D02*
X141169949Y-144097999D01*
X122709000Y-148463000D02*
X122709000Y-146963000D01*
X122709000Y-146963000D02*
X125574001Y-144097999D01*
X159919010Y-162847060D02*
X429030600Y-162847060D01*
X455969001Y-163917999D02*
X456819000Y-163068000D01*
X452943939Y-166943061D02*
X455969001Y-163917999D01*
X433126601Y-166943061D02*
X452943939Y-166943061D01*
X429030600Y-162847060D02*
X433126601Y-166943061D01*
X322607000Y-148463000D02*
X320421000Y-148463000D01*
X320421000Y-148463000D02*
X320294000Y-148590000D01*
X322480000Y-129286000D02*
X322607000Y-129413000D01*
X320167000Y-129286000D02*
X322480000Y-129286000D01*
X453429001Y-163917999D02*
X454279000Y-163068000D01*
X450853949Y-166493051D02*
X453429001Y-163917999D01*
X433313001Y-166493051D02*
X450853949Y-166493051D01*
X160105410Y-162397050D02*
X429217000Y-162397050D01*
X322607000Y-148463000D02*
X321082000Y-148463000D01*
X429217000Y-162397050D02*
X433313001Y-166493051D01*
X321082000Y-148463000D02*
X314916963Y-142297963D01*
X314916963Y-142297963D02*
X154495397Y-142297964D01*
X154495397Y-142297964D02*
X150890962Y-145902403D01*
X150890962Y-145902403D02*
X150890963Y-153182603D01*
X150890963Y-153182603D02*
X160105410Y-162397050D01*
X289333000Y-129413000D02*
X286639000Y-129413000D01*
X286639000Y-129413000D02*
X286512000Y-129286000D01*
X289079000Y-148717000D02*
X289333000Y-148463000D01*
X286512000Y-148717000D02*
X289079000Y-148717000D01*
X448763959Y-166043041D02*
X450889001Y-163917999D01*
X433499401Y-166043041D02*
X448763959Y-166043041D01*
X429403400Y-161947040D02*
X433499401Y-166043041D01*
X289333000Y-148463000D02*
X287808000Y-148463000D01*
X450889001Y-163917999D02*
X451739000Y-163068000D01*
X287808000Y-148463000D02*
X282092971Y-142747971D01*
X282092971Y-142747971D02*
X154681798Y-142747972D01*
X154681798Y-142747972D02*
X151340971Y-146088803D01*
X160291810Y-161947040D02*
X429403400Y-161947040D01*
X151340971Y-146088803D02*
X151340972Y-152996202D01*
X151340972Y-152996202D02*
X160291810Y-161947040D01*
X255932000Y-148463000D02*
X253492000Y-148463000D01*
X255805000Y-129286000D02*
X255932000Y-129413000D01*
X253492000Y-129286000D02*
X255805000Y-129286000D01*
X448349001Y-163917999D02*
X449199000Y-163068000D01*
X433685801Y-165593031D02*
X446673969Y-165593031D01*
X429589800Y-161497030D02*
X433685801Y-165593031D01*
X160478210Y-161497030D02*
X429589800Y-161497030D01*
X254407000Y-148463000D02*
X249141981Y-143197981D01*
X446673969Y-165593031D02*
X448349001Y-163917999D01*
X249141981Y-143197981D02*
X154868199Y-143197981D01*
X151790980Y-146275202D02*
X151790981Y-152809801D01*
X255932000Y-148463000D02*
X254407000Y-148463000D01*
X154868199Y-143197981D02*
X151790980Y-146275202D01*
X151790981Y-152809801D02*
X160478210Y-161497030D01*
X222658000Y-129413000D02*
X219710000Y-129413000D01*
X222531000Y-148590000D02*
X222658000Y-148463000D01*
X219583000Y-148590000D02*
X222531000Y-148590000D01*
X160664610Y-161047020D02*
X427355000Y-161047020D01*
X222658000Y-148463000D02*
X221133000Y-148463000D01*
X216317989Y-143647989D02*
X155054600Y-143647990D01*
X221133000Y-148463000D02*
X216317989Y-143647989D01*
X155054600Y-143647990D02*
X152240989Y-146461601D01*
X152240989Y-146461601D02*
X152240990Y-152623400D01*
X152240990Y-152623400D02*
X160664610Y-161047020D01*
X427355000Y-161047020D02*
X427228000Y-161047020D01*
X445809001Y-163917999D02*
X446659000Y-163068000D01*
X444583979Y-165143021D02*
X445809001Y-163917999D01*
X433872201Y-165143021D02*
X444583979Y-165143021D01*
X429776200Y-161047020D02*
X433872201Y-165143021D01*
X427355000Y-161047020D02*
X429776200Y-161047020D01*
X189257000Y-129413000D02*
X186182000Y-129413000D01*
X189130000Y-148590000D02*
X189257000Y-148463000D01*
X186182000Y-148590000D02*
X189130000Y-148590000D01*
X442493989Y-164693011D02*
X443269001Y-163917999D01*
X443269001Y-163917999D02*
X444119000Y-163068000D01*
X434058601Y-164693011D02*
X442493989Y-164693011D01*
X429962600Y-160597010D02*
X434058601Y-164693011D01*
X189257000Y-148463000D02*
X187732000Y-148463000D01*
X187732000Y-148463000D02*
X183366999Y-144097999D01*
X160851010Y-160597010D02*
X429962600Y-160597010D01*
X155241001Y-144097999D02*
X152690999Y-146648001D01*
X183366999Y-144097999D02*
X155241001Y-144097999D01*
X152690999Y-146648001D02*
X152690999Y-152436999D01*
X152690999Y-152436999D02*
X160851010Y-160597010D01*
X155983000Y-148463000D02*
X153416000Y-148463000D01*
X153416000Y-129413000D02*
X155983000Y-129413000D01*
X440729001Y-163917999D02*
X441579000Y-163068000D01*
X155983000Y-148463000D02*
X155983000Y-150774002D01*
X155983000Y-150774002D02*
X165355998Y-160147000D01*
X430149000Y-160147000D02*
X434245001Y-164243001D01*
X434245001Y-164243001D02*
X440403999Y-164243001D01*
X165355998Y-160147000D02*
X430149000Y-160147000D01*
X440403999Y-164243001D02*
X440729001Y-163917999D01*
X69216000Y-164078000D02*
X69216000Y-162928000D01*
X70841010Y-165703010D02*
X69216000Y-164078000D01*
X70841010Y-167994484D02*
X70841010Y-165703010D01*
X76455526Y-173609000D02*
X70841010Y-167994484D01*
X428498000Y-173609000D02*
X76455526Y-173609000D01*
D18*
X76958999Y-172818499D02*
X71653500Y-167513000D01*
X453984443Y-172818499D02*
X76958999Y-172818499D01*
X463139501Y-163663441D02*
X453984443Y-172818499D01*
X463139501Y-160566420D02*
X463139501Y-163663441D01*
X461899000Y-160528000D02*
X463101081Y-160528000D01*
X463101081Y-160528000D02*
X463139501Y-160566420D01*
X71653500Y-163790500D02*
X72516000Y-162928000D01*
X71653500Y-167513000D02*
X71653500Y-163790500D01*
X72115112Y-138891612D02*
X71653500Y-138430000D01*
X73606501Y-140383001D02*
X72115112Y-138891612D01*
X73606501Y-162918499D02*
X73606501Y-140383001D01*
X73597000Y-162928000D02*
X73606501Y-162918499D01*
X72516000Y-162928000D02*
X73597000Y-162928000D01*
X487427000Y-128210000D02*
X487427000Y-128410000D01*
X487300000Y-155040500D02*
X488416500Y-153924000D01*
X487300000Y-159906000D02*
X487300000Y-155040500D01*
X487954888Y-153462388D02*
X488416500Y-153924000D01*
X484759000Y-150266500D02*
X487954888Y-153462388D01*
X484759000Y-129997000D02*
X484759000Y-150266500D01*
X487427000Y-128410000D02*
X486346000Y-128410000D01*
X486346000Y-128410000D02*
X484759000Y-129997000D01*
X488416500Y-127420500D02*
X487427000Y-128410000D01*
X488416500Y-124587000D02*
X488416500Y-127420500D01*
X71653500Y-132294500D02*
X72262000Y-131686000D01*
X71653500Y-138430000D02*
X71653500Y-132294500D01*
X487577030Y-123747530D02*
X488416500Y-124587000D01*
X78919470Y-123747530D02*
X487577030Y-123747530D01*
X72262000Y-131686000D02*
X72262000Y-130405000D01*
X72262000Y-130405000D02*
X78919470Y-123747530D01*
D17*
X356008000Y-129413000D02*
X353314000Y-129413000D01*
X355754000Y-148590000D02*
X355881000Y-148463000D01*
X353314000Y-148590000D02*
X355754000Y-148590000D01*
X356008000Y-129413000D02*
X356033000Y-129413000D01*
X450769970Y-158957030D02*
X449199000Y-160528000D01*
X356008000Y-129413000D02*
X356008000Y-127913000D01*
X469426202Y-158957030D02*
X450769970Y-158957030D01*
X356008000Y-127913000D02*
X359657960Y-124263040D01*
X359657960Y-124263040D02*
X470020452Y-124263040D01*
X470020452Y-124263040D02*
X471834028Y-126076616D01*
X471834028Y-126076616D02*
X471834028Y-156549204D01*
X471834028Y-156549204D02*
X469426202Y-158957030D01*
X389282000Y-129413000D02*
X386334000Y-129413000D01*
X389155000Y-148590000D02*
X389282000Y-148463000D01*
X386334000Y-148590000D02*
X389155000Y-148590000D01*
X448679980Y-158507020D02*
X446659000Y-160528000D01*
X469239802Y-158507020D02*
X448679980Y-158507020D01*
X471384019Y-156362803D02*
X469239802Y-158507020D01*
X389282000Y-127913000D02*
X392481000Y-124714000D01*
X389282000Y-129413000D02*
X389282000Y-127913000D01*
X471384019Y-126263017D02*
X471384019Y-156362803D01*
X469835002Y-124714000D02*
X471384019Y-126263017D01*
X392481000Y-124714000D02*
X469835002Y-124714000D01*
X422683000Y-129413000D02*
X418592000Y-129413000D01*
X418592000Y-148463000D02*
X422683000Y-148463000D01*
X465810911Y-135101501D02*
X465810910Y-130653526D01*
X446589990Y-158057010D02*
X469053402Y-158057010D01*
X444119000Y-160528000D02*
X446589990Y-158057010D01*
X467151399Y-136441989D02*
X465810911Y-135101501D01*
X469053402Y-158057010D02*
X470934011Y-156176401D01*
X470934011Y-156176401D02*
X470934010Y-138207598D01*
X470934010Y-138207598D02*
X469168401Y-136441989D01*
X469168401Y-136441989D02*
X467151399Y-136441989D01*
X462295373Y-127137989D02*
X465810910Y-130653526D01*
X454465009Y-127137989D02*
X462295373Y-127137989D01*
X446460997Y-135142001D02*
X454465009Y-127137989D01*
X426100999Y-135142001D02*
X446460997Y-135142001D01*
X422683000Y-131724002D02*
X426100999Y-135142001D01*
X422683000Y-129413000D02*
X422683000Y-131724002D01*
X455957000Y-148463000D02*
X453009000Y-148463000D01*
X455703000Y-129667000D02*
X455957000Y-129413000D01*
X453009000Y-129667000D02*
X455703000Y-129667000D01*
X455982000Y-129413000D02*
X455957000Y-129413000D01*
X457807001Y-127587999D02*
X455982000Y-129413000D01*
X462108973Y-127587999D02*
X457807001Y-127587999D01*
X465360901Y-130839927D02*
X462108973Y-127587999D01*
X465360901Y-135287901D02*
X465360901Y-130839927D01*
X441579000Y-160528000D02*
X444500000Y-157607000D01*
X468867002Y-157607000D02*
X470484001Y-155990001D01*
X466964999Y-136891999D02*
X465360901Y-135287901D01*
X470484001Y-155990001D02*
X470484001Y-138393999D01*
X470484001Y-138393999D02*
X468982001Y-136891999D01*
X444500000Y-157607000D02*
X468867002Y-157607000D01*
X468982001Y-136891999D02*
X466964999Y-136891999D01*
D18*
X70104000Y-167538500D02*
X70078500Y-167513000D01*
X70104000Y-169672000D02*
X70104000Y-167538500D01*
X69216000Y-159409000D02*
X69216000Y-158128000D01*
X68125499Y-160499501D02*
X69216000Y-159409000D01*
X68125499Y-165559999D02*
X68125499Y-160499501D01*
X70078500Y-167513000D02*
X68125499Y-165559999D01*
X69216000Y-139292500D02*
X70078500Y-138430000D01*
X69216000Y-158128000D02*
X69216000Y-139292500D01*
X68962000Y-128167000D02*
X68962000Y-126886000D01*
X67871499Y-129257501D02*
X68962000Y-128167000D01*
X67871499Y-135647999D02*
X67871499Y-129257501D01*
X70078500Y-137855000D02*
X67871499Y-135647999D01*
X70078500Y-138430000D02*
X70078500Y-137855000D01*
X490600000Y-163425000D02*
X490600000Y-164706000D01*
X491690501Y-162334499D02*
X490600000Y-163425000D01*
X491690501Y-155085501D02*
X491690501Y-162334499D01*
X490529000Y-153924000D02*
X491690501Y-155085501D01*
X489991500Y-153924000D02*
X490529000Y-153924000D01*
X490727000Y-153188500D02*
X489991500Y-153924000D01*
X490727000Y-133210000D02*
X490727000Y-153188500D01*
X490727000Y-131929000D02*
X490727000Y-133210000D01*
X491817501Y-130838499D02*
X490727000Y-131929000D01*
X491817501Y-126413001D02*
X491817501Y-130838499D01*
X489991500Y-124587000D02*
X491817501Y-126413001D01*
X68962000Y-125605000D02*
X68962000Y-126886000D01*
X71850490Y-122716510D02*
X68962000Y-125605000D01*
X488519045Y-122716510D02*
X71850490Y-122716510D01*
X489991500Y-124188965D02*
X488519045Y-122716510D01*
X489991500Y-124587000D02*
X489991500Y-124188965D01*
D17*
X68962000Y-132836000D02*
X68962000Y-131686000D01*
X70841010Y-134715010D02*
X68962000Y-132836000D01*
X70841010Y-155303010D02*
X70841010Y-134715010D01*
X72516000Y-156978000D02*
X70841010Y-155303010D01*
X72516000Y-158128000D02*
X72516000Y-156978000D01*
X73212000Y-126886000D02*
X76865980Y-123232020D01*
X72262000Y-126886000D02*
X73212000Y-126886000D01*
X490727000Y-127260000D02*
X490727000Y-128410000D01*
X489228990Y-125761990D02*
X490727000Y-127260000D01*
X489228990Y-124155496D02*
X489228990Y-125761990D01*
X488305514Y-123232020D02*
X489228990Y-124155496D01*
X76865980Y-123232020D02*
X488305514Y-123232020D01*
X487427000Y-134360000D02*
X487427000Y-133210000D01*
X489179010Y-136112010D02*
X487427000Y-134360000D01*
X489179010Y-157335010D02*
X489179010Y-136112010D01*
X490600000Y-158756000D02*
X489179010Y-157335010D01*
X490600000Y-159906000D02*
X490600000Y-158756000D01*
M02*
