G04 #@! TF.GenerationSoftware,KiCad,Pcbnew,(5.1.4)-1*
G04 #@! TF.CreationDate,2022-01-03T17:19:45-05:00*
G04 #@! TF.ProjectId,DOMAIN-1_Upper-Board,444f4d41-494e-42d3-915f-55707065722d,rev?*
G04 #@! TF.SameCoordinates,Original*
G04 #@! TF.FileFunction,Legend,Bot*
G04 #@! TF.FilePolarity,Positive*
%FSLAX46Y46*%
G04 Gerber Fmt 4.6, Leading zero omitted, Abs format (unit mm)*
G04 Created by KiCad (PCBNEW (5.1.4)-1) date 2022-01-03 17:19:45*
%MOMM*%
%LPD*%
G04 APERTURE LIST*
%ADD10C,0.150000*%
%ADD11C,0.700000*%
%ADD12C,0.120000*%
%ADD13C,0.200000*%
G04 APERTURE END LIST*
D10*
X427868666Y-170124380D02*
X427868666Y-169124380D01*
X427630571Y-169124380D01*
X427487714Y-169172000D01*
X427392476Y-169267238D01*
X427344857Y-169362476D01*
X427297238Y-169552952D01*
X427297238Y-169695809D01*
X427344857Y-169886285D01*
X427392476Y-169981523D01*
X427487714Y-170076761D01*
X427630571Y-170124380D01*
X427868666Y-170124380D01*
X426678190Y-169124380D02*
X426487714Y-169124380D01*
X426392476Y-169172000D01*
X426297238Y-169267238D01*
X426249619Y-169457714D01*
X426249619Y-169791047D01*
X426297238Y-169981523D01*
X426392476Y-170076761D01*
X426487714Y-170124380D01*
X426678190Y-170124380D01*
X426773428Y-170076761D01*
X426868666Y-169981523D01*
X426916285Y-169791047D01*
X426916285Y-169457714D01*
X426868666Y-169267238D01*
X426773428Y-169172000D01*
X426678190Y-169124380D01*
X425821047Y-170124380D02*
X425821047Y-169124380D01*
X425487714Y-169838666D01*
X425154380Y-169124380D01*
X425154380Y-170124380D01*
X424725809Y-169838666D02*
X424249619Y-169838666D01*
X424821047Y-170124380D02*
X424487714Y-169124380D01*
X424154380Y-170124380D01*
X423821047Y-170124380D02*
X423821047Y-169124380D01*
X423344857Y-170124380D02*
X423344857Y-169124380D01*
X422773428Y-170124380D01*
X422773428Y-169124380D01*
X422297238Y-169743428D02*
X421535333Y-169743428D01*
X420535333Y-170124380D02*
X421106761Y-170124380D01*
X420821047Y-170124380D02*
X420821047Y-169124380D01*
X420916285Y-169267238D01*
X421011523Y-169362476D01*
X421106761Y-169410095D01*
X419344857Y-169124380D02*
X419344857Y-169933904D01*
X419297238Y-170029142D01*
X419249619Y-170076761D01*
X419154380Y-170124380D01*
X418963904Y-170124380D01*
X418868666Y-170076761D01*
X418821047Y-170029142D01*
X418773428Y-169933904D01*
X418773428Y-169124380D01*
X418297238Y-169457714D02*
X418297238Y-170457714D01*
X418297238Y-169505333D02*
X418202000Y-169457714D01*
X418011523Y-169457714D01*
X417916285Y-169505333D01*
X417868666Y-169552952D01*
X417821047Y-169648190D01*
X417821047Y-169933904D01*
X417868666Y-170029142D01*
X417916285Y-170076761D01*
X418011523Y-170124380D01*
X418202000Y-170124380D01*
X418297238Y-170076761D01*
X417392476Y-169457714D02*
X417392476Y-170457714D01*
X417392476Y-169505333D02*
X417297238Y-169457714D01*
X417106761Y-169457714D01*
X417011523Y-169505333D01*
X416963904Y-169552952D01*
X416916285Y-169648190D01*
X416916285Y-169933904D01*
X416963904Y-170029142D01*
X417011523Y-170076761D01*
X417106761Y-170124380D01*
X417297238Y-170124380D01*
X417392476Y-170076761D01*
X416106761Y-170076761D02*
X416202000Y-170124380D01*
X416392476Y-170124380D01*
X416487714Y-170076761D01*
X416535333Y-169981523D01*
X416535333Y-169600571D01*
X416487714Y-169505333D01*
X416392476Y-169457714D01*
X416202000Y-169457714D01*
X416106761Y-169505333D01*
X416059142Y-169600571D01*
X416059142Y-169695809D01*
X416535333Y-169791047D01*
X415630571Y-170124380D02*
X415630571Y-169457714D01*
X415630571Y-169648190D02*
X415582952Y-169552952D01*
X415535333Y-169505333D01*
X415440095Y-169457714D01*
X415344857Y-169457714D01*
X413916285Y-169600571D02*
X413773428Y-169648190D01*
X413725809Y-169695809D01*
X413678190Y-169791047D01*
X413678190Y-169933904D01*
X413725809Y-170029142D01*
X413773428Y-170076761D01*
X413868666Y-170124380D01*
X414249619Y-170124380D01*
X414249619Y-169124380D01*
X413916285Y-169124380D01*
X413821047Y-169172000D01*
X413773428Y-169219619D01*
X413725809Y-169314857D01*
X413725809Y-169410095D01*
X413773428Y-169505333D01*
X413821047Y-169552952D01*
X413916285Y-169600571D01*
X414249619Y-169600571D01*
X413106761Y-170124380D02*
X413202000Y-170076761D01*
X413249619Y-170029142D01*
X413297238Y-169933904D01*
X413297238Y-169648190D01*
X413249619Y-169552952D01*
X413202000Y-169505333D01*
X413106761Y-169457714D01*
X412963904Y-169457714D01*
X412868666Y-169505333D01*
X412821047Y-169552952D01*
X412773428Y-169648190D01*
X412773428Y-169933904D01*
X412821047Y-170029142D01*
X412868666Y-170076761D01*
X412963904Y-170124380D01*
X413106761Y-170124380D01*
X411916285Y-170124380D02*
X411916285Y-169600571D01*
X411963904Y-169505333D01*
X412059142Y-169457714D01*
X412249619Y-169457714D01*
X412344857Y-169505333D01*
X411916285Y-170076761D02*
X412011523Y-170124380D01*
X412249619Y-170124380D01*
X412344857Y-170076761D01*
X412392476Y-169981523D01*
X412392476Y-169886285D01*
X412344857Y-169791047D01*
X412249619Y-169743428D01*
X412011523Y-169743428D01*
X411916285Y-169695809D01*
X411440095Y-170124380D02*
X411440095Y-169457714D01*
X411440095Y-169648190D02*
X411392476Y-169552952D01*
X411344857Y-169505333D01*
X411249619Y-169457714D01*
X411154380Y-169457714D01*
X410392476Y-170124380D02*
X410392476Y-169124380D01*
X410392476Y-170076761D02*
X410487714Y-170124380D01*
X410678190Y-170124380D01*
X410773428Y-170076761D01*
X410821047Y-170029142D01*
X410868666Y-169933904D01*
X410868666Y-169648190D01*
X410821047Y-169552952D01*
X410773428Y-169505333D01*
X410678190Y-169457714D01*
X410487714Y-169457714D01*
X410392476Y-169505333D01*
X409154380Y-170124380D02*
X409154380Y-169124380D01*
X408773428Y-169124380D01*
X408678190Y-169172000D01*
X408630571Y-169219619D01*
X408582952Y-169314857D01*
X408582952Y-169457714D01*
X408630571Y-169552952D01*
X408678190Y-169600571D01*
X408773428Y-169648190D01*
X409154380Y-169648190D01*
X407582952Y-170029142D02*
X407630571Y-170076761D01*
X407773428Y-170124380D01*
X407868666Y-170124380D01*
X408011523Y-170076761D01*
X408106761Y-169981523D01*
X408154380Y-169886285D01*
X408202000Y-169695809D01*
X408202000Y-169552952D01*
X408154380Y-169362476D01*
X408106761Y-169267238D01*
X408011523Y-169172000D01*
X407868666Y-169124380D01*
X407773428Y-169124380D01*
X407630571Y-169172000D01*
X407582952Y-169219619D01*
X406821047Y-169600571D02*
X406678190Y-169648190D01*
X406630571Y-169695809D01*
X406582952Y-169791047D01*
X406582952Y-169933904D01*
X406630571Y-170029142D01*
X406678190Y-170076761D01*
X406773428Y-170124380D01*
X407154380Y-170124380D01*
X407154380Y-169124380D01*
X406821047Y-169124380D01*
X406725809Y-169172000D01*
X406678190Y-169219619D01*
X406630571Y-169314857D01*
X406630571Y-169410095D01*
X406678190Y-169505333D01*
X406725809Y-169552952D01*
X406821047Y-169600571D01*
X407154380Y-169600571D01*
X404821047Y-170124380D02*
X405154380Y-169648190D01*
X405392476Y-170124380D02*
X405392476Y-169124380D01*
X405011523Y-169124380D01*
X404916285Y-169172000D01*
X404868666Y-169219619D01*
X404821047Y-169314857D01*
X404821047Y-169457714D01*
X404868666Y-169552952D01*
X404916285Y-169600571D01*
X405011523Y-169648190D01*
X405392476Y-169648190D01*
X404011523Y-170076761D02*
X404106761Y-170124380D01*
X404297238Y-170124380D01*
X404392476Y-170076761D01*
X404440095Y-169981523D01*
X404440095Y-169600571D01*
X404392476Y-169505333D01*
X404297238Y-169457714D01*
X404106761Y-169457714D01*
X404011523Y-169505333D01*
X403963904Y-169600571D01*
X403963904Y-169695809D01*
X404440095Y-169791047D01*
X403630571Y-169457714D02*
X403392476Y-170124380D01*
X403154380Y-169457714D01*
X401487714Y-170124380D02*
X402059142Y-170124380D01*
X401773428Y-170124380D02*
X401773428Y-169124380D01*
X401868666Y-169267238D01*
X401963904Y-169362476D01*
X402059142Y-169410095D01*
X401059142Y-170029142D02*
X401011523Y-170076761D01*
X401059142Y-170124380D01*
X401106761Y-170076761D01*
X401059142Y-170029142D01*
X401059142Y-170124380D01*
X400392476Y-169124380D02*
X400297238Y-169124380D01*
X400202000Y-169172000D01*
X400154380Y-169219619D01*
X400106761Y-169314857D01*
X400059142Y-169505333D01*
X400059142Y-169743428D01*
X400106761Y-169933904D01*
X400154380Y-170029142D01*
X400202000Y-170076761D01*
X400297238Y-170124380D01*
X400392476Y-170124380D01*
X400487714Y-170076761D01*
X400535333Y-170029142D01*
X400582952Y-169933904D01*
X400630571Y-169743428D01*
X400630571Y-169505333D01*
X400582952Y-169314857D01*
X400535333Y-169219619D01*
X400487714Y-169172000D01*
X400392476Y-169124380D01*
X398963904Y-169124380D02*
X398344857Y-169124380D01*
X398678190Y-169505333D01*
X398535333Y-169505333D01*
X398440095Y-169552952D01*
X398392476Y-169600571D01*
X398344857Y-169695809D01*
X398344857Y-169933904D01*
X398392476Y-170029142D01*
X398440095Y-170076761D01*
X398535333Y-170124380D01*
X398821047Y-170124380D01*
X398916285Y-170076761D01*
X398963904Y-170029142D01*
X397202000Y-169076761D02*
X398059142Y-170362476D01*
X396344857Y-170124380D02*
X396916285Y-170124380D01*
X396630571Y-170124380D02*
X396630571Y-169124380D01*
X396725809Y-169267238D01*
X396821047Y-169362476D01*
X396916285Y-169410095D01*
X395202000Y-169076761D02*
X396059142Y-170362476D01*
X394916285Y-169219619D02*
X394868666Y-169172000D01*
X394773428Y-169124380D01*
X394535333Y-169124380D01*
X394440095Y-169172000D01*
X394392476Y-169219619D01*
X394344857Y-169314857D01*
X394344857Y-169410095D01*
X394392476Y-169552952D01*
X394963904Y-170124380D01*
X394344857Y-170124380D01*
X393725809Y-169124380D02*
X393630571Y-169124380D01*
X393535333Y-169172000D01*
X393487714Y-169219619D01*
X393440095Y-169314857D01*
X393392476Y-169505333D01*
X393392476Y-169743428D01*
X393440095Y-169933904D01*
X393487714Y-170029142D01*
X393535333Y-170076761D01*
X393630571Y-170124380D01*
X393725809Y-170124380D01*
X393821047Y-170076761D01*
X393868666Y-170029142D01*
X393916285Y-169933904D01*
X393963904Y-169743428D01*
X393963904Y-169505333D01*
X393916285Y-169314857D01*
X393868666Y-169219619D01*
X393821047Y-169172000D01*
X393725809Y-169124380D01*
X393011523Y-169219619D02*
X392963904Y-169172000D01*
X392868666Y-169124380D01*
X392630571Y-169124380D01*
X392535333Y-169172000D01*
X392487714Y-169219619D01*
X392440095Y-169314857D01*
X392440095Y-169410095D01*
X392487714Y-169552952D01*
X393059142Y-170124380D01*
X392440095Y-170124380D01*
X392059142Y-169219619D02*
X392011523Y-169172000D01*
X391916285Y-169124380D01*
X391678190Y-169124380D01*
X391582952Y-169172000D01*
X391535333Y-169219619D01*
X391487714Y-169314857D01*
X391487714Y-169410095D01*
X391535333Y-169552952D01*
X392106761Y-170124380D01*
X391487714Y-170124380D01*
D11*
X155802000Y-169917666D02*
X155802000Y-162917666D01*
X154135333Y-162917666D01*
X153135333Y-163251000D01*
X152468666Y-163917666D01*
X152135333Y-164584333D01*
X151802000Y-165917666D01*
X151802000Y-166917666D01*
X152135333Y-168251000D01*
X152468666Y-168917666D01*
X153135333Y-169584333D01*
X154135333Y-169917666D01*
X155802000Y-169917666D01*
X147468666Y-162917666D02*
X146135333Y-162917666D01*
X145468666Y-163251000D01*
X144802000Y-163917666D01*
X144468666Y-165251000D01*
X144468666Y-167584333D01*
X144802000Y-168917666D01*
X145468666Y-169584333D01*
X146135333Y-169917666D01*
X147468666Y-169917666D01*
X148135333Y-169584333D01*
X148802000Y-168917666D01*
X149135333Y-167584333D01*
X149135333Y-165251000D01*
X148802000Y-163917666D01*
X148135333Y-163251000D01*
X147468666Y-162917666D01*
X141468666Y-169917666D02*
X141468666Y-162917666D01*
X139135333Y-167917666D01*
X136802000Y-162917666D01*
X136802000Y-169917666D01*
X133802000Y-167917666D02*
X130468666Y-167917666D01*
X134468666Y-169917666D02*
X132135333Y-162917666D01*
X129802000Y-169917666D01*
X127468666Y-169917666D02*
X127468666Y-162917666D01*
X124135333Y-169917666D02*
X124135333Y-162917666D01*
X120135333Y-169917666D01*
X120135333Y-162917666D01*
X116802000Y-167251000D02*
X111468666Y-167251000D01*
X104468666Y-169917666D02*
X108468666Y-169917666D01*
X106468666Y-169917666D02*
X106468666Y-162917666D01*
X107135333Y-163917666D01*
X107802000Y-164584333D01*
X108468666Y-164917666D01*
D12*
X489366779Y-125097000D02*
X489041221Y-125097000D01*
X489366779Y-124077000D02*
X489041221Y-124077000D01*
X489366779Y-154434000D02*
X489041221Y-154434000D01*
X489366779Y-153414000D02*
X489041221Y-153414000D01*
X70703221Y-137920000D02*
X71028779Y-137920000D01*
X70703221Y-138940000D02*
X71028779Y-138940000D01*
X70703221Y-167003000D02*
X71028779Y-167003000D01*
X70703221Y-168023000D02*
X71028779Y-168023000D01*
D13*
X488450000Y-164806000D02*
X489450000Y-164806000D01*
X491450000Y-163306000D02*
X491450000Y-161306000D01*
X488450000Y-159806000D02*
X489450000Y-159806000D01*
X486450000Y-163306000D02*
X486450000Y-161306000D01*
X487950000Y-161806000D02*
X487950000Y-163306000D01*
X488450000Y-161306000D02*
X487950000Y-161806000D01*
X489950000Y-161306000D02*
X488450000Y-161306000D01*
X489950000Y-163306000D02*
X489950000Y-161306000D01*
X487950000Y-163306000D02*
X489950000Y-163306000D01*
X71112000Y-126786000D02*
X70112000Y-126786000D01*
X68112000Y-128286000D02*
X68112000Y-130286000D01*
X71112000Y-131786000D02*
X70112000Y-131786000D01*
X73112000Y-128286000D02*
X73112000Y-130286000D01*
X71612000Y-129786000D02*
X71612000Y-128286000D01*
X71112000Y-130286000D02*
X71612000Y-129786000D01*
X69612000Y-130286000D02*
X71112000Y-130286000D01*
X69612000Y-128286000D02*
X69612000Y-130286000D01*
X71612000Y-128286000D02*
X69612000Y-128286000D01*
X488577000Y-133310000D02*
X489577000Y-133310000D01*
X491577000Y-131810000D02*
X491577000Y-129810000D01*
X488577000Y-128310000D02*
X489577000Y-128310000D01*
X486577000Y-131810000D02*
X486577000Y-129810000D01*
X488077000Y-130310000D02*
X488077000Y-131810000D01*
X488577000Y-129810000D02*
X488077000Y-130310000D01*
X490077000Y-129810000D02*
X488577000Y-129810000D01*
X490077000Y-131810000D02*
X490077000Y-129810000D01*
X488077000Y-131810000D02*
X490077000Y-131810000D01*
X71366000Y-158028000D02*
X70366000Y-158028000D01*
X68366000Y-159528000D02*
X68366000Y-161528000D01*
X71366000Y-163028000D02*
X70366000Y-163028000D01*
X73366000Y-159528000D02*
X73366000Y-161528000D01*
X71866000Y-161028000D02*
X71866000Y-159528000D01*
X71366000Y-161528000D02*
X71866000Y-161028000D01*
X69866000Y-161528000D02*
X71366000Y-161528000D01*
X69866000Y-159528000D02*
X69866000Y-161528000D01*
X71866000Y-159528000D02*
X69866000Y-159528000D01*
D12*
X439539000Y-158178000D02*
X439039000Y-159178000D01*
X438539000Y-158178000D02*
X439539000Y-158178000D01*
X439039000Y-159178000D02*
X438539000Y-158178000D01*
X467109000Y-164798000D02*
X433829000Y-164798000D01*
X467109000Y-173918000D02*
X467109000Y-164798000D01*
X433829000Y-173918000D02*
X467109000Y-173918000D01*
X433829000Y-164798000D02*
X433829000Y-173918000D01*
X452519000Y-164798000D02*
X452519000Y-173918000D01*
X448419000Y-164798000D02*
X448419000Y-173918000D01*
X469122000Y-157317000D02*
X469122000Y-153417000D01*
X467122000Y-157317000D02*
X467122000Y-153417000D01*
X469122000Y-157317000D02*
X467122000Y-157317000D01*
X435848000Y-157317000D02*
X435848000Y-153417000D01*
X433848000Y-157317000D02*
X433848000Y-153417000D01*
X435848000Y-157317000D02*
X433848000Y-157317000D01*
X402447000Y-157317000D02*
X402447000Y-153417000D01*
X400447000Y-157317000D02*
X400447000Y-153417000D01*
X402447000Y-157317000D02*
X400447000Y-157317000D01*
X369046000Y-157317000D02*
X369046000Y-153417000D01*
X367046000Y-157317000D02*
X367046000Y-153417000D01*
X369046000Y-157317000D02*
X367046000Y-157317000D01*
X335772000Y-157317000D02*
X335772000Y-153417000D01*
X333772000Y-157317000D02*
X333772000Y-153417000D01*
X335772000Y-157317000D02*
X333772000Y-157317000D01*
X302498000Y-157317000D02*
X302498000Y-153417000D01*
X300498000Y-157317000D02*
X300498000Y-153417000D01*
X302498000Y-157317000D02*
X300498000Y-157317000D01*
X269097000Y-157317000D02*
X269097000Y-153417000D01*
X267097000Y-157317000D02*
X267097000Y-153417000D01*
X269097000Y-157317000D02*
X267097000Y-157317000D01*
X235823000Y-157317000D02*
X235823000Y-153417000D01*
X233823000Y-157317000D02*
X233823000Y-153417000D01*
X235823000Y-157317000D02*
X233823000Y-157317000D01*
X202422000Y-157317000D02*
X202422000Y-153417000D01*
X200422000Y-157317000D02*
X200422000Y-153417000D01*
X202422000Y-157317000D02*
X200422000Y-157317000D01*
X169148000Y-157317000D02*
X169148000Y-153417000D01*
X167148000Y-157317000D02*
X167148000Y-153417000D01*
X169148000Y-157317000D02*
X167148000Y-157317000D01*
X135874000Y-157317000D02*
X135874000Y-153417000D01*
X133874000Y-157317000D02*
X133874000Y-153417000D01*
X135874000Y-157317000D02*
X133874000Y-157317000D01*
X102473000Y-157317000D02*
X102473000Y-153417000D01*
X100473000Y-157317000D02*
X100473000Y-153417000D01*
X102473000Y-157317000D02*
X100473000Y-157317000D01*
X469122000Y-138267000D02*
X469122000Y-134367000D01*
X467122000Y-138267000D02*
X467122000Y-134367000D01*
X469122000Y-138267000D02*
X467122000Y-138267000D01*
X435848000Y-138267000D02*
X435848000Y-134367000D01*
X433848000Y-138267000D02*
X433848000Y-134367000D01*
X435848000Y-138267000D02*
X433848000Y-138267000D01*
X402447000Y-138267000D02*
X402447000Y-134367000D01*
X400447000Y-138267000D02*
X400447000Y-134367000D01*
X402447000Y-138267000D02*
X400447000Y-138267000D01*
X369173000Y-138267000D02*
X369173000Y-134367000D01*
X367173000Y-138267000D02*
X367173000Y-134367000D01*
X369173000Y-138267000D02*
X367173000Y-138267000D01*
X335772000Y-138267000D02*
X335772000Y-134367000D01*
X333772000Y-138267000D02*
X333772000Y-134367000D01*
X335772000Y-138267000D02*
X333772000Y-138267000D01*
X302498000Y-138267000D02*
X302498000Y-134367000D01*
X300498000Y-138267000D02*
X300498000Y-134367000D01*
X302498000Y-138267000D02*
X300498000Y-138267000D01*
X269097000Y-138267000D02*
X269097000Y-134367000D01*
X267097000Y-138267000D02*
X267097000Y-134367000D01*
X269097000Y-138267000D02*
X267097000Y-138267000D01*
X235823000Y-138267000D02*
X235823000Y-134367000D01*
X233823000Y-138267000D02*
X233823000Y-134367000D01*
X235823000Y-138267000D02*
X233823000Y-138267000D01*
X202422000Y-138267000D02*
X202422000Y-134367000D01*
X200422000Y-138267000D02*
X200422000Y-134367000D01*
X202422000Y-138267000D02*
X200422000Y-138267000D01*
X169148000Y-138267000D02*
X169148000Y-134367000D01*
X167148000Y-138267000D02*
X167148000Y-134367000D01*
X169148000Y-138267000D02*
X167148000Y-138267000D01*
X135747000Y-138267000D02*
X135747000Y-134367000D01*
X133747000Y-138267000D02*
X133747000Y-134367000D01*
X135747000Y-138267000D02*
X133747000Y-138267000D01*
X102473000Y-138267000D02*
X102473000Y-134367000D01*
X100473000Y-138267000D02*
X100473000Y-134367000D01*
X102473000Y-138267000D02*
X100473000Y-138267000D01*
D10*
X489370666Y-123514142D02*
X489418285Y-123561761D01*
X489561142Y-123609380D01*
X489656380Y-123609380D01*
X489799238Y-123561761D01*
X489894476Y-123466523D01*
X489942095Y-123371285D01*
X489989714Y-123180809D01*
X489989714Y-123037952D01*
X489942095Y-122847476D01*
X489894476Y-122752238D01*
X489799238Y-122657000D01*
X489656380Y-122609380D01*
X489561142Y-122609380D01*
X489418285Y-122657000D01*
X489370666Y-122704619D01*
X489037333Y-122609380D02*
X488418285Y-122609380D01*
X488751619Y-122990333D01*
X488608761Y-122990333D01*
X488513523Y-123037952D01*
X488465904Y-123085571D01*
X488418285Y-123180809D01*
X488418285Y-123418904D01*
X488465904Y-123514142D01*
X488513523Y-123561761D01*
X488608761Y-123609380D01*
X488894476Y-123609380D01*
X488989714Y-123561761D01*
X489037333Y-123514142D01*
X489370666Y-152851142D02*
X489418285Y-152898761D01*
X489561142Y-152946380D01*
X489656380Y-152946380D01*
X489799238Y-152898761D01*
X489894476Y-152803523D01*
X489942095Y-152708285D01*
X489989714Y-152517809D01*
X489989714Y-152374952D01*
X489942095Y-152184476D01*
X489894476Y-152089238D01*
X489799238Y-151994000D01*
X489656380Y-151946380D01*
X489561142Y-151946380D01*
X489418285Y-151994000D01*
X489370666Y-152041619D01*
X488513523Y-152279714D02*
X488513523Y-152946380D01*
X488751619Y-151898761D02*
X488989714Y-152613047D01*
X488370666Y-152613047D01*
X71032666Y-140217142D02*
X71080285Y-140264761D01*
X71223142Y-140312380D01*
X71318380Y-140312380D01*
X71461238Y-140264761D01*
X71556476Y-140169523D01*
X71604095Y-140074285D01*
X71651714Y-139883809D01*
X71651714Y-139740952D01*
X71604095Y-139550476D01*
X71556476Y-139455238D01*
X71461238Y-139360000D01*
X71318380Y-139312380D01*
X71223142Y-139312380D01*
X71080285Y-139360000D01*
X71032666Y-139407619D01*
X70651714Y-139407619D02*
X70604095Y-139360000D01*
X70508857Y-139312380D01*
X70270761Y-139312380D01*
X70175523Y-139360000D01*
X70127904Y-139407619D01*
X70080285Y-139502857D01*
X70080285Y-139598095D01*
X70127904Y-139740952D01*
X70699333Y-140312380D01*
X70080285Y-140312380D01*
X71032666Y-169300142D02*
X71080285Y-169347761D01*
X71223142Y-169395380D01*
X71318380Y-169395380D01*
X71461238Y-169347761D01*
X71556476Y-169252523D01*
X71604095Y-169157285D01*
X71651714Y-168966809D01*
X71651714Y-168823952D01*
X71604095Y-168633476D01*
X71556476Y-168538238D01*
X71461238Y-168443000D01*
X71318380Y-168395380D01*
X71223142Y-168395380D01*
X71080285Y-168443000D01*
X71032666Y-168490619D01*
X70080285Y-169395380D02*
X70651714Y-169395380D01*
X70366000Y-169395380D02*
X70366000Y-168395380D01*
X70461238Y-168538238D01*
X70556476Y-168633476D01*
X70651714Y-168681095D01*
X490069047Y-167330380D02*
X490545238Y-167330380D01*
X490545238Y-166330380D01*
X489735714Y-166806571D02*
X489402380Y-166806571D01*
X489259523Y-167330380D02*
X489735714Y-167330380D01*
X489735714Y-166330380D01*
X489259523Y-166330380D01*
X488830952Y-167330380D02*
X488830952Y-166330380D01*
X488592857Y-166330380D01*
X488450000Y-166378000D01*
X488354761Y-166473238D01*
X488307142Y-166568476D01*
X488259523Y-166758952D01*
X488259523Y-166901809D01*
X488307142Y-167092285D01*
X488354761Y-167187523D01*
X488450000Y-167282761D01*
X488592857Y-167330380D01*
X488830952Y-167330380D01*
X487402380Y-166663714D02*
X487402380Y-167330380D01*
X487640476Y-166282761D02*
X487878571Y-166997047D01*
X487259523Y-166997047D01*
X71731047Y-125166380D02*
X72207238Y-125166380D01*
X72207238Y-124166380D01*
X71397714Y-124642571D02*
X71064380Y-124642571D01*
X70921523Y-125166380D02*
X71397714Y-125166380D01*
X71397714Y-124166380D01*
X70921523Y-124166380D01*
X70492952Y-125166380D02*
X70492952Y-124166380D01*
X70254857Y-124166380D01*
X70112000Y-124214000D01*
X70016761Y-124309238D01*
X69969142Y-124404476D01*
X69921523Y-124594952D01*
X69921523Y-124737809D01*
X69969142Y-124928285D01*
X70016761Y-125023523D01*
X70112000Y-125118761D01*
X70254857Y-125166380D01*
X70492952Y-125166380D01*
X69588190Y-124166380D02*
X68969142Y-124166380D01*
X69302476Y-124547333D01*
X69159619Y-124547333D01*
X69064380Y-124594952D01*
X69016761Y-124642571D01*
X68969142Y-124737809D01*
X68969142Y-124975904D01*
X69016761Y-125071142D01*
X69064380Y-125118761D01*
X69159619Y-125166380D01*
X69445333Y-125166380D01*
X69540571Y-125118761D01*
X69588190Y-125071142D01*
X490196047Y-135834380D02*
X490672238Y-135834380D01*
X490672238Y-134834380D01*
X489862714Y-135310571D02*
X489529380Y-135310571D01*
X489386523Y-135834380D02*
X489862714Y-135834380D01*
X489862714Y-134834380D01*
X489386523Y-134834380D01*
X488957952Y-135834380D02*
X488957952Y-134834380D01*
X488719857Y-134834380D01*
X488577000Y-134882000D01*
X488481761Y-134977238D01*
X488434142Y-135072476D01*
X488386523Y-135262952D01*
X488386523Y-135405809D01*
X488434142Y-135596285D01*
X488481761Y-135691523D01*
X488577000Y-135786761D01*
X488719857Y-135834380D01*
X488957952Y-135834380D01*
X488005571Y-134929619D02*
X487957952Y-134882000D01*
X487862714Y-134834380D01*
X487624619Y-134834380D01*
X487529380Y-134882000D01*
X487481761Y-134929619D01*
X487434142Y-135024857D01*
X487434142Y-135120095D01*
X487481761Y-135262952D01*
X488053190Y-135834380D01*
X487434142Y-135834380D01*
X71985047Y-156408380D02*
X72461238Y-156408380D01*
X72461238Y-155408380D01*
X71651714Y-155884571D02*
X71318380Y-155884571D01*
X71175523Y-156408380D02*
X71651714Y-156408380D01*
X71651714Y-155408380D01*
X71175523Y-155408380D01*
X70746952Y-156408380D02*
X70746952Y-155408380D01*
X70508857Y-155408380D01*
X70366000Y-155456000D01*
X70270761Y-155551238D01*
X70223142Y-155646476D01*
X70175523Y-155836952D01*
X70175523Y-155979809D01*
X70223142Y-156170285D01*
X70270761Y-156265523D01*
X70366000Y-156360761D01*
X70508857Y-156408380D01*
X70746952Y-156408380D01*
X69223142Y-156408380D02*
X69794571Y-156408380D01*
X69508857Y-156408380D02*
X69508857Y-155408380D01*
X69604095Y-155551238D01*
X69699333Y-155646476D01*
X69794571Y-155694095D01*
X432391380Y-166409666D02*
X433105666Y-166409666D01*
X433248523Y-166362047D01*
X433343761Y-166266809D01*
X433391380Y-166123952D01*
X433391380Y-166028714D01*
X433391380Y-167409666D02*
X433391380Y-166838238D01*
X433391380Y-167123952D02*
X432391380Y-167123952D01*
X432534238Y-167028714D01*
X432629476Y-166933476D01*
X432677095Y-166838238D01*
X470574380Y-153852714D02*
X469574380Y-153852714D01*
X469574380Y-154090809D01*
X469622000Y-154233666D01*
X469717238Y-154328904D01*
X469812476Y-154376523D01*
X470002952Y-154424142D01*
X470145809Y-154424142D01*
X470336285Y-154376523D01*
X470431523Y-154328904D01*
X470526761Y-154233666D01*
X470574380Y-154090809D01*
X470574380Y-153852714D01*
X469669619Y-154805095D02*
X469622000Y-154852714D01*
X469574380Y-154947952D01*
X469574380Y-155186047D01*
X469622000Y-155281285D01*
X469669619Y-155328904D01*
X469764857Y-155376523D01*
X469860095Y-155376523D01*
X470002952Y-155328904D01*
X470574380Y-154757476D01*
X470574380Y-155376523D01*
X469907714Y-156233666D02*
X470574380Y-156233666D01*
X469526761Y-155995571D02*
X470241047Y-155757476D01*
X470241047Y-156376523D01*
X437300380Y-153852714D02*
X436300380Y-153852714D01*
X436300380Y-154090809D01*
X436348000Y-154233666D01*
X436443238Y-154328904D01*
X436538476Y-154376523D01*
X436728952Y-154424142D01*
X436871809Y-154424142D01*
X437062285Y-154376523D01*
X437157523Y-154328904D01*
X437252761Y-154233666D01*
X437300380Y-154090809D01*
X437300380Y-153852714D01*
X436395619Y-154805095D02*
X436348000Y-154852714D01*
X436300380Y-154947952D01*
X436300380Y-155186047D01*
X436348000Y-155281285D01*
X436395619Y-155328904D01*
X436490857Y-155376523D01*
X436586095Y-155376523D01*
X436728952Y-155328904D01*
X437300380Y-154757476D01*
X437300380Y-155376523D01*
X436300380Y-155709857D02*
X436300380Y-156328904D01*
X436681333Y-155995571D01*
X436681333Y-156138428D01*
X436728952Y-156233666D01*
X436776571Y-156281285D01*
X436871809Y-156328904D01*
X437109904Y-156328904D01*
X437205142Y-156281285D01*
X437252761Y-156233666D01*
X437300380Y-156138428D01*
X437300380Y-155852714D01*
X437252761Y-155757476D01*
X437205142Y-155709857D01*
X403899380Y-153852714D02*
X402899380Y-153852714D01*
X402899380Y-154090809D01*
X402947000Y-154233666D01*
X403042238Y-154328904D01*
X403137476Y-154376523D01*
X403327952Y-154424142D01*
X403470809Y-154424142D01*
X403661285Y-154376523D01*
X403756523Y-154328904D01*
X403851761Y-154233666D01*
X403899380Y-154090809D01*
X403899380Y-153852714D01*
X402994619Y-154805095D02*
X402947000Y-154852714D01*
X402899380Y-154947952D01*
X402899380Y-155186047D01*
X402947000Y-155281285D01*
X402994619Y-155328904D01*
X403089857Y-155376523D01*
X403185095Y-155376523D01*
X403327952Y-155328904D01*
X403899380Y-154757476D01*
X403899380Y-155376523D01*
X402994619Y-155757476D02*
X402947000Y-155805095D01*
X402899380Y-155900333D01*
X402899380Y-156138428D01*
X402947000Y-156233666D01*
X402994619Y-156281285D01*
X403089857Y-156328904D01*
X403185095Y-156328904D01*
X403327952Y-156281285D01*
X403899380Y-155709857D01*
X403899380Y-156328904D01*
X370498380Y-153852714D02*
X369498380Y-153852714D01*
X369498380Y-154090809D01*
X369546000Y-154233666D01*
X369641238Y-154328904D01*
X369736476Y-154376523D01*
X369926952Y-154424142D01*
X370069809Y-154424142D01*
X370260285Y-154376523D01*
X370355523Y-154328904D01*
X370450761Y-154233666D01*
X370498380Y-154090809D01*
X370498380Y-153852714D01*
X369593619Y-154805095D02*
X369546000Y-154852714D01*
X369498380Y-154947952D01*
X369498380Y-155186047D01*
X369546000Y-155281285D01*
X369593619Y-155328904D01*
X369688857Y-155376523D01*
X369784095Y-155376523D01*
X369926952Y-155328904D01*
X370498380Y-154757476D01*
X370498380Y-155376523D01*
X370498380Y-156328904D02*
X370498380Y-155757476D01*
X370498380Y-156043190D02*
X369498380Y-156043190D01*
X369641238Y-155947952D01*
X369736476Y-155852714D01*
X369784095Y-155757476D01*
X337224380Y-153852714D02*
X336224380Y-153852714D01*
X336224380Y-154090809D01*
X336272000Y-154233666D01*
X336367238Y-154328904D01*
X336462476Y-154376523D01*
X336652952Y-154424142D01*
X336795809Y-154424142D01*
X336986285Y-154376523D01*
X337081523Y-154328904D01*
X337176761Y-154233666D01*
X337224380Y-154090809D01*
X337224380Y-153852714D01*
X336319619Y-154805095D02*
X336272000Y-154852714D01*
X336224380Y-154947952D01*
X336224380Y-155186047D01*
X336272000Y-155281285D01*
X336319619Y-155328904D01*
X336414857Y-155376523D01*
X336510095Y-155376523D01*
X336652952Y-155328904D01*
X337224380Y-154757476D01*
X337224380Y-155376523D01*
X336224380Y-155995571D02*
X336224380Y-156090809D01*
X336272000Y-156186047D01*
X336319619Y-156233666D01*
X336414857Y-156281285D01*
X336605333Y-156328904D01*
X336843428Y-156328904D01*
X337033904Y-156281285D01*
X337129142Y-156233666D01*
X337176761Y-156186047D01*
X337224380Y-156090809D01*
X337224380Y-155995571D01*
X337176761Y-155900333D01*
X337129142Y-155852714D01*
X337033904Y-155805095D01*
X336843428Y-155757476D01*
X336605333Y-155757476D01*
X336414857Y-155805095D01*
X336319619Y-155852714D01*
X336272000Y-155900333D01*
X336224380Y-155995571D01*
X303950380Y-153852714D02*
X302950380Y-153852714D01*
X302950380Y-154090809D01*
X302998000Y-154233666D01*
X303093238Y-154328904D01*
X303188476Y-154376523D01*
X303378952Y-154424142D01*
X303521809Y-154424142D01*
X303712285Y-154376523D01*
X303807523Y-154328904D01*
X303902761Y-154233666D01*
X303950380Y-154090809D01*
X303950380Y-153852714D01*
X303950380Y-155376523D02*
X303950380Y-154805095D01*
X303950380Y-155090809D02*
X302950380Y-155090809D01*
X303093238Y-154995571D01*
X303188476Y-154900333D01*
X303236095Y-154805095D01*
X303950380Y-155852714D02*
X303950380Y-156043190D01*
X303902761Y-156138428D01*
X303855142Y-156186047D01*
X303712285Y-156281285D01*
X303521809Y-156328904D01*
X303140857Y-156328904D01*
X303045619Y-156281285D01*
X302998000Y-156233666D01*
X302950380Y-156138428D01*
X302950380Y-155947952D01*
X302998000Y-155852714D01*
X303045619Y-155805095D01*
X303140857Y-155757476D01*
X303378952Y-155757476D01*
X303474190Y-155805095D01*
X303521809Y-155852714D01*
X303569428Y-155947952D01*
X303569428Y-156138428D01*
X303521809Y-156233666D01*
X303474190Y-156281285D01*
X303378952Y-156328904D01*
X270549380Y-153852714D02*
X269549380Y-153852714D01*
X269549380Y-154090809D01*
X269597000Y-154233666D01*
X269692238Y-154328904D01*
X269787476Y-154376523D01*
X269977952Y-154424142D01*
X270120809Y-154424142D01*
X270311285Y-154376523D01*
X270406523Y-154328904D01*
X270501761Y-154233666D01*
X270549380Y-154090809D01*
X270549380Y-153852714D01*
X270549380Y-155376523D02*
X270549380Y-154805095D01*
X270549380Y-155090809D02*
X269549380Y-155090809D01*
X269692238Y-154995571D01*
X269787476Y-154900333D01*
X269835095Y-154805095D01*
X269977952Y-155947952D02*
X269930333Y-155852714D01*
X269882714Y-155805095D01*
X269787476Y-155757476D01*
X269739857Y-155757476D01*
X269644619Y-155805095D01*
X269597000Y-155852714D01*
X269549380Y-155947952D01*
X269549380Y-156138428D01*
X269597000Y-156233666D01*
X269644619Y-156281285D01*
X269739857Y-156328904D01*
X269787476Y-156328904D01*
X269882714Y-156281285D01*
X269930333Y-156233666D01*
X269977952Y-156138428D01*
X269977952Y-155947952D01*
X270025571Y-155852714D01*
X270073190Y-155805095D01*
X270168428Y-155757476D01*
X270358904Y-155757476D01*
X270454142Y-155805095D01*
X270501761Y-155852714D01*
X270549380Y-155947952D01*
X270549380Y-156138428D01*
X270501761Y-156233666D01*
X270454142Y-156281285D01*
X270358904Y-156328904D01*
X270168428Y-156328904D01*
X270073190Y-156281285D01*
X270025571Y-156233666D01*
X269977952Y-156138428D01*
X237275380Y-153852714D02*
X236275380Y-153852714D01*
X236275380Y-154090809D01*
X236323000Y-154233666D01*
X236418238Y-154328904D01*
X236513476Y-154376523D01*
X236703952Y-154424142D01*
X236846809Y-154424142D01*
X237037285Y-154376523D01*
X237132523Y-154328904D01*
X237227761Y-154233666D01*
X237275380Y-154090809D01*
X237275380Y-153852714D01*
X237275380Y-155376523D02*
X237275380Y-154805095D01*
X237275380Y-155090809D02*
X236275380Y-155090809D01*
X236418238Y-154995571D01*
X236513476Y-154900333D01*
X236561095Y-154805095D01*
X236275380Y-155709857D02*
X236275380Y-156376523D01*
X237275380Y-155947952D01*
X203874380Y-153852714D02*
X202874380Y-153852714D01*
X202874380Y-154090809D01*
X202922000Y-154233666D01*
X203017238Y-154328904D01*
X203112476Y-154376523D01*
X203302952Y-154424142D01*
X203445809Y-154424142D01*
X203636285Y-154376523D01*
X203731523Y-154328904D01*
X203826761Y-154233666D01*
X203874380Y-154090809D01*
X203874380Y-153852714D01*
X203874380Y-155376523D02*
X203874380Y-154805095D01*
X203874380Y-155090809D02*
X202874380Y-155090809D01*
X203017238Y-154995571D01*
X203112476Y-154900333D01*
X203160095Y-154805095D01*
X202874380Y-156233666D02*
X202874380Y-156043190D01*
X202922000Y-155947952D01*
X202969619Y-155900333D01*
X203112476Y-155805095D01*
X203302952Y-155757476D01*
X203683904Y-155757476D01*
X203779142Y-155805095D01*
X203826761Y-155852714D01*
X203874380Y-155947952D01*
X203874380Y-156138428D01*
X203826761Y-156233666D01*
X203779142Y-156281285D01*
X203683904Y-156328904D01*
X203445809Y-156328904D01*
X203350571Y-156281285D01*
X203302952Y-156233666D01*
X203255333Y-156138428D01*
X203255333Y-155947952D01*
X203302952Y-155852714D01*
X203350571Y-155805095D01*
X203445809Y-155757476D01*
X170600380Y-153852714D02*
X169600380Y-153852714D01*
X169600380Y-154090809D01*
X169648000Y-154233666D01*
X169743238Y-154328904D01*
X169838476Y-154376523D01*
X170028952Y-154424142D01*
X170171809Y-154424142D01*
X170362285Y-154376523D01*
X170457523Y-154328904D01*
X170552761Y-154233666D01*
X170600380Y-154090809D01*
X170600380Y-153852714D01*
X170600380Y-155376523D02*
X170600380Y-154805095D01*
X170600380Y-155090809D02*
X169600380Y-155090809D01*
X169743238Y-154995571D01*
X169838476Y-154900333D01*
X169886095Y-154805095D01*
X169600380Y-156281285D02*
X169600380Y-155805095D01*
X170076571Y-155757476D01*
X170028952Y-155805095D01*
X169981333Y-155900333D01*
X169981333Y-156138428D01*
X170028952Y-156233666D01*
X170076571Y-156281285D01*
X170171809Y-156328904D01*
X170409904Y-156328904D01*
X170505142Y-156281285D01*
X170552761Y-156233666D01*
X170600380Y-156138428D01*
X170600380Y-155900333D01*
X170552761Y-155805095D01*
X170505142Y-155757476D01*
X137326380Y-153852714D02*
X136326380Y-153852714D01*
X136326380Y-154090809D01*
X136374000Y-154233666D01*
X136469238Y-154328904D01*
X136564476Y-154376523D01*
X136754952Y-154424142D01*
X136897809Y-154424142D01*
X137088285Y-154376523D01*
X137183523Y-154328904D01*
X137278761Y-154233666D01*
X137326380Y-154090809D01*
X137326380Y-153852714D01*
X137326380Y-155376523D02*
X137326380Y-154805095D01*
X137326380Y-155090809D02*
X136326380Y-155090809D01*
X136469238Y-154995571D01*
X136564476Y-154900333D01*
X136612095Y-154805095D01*
X136659714Y-156233666D02*
X137326380Y-156233666D01*
X136278761Y-155995571D02*
X136993047Y-155757476D01*
X136993047Y-156376523D01*
X103925380Y-153852714D02*
X102925380Y-153852714D01*
X102925380Y-154090809D01*
X102973000Y-154233666D01*
X103068238Y-154328904D01*
X103163476Y-154376523D01*
X103353952Y-154424142D01*
X103496809Y-154424142D01*
X103687285Y-154376523D01*
X103782523Y-154328904D01*
X103877761Y-154233666D01*
X103925380Y-154090809D01*
X103925380Y-153852714D01*
X103925380Y-155376523D02*
X103925380Y-154805095D01*
X103925380Y-155090809D02*
X102925380Y-155090809D01*
X103068238Y-154995571D01*
X103163476Y-154900333D01*
X103211095Y-154805095D01*
X102925380Y-155709857D02*
X102925380Y-156328904D01*
X103306333Y-155995571D01*
X103306333Y-156138428D01*
X103353952Y-156233666D01*
X103401571Y-156281285D01*
X103496809Y-156328904D01*
X103734904Y-156328904D01*
X103830142Y-156281285D01*
X103877761Y-156233666D01*
X103925380Y-156138428D01*
X103925380Y-155852714D01*
X103877761Y-155757476D01*
X103830142Y-155709857D01*
X470574380Y-134802714D02*
X469574380Y-134802714D01*
X469574380Y-135040809D01*
X469622000Y-135183666D01*
X469717238Y-135278904D01*
X469812476Y-135326523D01*
X470002952Y-135374142D01*
X470145809Y-135374142D01*
X470336285Y-135326523D01*
X470431523Y-135278904D01*
X470526761Y-135183666D01*
X470574380Y-135040809D01*
X470574380Y-134802714D01*
X470574380Y-136326523D02*
X470574380Y-135755095D01*
X470574380Y-136040809D02*
X469574380Y-136040809D01*
X469717238Y-135945571D01*
X469812476Y-135850333D01*
X469860095Y-135755095D01*
X469669619Y-136707476D02*
X469622000Y-136755095D01*
X469574380Y-136850333D01*
X469574380Y-137088428D01*
X469622000Y-137183666D01*
X469669619Y-137231285D01*
X469764857Y-137278904D01*
X469860095Y-137278904D01*
X470002952Y-137231285D01*
X470574380Y-136659857D01*
X470574380Y-137278904D01*
X437300380Y-134802714D02*
X436300380Y-134802714D01*
X436300380Y-135040809D01*
X436348000Y-135183666D01*
X436443238Y-135278904D01*
X436538476Y-135326523D01*
X436728952Y-135374142D01*
X436871809Y-135374142D01*
X437062285Y-135326523D01*
X437157523Y-135278904D01*
X437252761Y-135183666D01*
X437300380Y-135040809D01*
X437300380Y-134802714D01*
X437300380Y-136326523D02*
X437300380Y-135755095D01*
X437300380Y-136040809D02*
X436300380Y-136040809D01*
X436443238Y-135945571D01*
X436538476Y-135850333D01*
X436586095Y-135755095D01*
X437300380Y-137278904D02*
X437300380Y-136707476D01*
X437300380Y-136993190D02*
X436300380Y-136993190D01*
X436443238Y-136897952D01*
X436538476Y-136802714D01*
X436586095Y-136707476D01*
X403899380Y-134802714D02*
X402899380Y-134802714D01*
X402899380Y-135040809D01*
X402947000Y-135183666D01*
X403042238Y-135278904D01*
X403137476Y-135326523D01*
X403327952Y-135374142D01*
X403470809Y-135374142D01*
X403661285Y-135326523D01*
X403756523Y-135278904D01*
X403851761Y-135183666D01*
X403899380Y-135040809D01*
X403899380Y-134802714D01*
X403899380Y-136326523D02*
X403899380Y-135755095D01*
X403899380Y-136040809D02*
X402899380Y-136040809D01*
X403042238Y-135945571D01*
X403137476Y-135850333D01*
X403185095Y-135755095D01*
X402899380Y-136945571D02*
X402899380Y-137040809D01*
X402947000Y-137136047D01*
X402994619Y-137183666D01*
X403089857Y-137231285D01*
X403280333Y-137278904D01*
X403518428Y-137278904D01*
X403708904Y-137231285D01*
X403804142Y-137183666D01*
X403851761Y-137136047D01*
X403899380Y-137040809D01*
X403899380Y-136945571D01*
X403851761Y-136850333D01*
X403804142Y-136802714D01*
X403708904Y-136755095D01*
X403518428Y-136707476D01*
X403280333Y-136707476D01*
X403089857Y-136755095D01*
X402994619Y-136802714D01*
X402947000Y-136850333D01*
X402899380Y-136945571D01*
X370625380Y-135278904D02*
X369625380Y-135278904D01*
X369625380Y-135517000D01*
X369673000Y-135659857D01*
X369768238Y-135755095D01*
X369863476Y-135802714D01*
X370053952Y-135850333D01*
X370196809Y-135850333D01*
X370387285Y-135802714D01*
X370482523Y-135755095D01*
X370577761Y-135659857D01*
X370625380Y-135517000D01*
X370625380Y-135278904D01*
X370625380Y-136326523D02*
X370625380Y-136517000D01*
X370577761Y-136612238D01*
X370530142Y-136659857D01*
X370387285Y-136755095D01*
X370196809Y-136802714D01*
X369815857Y-136802714D01*
X369720619Y-136755095D01*
X369673000Y-136707476D01*
X369625380Y-136612238D01*
X369625380Y-136421761D01*
X369673000Y-136326523D01*
X369720619Y-136278904D01*
X369815857Y-136231285D01*
X370053952Y-136231285D01*
X370149190Y-136278904D01*
X370196809Y-136326523D01*
X370244428Y-136421761D01*
X370244428Y-136612238D01*
X370196809Y-136707476D01*
X370149190Y-136755095D01*
X370053952Y-136802714D01*
X337224380Y-135278904D02*
X336224380Y-135278904D01*
X336224380Y-135517000D01*
X336272000Y-135659857D01*
X336367238Y-135755095D01*
X336462476Y-135802714D01*
X336652952Y-135850333D01*
X336795809Y-135850333D01*
X336986285Y-135802714D01*
X337081523Y-135755095D01*
X337176761Y-135659857D01*
X337224380Y-135517000D01*
X337224380Y-135278904D01*
X336652952Y-136421761D02*
X336605333Y-136326523D01*
X336557714Y-136278904D01*
X336462476Y-136231285D01*
X336414857Y-136231285D01*
X336319619Y-136278904D01*
X336272000Y-136326523D01*
X336224380Y-136421761D01*
X336224380Y-136612238D01*
X336272000Y-136707476D01*
X336319619Y-136755095D01*
X336414857Y-136802714D01*
X336462476Y-136802714D01*
X336557714Y-136755095D01*
X336605333Y-136707476D01*
X336652952Y-136612238D01*
X336652952Y-136421761D01*
X336700571Y-136326523D01*
X336748190Y-136278904D01*
X336843428Y-136231285D01*
X337033904Y-136231285D01*
X337129142Y-136278904D01*
X337176761Y-136326523D01*
X337224380Y-136421761D01*
X337224380Y-136612238D01*
X337176761Y-136707476D01*
X337129142Y-136755095D01*
X337033904Y-136802714D01*
X336843428Y-136802714D01*
X336748190Y-136755095D01*
X336700571Y-136707476D01*
X336652952Y-136612238D01*
X303950380Y-135278904D02*
X302950380Y-135278904D01*
X302950380Y-135517000D01*
X302998000Y-135659857D01*
X303093238Y-135755095D01*
X303188476Y-135802714D01*
X303378952Y-135850333D01*
X303521809Y-135850333D01*
X303712285Y-135802714D01*
X303807523Y-135755095D01*
X303902761Y-135659857D01*
X303950380Y-135517000D01*
X303950380Y-135278904D01*
X302950380Y-136183666D02*
X302950380Y-136850333D01*
X303950380Y-136421761D01*
X270549380Y-135278904D02*
X269549380Y-135278904D01*
X269549380Y-135517000D01*
X269597000Y-135659857D01*
X269692238Y-135755095D01*
X269787476Y-135802714D01*
X269977952Y-135850333D01*
X270120809Y-135850333D01*
X270311285Y-135802714D01*
X270406523Y-135755095D01*
X270501761Y-135659857D01*
X270549380Y-135517000D01*
X270549380Y-135278904D01*
X269549380Y-136707476D02*
X269549380Y-136517000D01*
X269597000Y-136421761D01*
X269644619Y-136374142D01*
X269787476Y-136278904D01*
X269977952Y-136231285D01*
X270358904Y-136231285D01*
X270454142Y-136278904D01*
X270501761Y-136326523D01*
X270549380Y-136421761D01*
X270549380Y-136612238D01*
X270501761Y-136707476D01*
X270454142Y-136755095D01*
X270358904Y-136802714D01*
X270120809Y-136802714D01*
X270025571Y-136755095D01*
X269977952Y-136707476D01*
X269930333Y-136612238D01*
X269930333Y-136421761D01*
X269977952Y-136326523D01*
X270025571Y-136278904D01*
X270120809Y-136231285D01*
X237275380Y-135278904D02*
X236275380Y-135278904D01*
X236275380Y-135517000D01*
X236323000Y-135659857D01*
X236418238Y-135755095D01*
X236513476Y-135802714D01*
X236703952Y-135850333D01*
X236846809Y-135850333D01*
X237037285Y-135802714D01*
X237132523Y-135755095D01*
X237227761Y-135659857D01*
X237275380Y-135517000D01*
X237275380Y-135278904D01*
X236275380Y-136755095D02*
X236275380Y-136278904D01*
X236751571Y-136231285D01*
X236703952Y-136278904D01*
X236656333Y-136374142D01*
X236656333Y-136612238D01*
X236703952Y-136707476D01*
X236751571Y-136755095D01*
X236846809Y-136802714D01*
X237084904Y-136802714D01*
X237180142Y-136755095D01*
X237227761Y-136707476D01*
X237275380Y-136612238D01*
X237275380Y-136374142D01*
X237227761Y-136278904D01*
X237180142Y-136231285D01*
X203874380Y-135278904D02*
X202874380Y-135278904D01*
X202874380Y-135517000D01*
X202922000Y-135659857D01*
X203017238Y-135755095D01*
X203112476Y-135802714D01*
X203302952Y-135850333D01*
X203445809Y-135850333D01*
X203636285Y-135802714D01*
X203731523Y-135755095D01*
X203826761Y-135659857D01*
X203874380Y-135517000D01*
X203874380Y-135278904D01*
X203207714Y-136707476D02*
X203874380Y-136707476D01*
X202826761Y-136469380D02*
X203541047Y-136231285D01*
X203541047Y-136850333D01*
X170600380Y-135278904D02*
X169600380Y-135278904D01*
X169600380Y-135517000D01*
X169648000Y-135659857D01*
X169743238Y-135755095D01*
X169838476Y-135802714D01*
X170028952Y-135850333D01*
X170171809Y-135850333D01*
X170362285Y-135802714D01*
X170457523Y-135755095D01*
X170552761Y-135659857D01*
X170600380Y-135517000D01*
X170600380Y-135278904D01*
X169600380Y-136183666D02*
X169600380Y-136802714D01*
X169981333Y-136469380D01*
X169981333Y-136612238D01*
X170028952Y-136707476D01*
X170076571Y-136755095D01*
X170171809Y-136802714D01*
X170409904Y-136802714D01*
X170505142Y-136755095D01*
X170552761Y-136707476D01*
X170600380Y-136612238D01*
X170600380Y-136326523D01*
X170552761Y-136231285D01*
X170505142Y-136183666D01*
X137199380Y-135278904D02*
X136199380Y-135278904D01*
X136199380Y-135517000D01*
X136247000Y-135659857D01*
X136342238Y-135755095D01*
X136437476Y-135802714D01*
X136627952Y-135850333D01*
X136770809Y-135850333D01*
X136961285Y-135802714D01*
X137056523Y-135755095D01*
X137151761Y-135659857D01*
X137199380Y-135517000D01*
X137199380Y-135278904D01*
X136294619Y-136231285D02*
X136247000Y-136278904D01*
X136199380Y-136374142D01*
X136199380Y-136612238D01*
X136247000Y-136707476D01*
X136294619Y-136755095D01*
X136389857Y-136802714D01*
X136485095Y-136802714D01*
X136627952Y-136755095D01*
X137199380Y-136183666D01*
X137199380Y-136802714D01*
X103925380Y-135278904D02*
X102925380Y-135278904D01*
X102925380Y-135517000D01*
X102973000Y-135659857D01*
X103068238Y-135755095D01*
X103163476Y-135802714D01*
X103353952Y-135850333D01*
X103496809Y-135850333D01*
X103687285Y-135802714D01*
X103782523Y-135755095D01*
X103877761Y-135659857D01*
X103925380Y-135517000D01*
X103925380Y-135278904D01*
X103925380Y-136802714D02*
X103925380Y-136231285D01*
X103925380Y-136517000D02*
X102925380Y-136517000D01*
X103068238Y-136421761D01*
X103163476Y-136326523D01*
X103211095Y-136231285D01*
M02*
