G04 #@! TF.GenerationSoftware,KiCad,Pcbnew,(5.1.4)-1*
G04 #@! TF.CreationDate,2022-01-03T17:19:45-05:00*
G04 #@! TF.ProjectId,DOMAIN-1_Upper-Board,444f4d41-494e-42d3-915f-55707065722d,rev?*
G04 #@! TF.SameCoordinates,Original*
G04 #@! TF.FileFunction,Soldermask,Bot*
G04 #@! TF.FilePolarity,Negative*
%FSLAX46Y46*%
G04 Gerber Fmt 4.6, Leading zero omitted, Abs format (unit mm)*
G04 Created by KiCad (PCBNEW (5.1.4)-1) date 2022-01-03 17:19:45*
%MOMM*%
%LPD*%
G04 APERTURE LIST*
%ADD10C,0.100000*%
G04 APERTURE END LIST*
D10*
G36*
X71995591Y-166991085D02*
G01*
X72029569Y-167001393D01*
X72060890Y-167018134D01*
X72088339Y-167040661D01*
X72110866Y-167068110D01*
X72127607Y-167099431D01*
X72137915Y-167133409D01*
X72142000Y-167174890D01*
X72142000Y-167851110D01*
X72137915Y-167892591D01*
X72127607Y-167926569D01*
X72110866Y-167957890D01*
X72088339Y-167985339D01*
X72060890Y-168007866D01*
X72029569Y-168024607D01*
X71995591Y-168034915D01*
X71954110Y-168039000D01*
X71352890Y-168039000D01*
X71311409Y-168034915D01*
X71277431Y-168024607D01*
X71246110Y-168007866D01*
X71218661Y-167985339D01*
X71196134Y-167957890D01*
X71179393Y-167926569D01*
X71169085Y-167892591D01*
X71165000Y-167851110D01*
X71165000Y-167174890D01*
X71169085Y-167133409D01*
X71179393Y-167099431D01*
X71196134Y-167068110D01*
X71218661Y-167040661D01*
X71246110Y-167018134D01*
X71277431Y-167001393D01*
X71311409Y-166991085D01*
X71352890Y-166987000D01*
X71954110Y-166987000D01*
X71995591Y-166991085D01*
X71995591Y-166991085D01*
G37*
G36*
X70420591Y-166991085D02*
G01*
X70454569Y-167001393D01*
X70485890Y-167018134D01*
X70513339Y-167040661D01*
X70535866Y-167068110D01*
X70552607Y-167099431D01*
X70562915Y-167133409D01*
X70567000Y-167174890D01*
X70567000Y-167851110D01*
X70562915Y-167892591D01*
X70552607Y-167926569D01*
X70535866Y-167957890D01*
X70513339Y-167985339D01*
X70485890Y-168007866D01*
X70454569Y-168024607D01*
X70420591Y-168034915D01*
X70379110Y-168039000D01*
X69777890Y-168039000D01*
X69736409Y-168034915D01*
X69702431Y-168024607D01*
X69671110Y-168007866D01*
X69643661Y-167985339D01*
X69621134Y-167957890D01*
X69604393Y-167926569D01*
X69594085Y-167892591D01*
X69590000Y-167851110D01*
X69590000Y-167174890D01*
X69594085Y-167133409D01*
X69604393Y-167099431D01*
X69621134Y-167068110D01*
X69643661Y-167040661D01*
X69671110Y-167018134D01*
X69702431Y-167001393D01*
X69736409Y-166991085D01*
X69777890Y-166987000D01*
X70379110Y-166987000D01*
X70420591Y-166991085D01*
X70420591Y-166991085D01*
G37*
G36*
X491351000Y-165657000D02*
G01*
X489849000Y-165657000D01*
X489849000Y-163755000D01*
X491351000Y-163755000D01*
X491351000Y-165657000D01*
X491351000Y-165657000D01*
G37*
G36*
X488051000Y-165657000D02*
G01*
X486549000Y-165657000D01*
X486549000Y-163755000D01*
X488051000Y-163755000D01*
X488051000Y-165657000D01*
X488051000Y-165657000D01*
G37*
G36*
X462012512Y-162171927D02*
G01*
X462161812Y-162201624D01*
X462325784Y-162269544D01*
X462473354Y-162368147D01*
X462598853Y-162493646D01*
X462697456Y-162641216D01*
X462765376Y-162805188D01*
X462800000Y-162979259D01*
X462800000Y-163156741D01*
X462765376Y-163330812D01*
X462697456Y-163494784D01*
X462598853Y-163642354D01*
X462473354Y-163767853D01*
X462325784Y-163866456D01*
X462161812Y-163934376D01*
X462012512Y-163964073D01*
X461987742Y-163969000D01*
X461810258Y-163969000D01*
X461785488Y-163964073D01*
X461636188Y-163934376D01*
X461472216Y-163866456D01*
X461324646Y-163767853D01*
X461199147Y-163642354D01*
X461100544Y-163494784D01*
X461032624Y-163330812D01*
X460998000Y-163156741D01*
X460998000Y-162979259D01*
X461032624Y-162805188D01*
X461100544Y-162641216D01*
X461199147Y-162493646D01*
X461324646Y-162368147D01*
X461472216Y-162269544D01*
X461636188Y-162201624D01*
X461785488Y-162171927D01*
X461810258Y-162167000D01*
X461987742Y-162167000D01*
X462012512Y-162171927D01*
X462012512Y-162171927D01*
G37*
G36*
X456932512Y-162171927D02*
G01*
X457081812Y-162201624D01*
X457245784Y-162269544D01*
X457393354Y-162368147D01*
X457518853Y-162493646D01*
X457617456Y-162641216D01*
X457685376Y-162805188D01*
X457720000Y-162979259D01*
X457720000Y-163156741D01*
X457685376Y-163330812D01*
X457617456Y-163494784D01*
X457518853Y-163642354D01*
X457393354Y-163767853D01*
X457245784Y-163866456D01*
X457081812Y-163934376D01*
X456932512Y-163964073D01*
X456907742Y-163969000D01*
X456730258Y-163969000D01*
X456705488Y-163964073D01*
X456556188Y-163934376D01*
X456392216Y-163866456D01*
X456244646Y-163767853D01*
X456119147Y-163642354D01*
X456020544Y-163494784D01*
X455952624Y-163330812D01*
X455918000Y-163156741D01*
X455918000Y-162979259D01*
X455952624Y-162805188D01*
X456020544Y-162641216D01*
X456119147Y-162493646D01*
X456244646Y-162368147D01*
X456392216Y-162269544D01*
X456556188Y-162201624D01*
X456705488Y-162171927D01*
X456730258Y-162167000D01*
X456907742Y-162167000D01*
X456932512Y-162171927D01*
X456932512Y-162171927D01*
G37*
G36*
X454392512Y-162171927D02*
G01*
X454541812Y-162201624D01*
X454705784Y-162269544D01*
X454853354Y-162368147D01*
X454978853Y-162493646D01*
X455077456Y-162641216D01*
X455145376Y-162805188D01*
X455180000Y-162979259D01*
X455180000Y-163156741D01*
X455145376Y-163330812D01*
X455077456Y-163494784D01*
X454978853Y-163642354D01*
X454853354Y-163767853D01*
X454705784Y-163866456D01*
X454541812Y-163934376D01*
X454392512Y-163964073D01*
X454367742Y-163969000D01*
X454190258Y-163969000D01*
X454165488Y-163964073D01*
X454016188Y-163934376D01*
X453852216Y-163866456D01*
X453704646Y-163767853D01*
X453579147Y-163642354D01*
X453480544Y-163494784D01*
X453412624Y-163330812D01*
X453378000Y-163156741D01*
X453378000Y-162979259D01*
X453412624Y-162805188D01*
X453480544Y-162641216D01*
X453579147Y-162493646D01*
X453704646Y-162368147D01*
X453852216Y-162269544D01*
X454016188Y-162201624D01*
X454165488Y-162171927D01*
X454190258Y-162167000D01*
X454367742Y-162167000D01*
X454392512Y-162171927D01*
X454392512Y-162171927D01*
G37*
G36*
X451852512Y-162171927D02*
G01*
X452001812Y-162201624D01*
X452165784Y-162269544D01*
X452313354Y-162368147D01*
X452438853Y-162493646D01*
X452537456Y-162641216D01*
X452605376Y-162805188D01*
X452640000Y-162979259D01*
X452640000Y-163156741D01*
X452605376Y-163330812D01*
X452537456Y-163494784D01*
X452438853Y-163642354D01*
X452313354Y-163767853D01*
X452165784Y-163866456D01*
X452001812Y-163934376D01*
X451852512Y-163964073D01*
X451827742Y-163969000D01*
X451650258Y-163969000D01*
X451625488Y-163964073D01*
X451476188Y-163934376D01*
X451312216Y-163866456D01*
X451164646Y-163767853D01*
X451039147Y-163642354D01*
X450940544Y-163494784D01*
X450872624Y-163330812D01*
X450838000Y-163156741D01*
X450838000Y-162979259D01*
X450872624Y-162805188D01*
X450940544Y-162641216D01*
X451039147Y-162493646D01*
X451164646Y-162368147D01*
X451312216Y-162269544D01*
X451476188Y-162201624D01*
X451625488Y-162171927D01*
X451650258Y-162167000D01*
X451827742Y-162167000D01*
X451852512Y-162171927D01*
X451852512Y-162171927D01*
G37*
G36*
X459472512Y-162171927D02*
G01*
X459621812Y-162201624D01*
X459785784Y-162269544D01*
X459933354Y-162368147D01*
X460058853Y-162493646D01*
X460157456Y-162641216D01*
X460225376Y-162805188D01*
X460260000Y-162979259D01*
X460260000Y-163156741D01*
X460225376Y-163330812D01*
X460157456Y-163494784D01*
X460058853Y-163642354D01*
X459933354Y-163767853D01*
X459785784Y-163866456D01*
X459621812Y-163934376D01*
X459472512Y-163964073D01*
X459447742Y-163969000D01*
X459270258Y-163969000D01*
X459245488Y-163964073D01*
X459096188Y-163934376D01*
X458932216Y-163866456D01*
X458784646Y-163767853D01*
X458659147Y-163642354D01*
X458560544Y-163494784D01*
X458492624Y-163330812D01*
X458458000Y-163156741D01*
X458458000Y-162979259D01*
X458492624Y-162805188D01*
X458560544Y-162641216D01*
X458659147Y-162493646D01*
X458784646Y-162368147D01*
X458932216Y-162269544D01*
X459096188Y-162201624D01*
X459245488Y-162171927D01*
X459270258Y-162167000D01*
X459447742Y-162167000D01*
X459472512Y-162171927D01*
X459472512Y-162171927D01*
G37*
G36*
X439152512Y-162171927D02*
G01*
X439301812Y-162201624D01*
X439465784Y-162269544D01*
X439613354Y-162368147D01*
X439738853Y-162493646D01*
X439837456Y-162641216D01*
X439905376Y-162805188D01*
X439940000Y-162979259D01*
X439940000Y-163156741D01*
X439905376Y-163330812D01*
X439837456Y-163494784D01*
X439738853Y-163642354D01*
X439613354Y-163767853D01*
X439465784Y-163866456D01*
X439301812Y-163934376D01*
X439152512Y-163964073D01*
X439127742Y-163969000D01*
X438950258Y-163969000D01*
X438925488Y-163964073D01*
X438776188Y-163934376D01*
X438612216Y-163866456D01*
X438464646Y-163767853D01*
X438339147Y-163642354D01*
X438240544Y-163494784D01*
X438172624Y-163330812D01*
X438138000Y-163156741D01*
X438138000Y-162979259D01*
X438172624Y-162805188D01*
X438240544Y-162641216D01*
X438339147Y-162493646D01*
X438464646Y-162368147D01*
X438612216Y-162269544D01*
X438776188Y-162201624D01*
X438925488Y-162171927D01*
X438950258Y-162167000D01*
X439127742Y-162167000D01*
X439152512Y-162171927D01*
X439152512Y-162171927D01*
G37*
G36*
X441692512Y-162171927D02*
G01*
X441841812Y-162201624D01*
X442005784Y-162269544D01*
X442153354Y-162368147D01*
X442278853Y-162493646D01*
X442377456Y-162641216D01*
X442445376Y-162805188D01*
X442480000Y-162979259D01*
X442480000Y-163156741D01*
X442445376Y-163330812D01*
X442377456Y-163494784D01*
X442278853Y-163642354D01*
X442153354Y-163767853D01*
X442005784Y-163866456D01*
X441841812Y-163934376D01*
X441692512Y-163964073D01*
X441667742Y-163969000D01*
X441490258Y-163969000D01*
X441465488Y-163964073D01*
X441316188Y-163934376D01*
X441152216Y-163866456D01*
X441004646Y-163767853D01*
X440879147Y-163642354D01*
X440780544Y-163494784D01*
X440712624Y-163330812D01*
X440678000Y-163156741D01*
X440678000Y-162979259D01*
X440712624Y-162805188D01*
X440780544Y-162641216D01*
X440879147Y-162493646D01*
X441004646Y-162368147D01*
X441152216Y-162269544D01*
X441316188Y-162201624D01*
X441465488Y-162171927D01*
X441490258Y-162167000D01*
X441667742Y-162167000D01*
X441692512Y-162171927D01*
X441692512Y-162171927D01*
G37*
G36*
X444232512Y-162171927D02*
G01*
X444381812Y-162201624D01*
X444545784Y-162269544D01*
X444693354Y-162368147D01*
X444818853Y-162493646D01*
X444917456Y-162641216D01*
X444985376Y-162805188D01*
X445020000Y-162979259D01*
X445020000Y-163156741D01*
X444985376Y-163330812D01*
X444917456Y-163494784D01*
X444818853Y-163642354D01*
X444693354Y-163767853D01*
X444545784Y-163866456D01*
X444381812Y-163934376D01*
X444232512Y-163964073D01*
X444207742Y-163969000D01*
X444030258Y-163969000D01*
X444005488Y-163964073D01*
X443856188Y-163934376D01*
X443692216Y-163866456D01*
X443544646Y-163767853D01*
X443419147Y-163642354D01*
X443320544Y-163494784D01*
X443252624Y-163330812D01*
X443218000Y-163156741D01*
X443218000Y-162979259D01*
X443252624Y-162805188D01*
X443320544Y-162641216D01*
X443419147Y-162493646D01*
X443544646Y-162368147D01*
X443692216Y-162269544D01*
X443856188Y-162201624D01*
X444005488Y-162171927D01*
X444030258Y-162167000D01*
X444207742Y-162167000D01*
X444232512Y-162171927D01*
X444232512Y-162171927D01*
G37*
G36*
X446772512Y-162171927D02*
G01*
X446921812Y-162201624D01*
X447085784Y-162269544D01*
X447233354Y-162368147D01*
X447358853Y-162493646D01*
X447457456Y-162641216D01*
X447525376Y-162805188D01*
X447560000Y-162979259D01*
X447560000Y-163156741D01*
X447525376Y-163330812D01*
X447457456Y-163494784D01*
X447358853Y-163642354D01*
X447233354Y-163767853D01*
X447085784Y-163866456D01*
X446921812Y-163934376D01*
X446772512Y-163964073D01*
X446747742Y-163969000D01*
X446570258Y-163969000D01*
X446545488Y-163964073D01*
X446396188Y-163934376D01*
X446232216Y-163866456D01*
X446084646Y-163767853D01*
X445959147Y-163642354D01*
X445860544Y-163494784D01*
X445792624Y-163330812D01*
X445758000Y-163156741D01*
X445758000Y-162979259D01*
X445792624Y-162805188D01*
X445860544Y-162641216D01*
X445959147Y-162493646D01*
X446084646Y-162368147D01*
X446232216Y-162269544D01*
X446396188Y-162201624D01*
X446545488Y-162171927D01*
X446570258Y-162167000D01*
X446747742Y-162167000D01*
X446772512Y-162171927D01*
X446772512Y-162171927D01*
G37*
G36*
X449312512Y-162171927D02*
G01*
X449461812Y-162201624D01*
X449625784Y-162269544D01*
X449773354Y-162368147D01*
X449898853Y-162493646D01*
X449997456Y-162641216D01*
X450065376Y-162805188D01*
X450100000Y-162979259D01*
X450100000Y-163156741D01*
X450065376Y-163330812D01*
X449997456Y-163494784D01*
X449898853Y-163642354D01*
X449773354Y-163767853D01*
X449625784Y-163866456D01*
X449461812Y-163934376D01*
X449312512Y-163964073D01*
X449287742Y-163969000D01*
X449110258Y-163969000D01*
X449085488Y-163964073D01*
X448936188Y-163934376D01*
X448772216Y-163866456D01*
X448624646Y-163767853D01*
X448499147Y-163642354D01*
X448400544Y-163494784D01*
X448332624Y-163330812D01*
X448298000Y-163156741D01*
X448298000Y-162979259D01*
X448332624Y-162805188D01*
X448400544Y-162641216D01*
X448499147Y-162493646D01*
X448624646Y-162368147D01*
X448772216Y-162269544D01*
X448936188Y-162201624D01*
X449085488Y-162171927D01*
X449110258Y-162167000D01*
X449287742Y-162167000D01*
X449312512Y-162171927D01*
X449312512Y-162171927D01*
G37*
G36*
X73267000Y-163879000D02*
G01*
X71765000Y-163879000D01*
X71765000Y-161977000D01*
X73267000Y-161977000D01*
X73267000Y-163879000D01*
X73267000Y-163879000D01*
G37*
G36*
X69967000Y-163879000D02*
G01*
X68465000Y-163879000D01*
X68465000Y-161977000D01*
X69967000Y-161977000D01*
X69967000Y-163879000D01*
X69967000Y-163879000D01*
G37*
G36*
X441687796Y-159630989D02*
G01*
X441841812Y-159661624D01*
X442005784Y-159729544D01*
X442153354Y-159828147D01*
X442278853Y-159953646D01*
X442377456Y-160101216D01*
X442445376Y-160265188D01*
X442480000Y-160439259D01*
X442480000Y-160616741D01*
X442445376Y-160790812D01*
X442377456Y-160954784D01*
X442278853Y-161102354D01*
X442153354Y-161227853D01*
X442005784Y-161326456D01*
X441841812Y-161394376D01*
X441693341Y-161423908D01*
X441667742Y-161429000D01*
X441490258Y-161429000D01*
X441464659Y-161423908D01*
X441316188Y-161394376D01*
X441152216Y-161326456D01*
X441004646Y-161227853D01*
X440879147Y-161102354D01*
X440780544Y-160954784D01*
X440712624Y-160790812D01*
X440678000Y-160616741D01*
X440678000Y-160439259D01*
X440712624Y-160265188D01*
X440780544Y-160101216D01*
X440879147Y-159953646D01*
X441004646Y-159828147D01*
X441152216Y-159729544D01*
X441316188Y-159661624D01*
X441470204Y-159630989D01*
X441490258Y-159627000D01*
X441667742Y-159627000D01*
X441687796Y-159630989D01*
X441687796Y-159630989D01*
G37*
G36*
X462007796Y-159630989D02*
G01*
X462161812Y-159661624D01*
X462325784Y-159729544D01*
X462473354Y-159828147D01*
X462598853Y-159953646D01*
X462697456Y-160101216D01*
X462765376Y-160265188D01*
X462800000Y-160439259D01*
X462800000Y-160616741D01*
X462765376Y-160790812D01*
X462697456Y-160954784D01*
X462598853Y-161102354D01*
X462473354Y-161227853D01*
X462325784Y-161326456D01*
X462161812Y-161394376D01*
X462013341Y-161423908D01*
X461987742Y-161429000D01*
X461810258Y-161429000D01*
X461784659Y-161423908D01*
X461636188Y-161394376D01*
X461472216Y-161326456D01*
X461324646Y-161227853D01*
X461199147Y-161102354D01*
X461100544Y-160954784D01*
X461032624Y-160790812D01*
X460998000Y-160616741D01*
X460998000Y-160439259D01*
X461032624Y-160265188D01*
X461100544Y-160101216D01*
X461199147Y-159953646D01*
X461324646Y-159828147D01*
X461472216Y-159729544D01*
X461636188Y-159661624D01*
X461790204Y-159630989D01*
X461810258Y-159627000D01*
X461987742Y-159627000D01*
X462007796Y-159630989D01*
X462007796Y-159630989D01*
G37*
G36*
X459467796Y-159630989D02*
G01*
X459621812Y-159661624D01*
X459785784Y-159729544D01*
X459933354Y-159828147D01*
X460058853Y-159953646D01*
X460157456Y-160101216D01*
X460225376Y-160265188D01*
X460260000Y-160439259D01*
X460260000Y-160616741D01*
X460225376Y-160790812D01*
X460157456Y-160954784D01*
X460058853Y-161102354D01*
X459933354Y-161227853D01*
X459785784Y-161326456D01*
X459621812Y-161394376D01*
X459473341Y-161423908D01*
X459447742Y-161429000D01*
X459270258Y-161429000D01*
X459244659Y-161423908D01*
X459096188Y-161394376D01*
X458932216Y-161326456D01*
X458784646Y-161227853D01*
X458659147Y-161102354D01*
X458560544Y-160954784D01*
X458492624Y-160790812D01*
X458458000Y-160616741D01*
X458458000Y-160439259D01*
X458492624Y-160265188D01*
X458560544Y-160101216D01*
X458659147Y-159953646D01*
X458784646Y-159828147D01*
X458932216Y-159729544D01*
X459096188Y-159661624D01*
X459250204Y-159630989D01*
X459270258Y-159627000D01*
X459447742Y-159627000D01*
X459467796Y-159630989D01*
X459467796Y-159630989D01*
G37*
G36*
X456927796Y-159630989D02*
G01*
X457081812Y-159661624D01*
X457245784Y-159729544D01*
X457393354Y-159828147D01*
X457518853Y-159953646D01*
X457617456Y-160101216D01*
X457685376Y-160265188D01*
X457720000Y-160439259D01*
X457720000Y-160616741D01*
X457685376Y-160790812D01*
X457617456Y-160954784D01*
X457518853Y-161102354D01*
X457393354Y-161227853D01*
X457245784Y-161326456D01*
X457081812Y-161394376D01*
X456933341Y-161423908D01*
X456907742Y-161429000D01*
X456730258Y-161429000D01*
X456704659Y-161423908D01*
X456556188Y-161394376D01*
X456392216Y-161326456D01*
X456244646Y-161227853D01*
X456119147Y-161102354D01*
X456020544Y-160954784D01*
X455952624Y-160790812D01*
X455918000Y-160616741D01*
X455918000Y-160439259D01*
X455952624Y-160265188D01*
X456020544Y-160101216D01*
X456119147Y-159953646D01*
X456244646Y-159828147D01*
X456392216Y-159729544D01*
X456556188Y-159661624D01*
X456710204Y-159630989D01*
X456730258Y-159627000D01*
X456907742Y-159627000D01*
X456927796Y-159630989D01*
X456927796Y-159630989D01*
G37*
G36*
X454387796Y-159630989D02*
G01*
X454541812Y-159661624D01*
X454705784Y-159729544D01*
X454853354Y-159828147D01*
X454978853Y-159953646D01*
X455077456Y-160101216D01*
X455145376Y-160265188D01*
X455180000Y-160439259D01*
X455180000Y-160616741D01*
X455145376Y-160790812D01*
X455077456Y-160954784D01*
X454978853Y-161102354D01*
X454853354Y-161227853D01*
X454705784Y-161326456D01*
X454541812Y-161394376D01*
X454393341Y-161423908D01*
X454367742Y-161429000D01*
X454190258Y-161429000D01*
X454164659Y-161423908D01*
X454016188Y-161394376D01*
X453852216Y-161326456D01*
X453704646Y-161227853D01*
X453579147Y-161102354D01*
X453480544Y-160954784D01*
X453412624Y-160790812D01*
X453378000Y-160616741D01*
X453378000Y-160439259D01*
X453412624Y-160265188D01*
X453480544Y-160101216D01*
X453579147Y-159953646D01*
X453704646Y-159828147D01*
X453852216Y-159729544D01*
X454016188Y-159661624D01*
X454170204Y-159630989D01*
X454190258Y-159627000D01*
X454367742Y-159627000D01*
X454387796Y-159630989D01*
X454387796Y-159630989D01*
G37*
G36*
X451847796Y-159630989D02*
G01*
X452001812Y-159661624D01*
X452165784Y-159729544D01*
X452313354Y-159828147D01*
X452438853Y-159953646D01*
X452537456Y-160101216D01*
X452605376Y-160265188D01*
X452640000Y-160439259D01*
X452640000Y-160616741D01*
X452605376Y-160790812D01*
X452537456Y-160954784D01*
X452438853Y-161102354D01*
X452313354Y-161227853D01*
X452165784Y-161326456D01*
X452001812Y-161394376D01*
X451853341Y-161423908D01*
X451827742Y-161429000D01*
X451650258Y-161429000D01*
X451624659Y-161423908D01*
X451476188Y-161394376D01*
X451312216Y-161326456D01*
X451164646Y-161227853D01*
X451039147Y-161102354D01*
X450940544Y-160954784D01*
X450872624Y-160790812D01*
X450838000Y-160616741D01*
X450838000Y-160439259D01*
X450872624Y-160265188D01*
X450940544Y-160101216D01*
X451039147Y-159953646D01*
X451164646Y-159828147D01*
X451312216Y-159729544D01*
X451476188Y-159661624D01*
X451630204Y-159630989D01*
X451650258Y-159627000D01*
X451827742Y-159627000D01*
X451847796Y-159630989D01*
X451847796Y-159630989D01*
G37*
G36*
X449307796Y-159630989D02*
G01*
X449461812Y-159661624D01*
X449625784Y-159729544D01*
X449773354Y-159828147D01*
X449898853Y-159953646D01*
X449997456Y-160101216D01*
X450065376Y-160265188D01*
X450100000Y-160439259D01*
X450100000Y-160616741D01*
X450065376Y-160790812D01*
X449997456Y-160954784D01*
X449898853Y-161102354D01*
X449773354Y-161227853D01*
X449625784Y-161326456D01*
X449461812Y-161394376D01*
X449313341Y-161423908D01*
X449287742Y-161429000D01*
X449110258Y-161429000D01*
X449084659Y-161423908D01*
X448936188Y-161394376D01*
X448772216Y-161326456D01*
X448624646Y-161227853D01*
X448499147Y-161102354D01*
X448400544Y-160954784D01*
X448332624Y-160790812D01*
X448298000Y-160616741D01*
X448298000Y-160439259D01*
X448332624Y-160265188D01*
X448400544Y-160101216D01*
X448499147Y-159953646D01*
X448624646Y-159828147D01*
X448772216Y-159729544D01*
X448936188Y-159661624D01*
X449090204Y-159630989D01*
X449110258Y-159627000D01*
X449287742Y-159627000D01*
X449307796Y-159630989D01*
X449307796Y-159630989D01*
G37*
G36*
X439797600Y-159630989D02*
G01*
X439830652Y-159641015D01*
X439861103Y-159657292D01*
X439887799Y-159679201D01*
X439909708Y-159705897D01*
X439925985Y-159736348D01*
X439936011Y-159769400D01*
X439940000Y-159809903D01*
X439940000Y-161246097D01*
X439936011Y-161286600D01*
X439925985Y-161319652D01*
X439909708Y-161350103D01*
X439887799Y-161376799D01*
X439861103Y-161398708D01*
X439830652Y-161414985D01*
X439797600Y-161425011D01*
X439757097Y-161429000D01*
X438320903Y-161429000D01*
X438280400Y-161425011D01*
X438247348Y-161414985D01*
X438216897Y-161398708D01*
X438190201Y-161376799D01*
X438168292Y-161350103D01*
X438152015Y-161319652D01*
X438141989Y-161286600D01*
X438138000Y-161246097D01*
X438138000Y-159809903D01*
X438141989Y-159769400D01*
X438152015Y-159736348D01*
X438168292Y-159705897D01*
X438190201Y-159679201D01*
X438216897Y-159657292D01*
X438247348Y-159641015D01*
X438280400Y-159630989D01*
X438320903Y-159627000D01*
X439757097Y-159627000D01*
X439797600Y-159630989D01*
X439797600Y-159630989D01*
G37*
G36*
X444227796Y-159630989D02*
G01*
X444381812Y-159661624D01*
X444545784Y-159729544D01*
X444693354Y-159828147D01*
X444818853Y-159953646D01*
X444917456Y-160101216D01*
X444985376Y-160265188D01*
X445020000Y-160439259D01*
X445020000Y-160616741D01*
X444985376Y-160790812D01*
X444917456Y-160954784D01*
X444818853Y-161102354D01*
X444693354Y-161227853D01*
X444545784Y-161326456D01*
X444381812Y-161394376D01*
X444233341Y-161423908D01*
X444207742Y-161429000D01*
X444030258Y-161429000D01*
X444004659Y-161423908D01*
X443856188Y-161394376D01*
X443692216Y-161326456D01*
X443544646Y-161227853D01*
X443419147Y-161102354D01*
X443320544Y-160954784D01*
X443252624Y-160790812D01*
X443218000Y-160616741D01*
X443218000Y-160439259D01*
X443252624Y-160265188D01*
X443320544Y-160101216D01*
X443419147Y-159953646D01*
X443544646Y-159828147D01*
X443692216Y-159729544D01*
X443856188Y-159661624D01*
X444010204Y-159630989D01*
X444030258Y-159627000D01*
X444207742Y-159627000D01*
X444227796Y-159630989D01*
X444227796Y-159630989D01*
G37*
G36*
X446767796Y-159630989D02*
G01*
X446921812Y-159661624D01*
X447085784Y-159729544D01*
X447233354Y-159828147D01*
X447358853Y-159953646D01*
X447457456Y-160101216D01*
X447525376Y-160265188D01*
X447560000Y-160439259D01*
X447560000Y-160616741D01*
X447525376Y-160790812D01*
X447457456Y-160954784D01*
X447358853Y-161102354D01*
X447233354Y-161227853D01*
X447085784Y-161326456D01*
X446921812Y-161394376D01*
X446773341Y-161423908D01*
X446747742Y-161429000D01*
X446570258Y-161429000D01*
X446544659Y-161423908D01*
X446396188Y-161394376D01*
X446232216Y-161326456D01*
X446084646Y-161227853D01*
X445959147Y-161102354D01*
X445860544Y-160954784D01*
X445792624Y-160790812D01*
X445758000Y-160616741D01*
X445758000Y-160439259D01*
X445792624Y-160265188D01*
X445860544Y-160101216D01*
X445959147Y-159953646D01*
X446084646Y-159828147D01*
X446232216Y-159729544D01*
X446396188Y-159661624D01*
X446550204Y-159630989D01*
X446570258Y-159627000D01*
X446747742Y-159627000D01*
X446767796Y-159630989D01*
X446767796Y-159630989D01*
G37*
G36*
X488051000Y-160857000D02*
G01*
X486549000Y-160857000D01*
X486549000Y-158955000D01*
X488051000Y-158955000D01*
X488051000Y-160857000D01*
X488051000Y-160857000D01*
G37*
G36*
X491351000Y-160857000D02*
G01*
X489849000Y-160857000D01*
X489849000Y-158955000D01*
X491351000Y-158955000D01*
X491351000Y-160857000D01*
X491351000Y-160857000D01*
G37*
G36*
X73267000Y-159079000D02*
G01*
X71765000Y-159079000D01*
X71765000Y-157177000D01*
X73267000Y-157177000D01*
X73267000Y-159079000D01*
X73267000Y-159079000D01*
G37*
G36*
X69967000Y-159079000D02*
G01*
X68465000Y-159079000D01*
X68465000Y-157177000D01*
X69967000Y-157177000D01*
X69967000Y-159079000D01*
X69967000Y-159079000D01*
G37*
G36*
X468773000Y-157218000D02*
G01*
X467471000Y-157218000D01*
X467471000Y-156216000D01*
X468773000Y-156216000D01*
X468773000Y-157218000D01*
X468773000Y-157218000D01*
G37*
G36*
X268748000Y-157218000D02*
G01*
X267446000Y-157218000D01*
X267446000Y-156216000D01*
X268748000Y-156216000D01*
X268748000Y-157218000D01*
X268748000Y-157218000D01*
G37*
G36*
X235474000Y-157218000D02*
G01*
X234172000Y-157218000D01*
X234172000Y-156216000D01*
X235474000Y-156216000D01*
X235474000Y-157218000D01*
X235474000Y-157218000D01*
G37*
G36*
X135525000Y-157218000D02*
G01*
X134223000Y-157218000D01*
X134223000Y-156216000D01*
X135525000Y-156216000D01*
X135525000Y-157218000D01*
X135525000Y-157218000D01*
G37*
G36*
X168799000Y-157218000D02*
G01*
X167497000Y-157218000D01*
X167497000Y-156216000D01*
X168799000Y-156216000D01*
X168799000Y-157218000D01*
X168799000Y-157218000D01*
G37*
G36*
X202073000Y-157218000D02*
G01*
X200771000Y-157218000D01*
X200771000Y-156216000D01*
X202073000Y-156216000D01*
X202073000Y-157218000D01*
X202073000Y-157218000D01*
G37*
G36*
X302149000Y-157218000D02*
G01*
X300847000Y-157218000D01*
X300847000Y-156216000D01*
X302149000Y-156216000D01*
X302149000Y-157218000D01*
X302149000Y-157218000D01*
G37*
G36*
X335423000Y-157218000D02*
G01*
X334121000Y-157218000D01*
X334121000Y-156216000D01*
X335423000Y-156216000D01*
X335423000Y-157218000D01*
X335423000Y-157218000D01*
G37*
G36*
X368697000Y-157218000D02*
G01*
X367395000Y-157218000D01*
X367395000Y-156216000D01*
X368697000Y-156216000D01*
X368697000Y-157218000D01*
X368697000Y-157218000D01*
G37*
G36*
X402098000Y-157218000D02*
G01*
X400796000Y-157218000D01*
X400796000Y-156216000D01*
X402098000Y-156216000D01*
X402098000Y-157218000D01*
X402098000Y-157218000D01*
G37*
G36*
X435499000Y-157218000D02*
G01*
X434197000Y-157218000D01*
X434197000Y-156216000D01*
X435499000Y-156216000D01*
X435499000Y-157218000D01*
X435499000Y-157218000D01*
G37*
G36*
X102124000Y-157218000D02*
G01*
X100822000Y-157218000D01*
X100822000Y-156216000D01*
X102124000Y-156216000D01*
X102124000Y-157218000D01*
X102124000Y-157218000D01*
G37*
G36*
X488758591Y-153402085D02*
G01*
X488792569Y-153412393D01*
X488823890Y-153429134D01*
X488851339Y-153451661D01*
X488873866Y-153479110D01*
X488890607Y-153510431D01*
X488900915Y-153544409D01*
X488905000Y-153585890D01*
X488905000Y-154262110D01*
X488900915Y-154303591D01*
X488890607Y-154337569D01*
X488873866Y-154368890D01*
X488851339Y-154396339D01*
X488823890Y-154418866D01*
X488792569Y-154435607D01*
X488758591Y-154445915D01*
X488717110Y-154450000D01*
X488115890Y-154450000D01*
X488074409Y-154445915D01*
X488040431Y-154435607D01*
X488009110Y-154418866D01*
X487981661Y-154396339D01*
X487959134Y-154368890D01*
X487942393Y-154337569D01*
X487932085Y-154303591D01*
X487928000Y-154262110D01*
X487928000Y-153585890D01*
X487932085Y-153544409D01*
X487942393Y-153510431D01*
X487959134Y-153479110D01*
X487981661Y-153451661D01*
X488009110Y-153429134D01*
X488040431Y-153412393D01*
X488074409Y-153402085D01*
X488115890Y-153398000D01*
X488717110Y-153398000D01*
X488758591Y-153402085D01*
X488758591Y-153402085D01*
G37*
G36*
X490333591Y-153402085D02*
G01*
X490367569Y-153412393D01*
X490398890Y-153429134D01*
X490426339Y-153451661D01*
X490448866Y-153479110D01*
X490465607Y-153510431D01*
X490475915Y-153544409D01*
X490480000Y-153585890D01*
X490480000Y-154262110D01*
X490475915Y-154303591D01*
X490465607Y-154337569D01*
X490448866Y-154368890D01*
X490426339Y-154396339D01*
X490398890Y-154418866D01*
X490367569Y-154435607D01*
X490333591Y-154445915D01*
X490292110Y-154450000D01*
X489690890Y-154450000D01*
X489649409Y-154445915D01*
X489615431Y-154435607D01*
X489584110Y-154418866D01*
X489556661Y-154396339D01*
X489534134Y-154368890D01*
X489517393Y-154337569D01*
X489507085Y-154303591D01*
X489503000Y-154262110D01*
X489503000Y-153585890D01*
X489507085Y-153544409D01*
X489517393Y-153510431D01*
X489534134Y-153479110D01*
X489556661Y-153451661D01*
X489584110Y-153429134D01*
X489615431Y-153412393D01*
X489649409Y-153402085D01*
X489690890Y-153398000D01*
X490292110Y-153398000D01*
X490333591Y-153402085D01*
X490333591Y-153402085D01*
G37*
G36*
X302149000Y-153918000D02*
G01*
X300847000Y-153918000D01*
X300847000Y-152916000D01*
X302149000Y-152916000D01*
X302149000Y-153918000D01*
X302149000Y-153918000D01*
G37*
G36*
X468773000Y-153918000D02*
G01*
X467471000Y-153918000D01*
X467471000Y-152916000D01*
X468773000Y-152916000D01*
X468773000Y-153918000D01*
X468773000Y-153918000D01*
G37*
G36*
X368697000Y-153918000D02*
G01*
X367395000Y-153918000D01*
X367395000Y-152916000D01*
X368697000Y-152916000D01*
X368697000Y-153918000D01*
X368697000Y-153918000D01*
G37*
G36*
X402098000Y-153918000D02*
G01*
X400796000Y-153918000D01*
X400796000Y-152916000D01*
X402098000Y-152916000D01*
X402098000Y-153918000D01*
X402098000Y-153918000D01*
G37*
G36*
X335423000Y-153918000D02*
G01*
X334121000Y-153918000D01*
X334121000Y-152916000D01*
X335423000Y-152916000D01*
X335423000Y-153918000D01*
X335423000Y-153918000D01*
G37*
G36*
X268748000Y-153918000D02*
G01*
X267446000Y-153918000D01*
X267446000Y-152916000D01*
X268748000Y-152916000D01*
X268748000Y-153918000D01*
X268748000Y-153918000D01*
G37*
G36*
X235474000Y-153918000D02*
G01*
X234172000Y-153918000D01*
X234172000Y-152916000D01*
X235474000Y-152916000D01*
X235474000Y-153918000D01*
X235474000Y-153918000D01*
G37*
G36*
X102124000Y-153918000D02*
G01*
X100822000Y-153918000D01*
X100822000Y-152916000D01*
X102124000Y-152916000D01*
X102124000Y-153918000D01*
X102124000Y-153918000D01*
G37*
G36*
X202073000Y-153918000D02*
G01*
X200771000Y-153918000D01*
X200771000Y-152916000D01*
X202073000Y-152916000D01*
X202073000Y-153918000D01*
X202073000Y-153918000D01*
G37*
G36*
X135525000Y-153918000D02*
G01*
X134223000Y-153918000D01*
X134223000Y-152916000D01*
X135525000Y-152916000D01*
X135525000Y-153918000D01*
X135525000Y-153918000D01*
G37*
G36*
X168799000Y-153918000D02*
G01*
X167497000Y-153918000D01*
X167497000Y-152916000D01*
X168799000Y-152916000D01*
X168799000Y-153918000D01*
X168799000Y-153918000D01*
G37*
G36*
X435499000Y-153918000D02*
G01*
X434197000Y-153918000D01*
X434197000Y-152916000D01*
X435499000Y-152916000D01*
X435499000Y-153918000D01*
X435499000Y-153918000D01*
G37*
G36*
X363562474Y-149036684D02*
G01*
X363780474Y-149126983D01*
X363934623Y-149190833D01*
X364269548Y-149414623D01*
X364554377Y-149699452D01*
X364778167Y-150034377D01*
X364810562Y-150112586D01*
X364932316Y-150406526D01*
X365010900Y-150801594D01*
X365010900Y-151204406D01*
X364932316Y-151599474D01*
X364881451Y-151722272D01*
X364778167Y-151971623D01*
X364554377Y-152306548D01*
X364269548Y-152591377D01*
X363934623Y-152815167D01*
X363780474Y-152879017D01*
X363562474Y-152969316D01*
X363167406Y-153047900D01*
X362764594Y-153047900D01*
X362369526Y-152969316D01*
X362151526Y-152879017D01*
X361997377Y-152815167D01*
X361662452Y-152591377D01*
X361377623Y-152306548D01*
X361153833Y-151971623D01*
X361050549Y-151722272D01*
X360999684Y-151599474D01*
X360921100Y-151204406D01*
X360921100Y-150801594D01*
X360999684Y-150406526D01*
X361121438Y-150112586D01*
X361153833Y-150034377D01*
X361377623Y-149699452D01*
X361662452Y-149414623D01*
X361997377Y-149190833D01*
X362151526Y-149126983D01*
X362369526Y-149036684D01*
X362764594Y-148958100D01*
X363167406Y-148958100D01*
X363562474Y-149036684D01*
X363562474Y-149036684D01*
G37*
G36*
X330288474Y-149036684D02*
G01*
X330506474Y-149126983D01*
X330660623Y-149190833D01*
X330995548Y-149414623D01*
X331280377Y-149699452D01*
X331504167Y-150034377D01*
X331536562Y-150112586D01*
X331658316Y-150406526D01*
X331736900Y-150801594D01*
X331736900Y-151204406D01*
X331658316Y-151599474D01*
X331607451Y-151722272D01*
X331504167Y-151971623D01*
X331280377Y-152306548D01*
X330995548Y-152591377D01*
X330660623Y-152815167D01*
X330506474Y-152879017D01*
X330288474Y-152969316D01*
X329893406Y-153047900D01*
X329490594Y-153047900D01*
X329095526Y-152969316D01*
X328877526Y-152879017D01*
X328723377Y-152815167D01*
X328388452Y-152591377D01*
X328103623Y-152306548D01*
X327879833Y-151971623D01*
X327776549Y-151722272D01*
X327725684Y-151599474D01*
X327647100Y-151204406D01*
X327647100Y-150801594D01*
X327725684Y-150406526D01*
X327847438Y-150112586D01*
X327879833Y-150034377D01*
X328103623Y-149699452D01*
X328388452Y-149414623D01*
X328723377Y-149190833D01*
X328877526Y-149126983D01*
X329095526Y-149036684D01*
X329490594Y-148958100D01*
X329893406Y-148958100D01*
X330288474Y-149036684D01*
X330288474Y-149036684D01*
G37*
G36*
X396963474Y-149036684D02*
G01*
X397181474Y-149126983D01*
X397335623Y-149190833D01*
X397670548Y-149414623D01*
X397955377Y-149699452D01*
X398179167Y-150034377D01*
X398211562Y-150112586D01*
X398333316Y-150406526D01*
X398411900Y-150801594D01*
X398411900Y-151204406D01*
X398333316Y-151599474D01*
X398282451Y-151722272D01*
X398179167Y-151971623D01*
X397955377Y-152306548D01*
X397670548Y-152591377D01*
X397335623Y-152815167D01*
X397181474Y-152879017D01*
X396963474Y-152969316D01*
X396568406Y-153047900D01*
X396165594Y-153047900D01*
X395770526Y-152969316D01*
X395552526Y-152879017D01*
X395398377Y-152815167D01*
X395063452Y-152591377D01*
X394778623Y-152306548D01*
X394554833Y-151971623D01*
X394451549Y-151722272D01*
X394400684Y-151599474D01*
X394322100Y-151204406D01*
X394322100Y-150801594D01*
X394400684Y-150406526D01*
X394522438Y-150112586D01*
X394554833Y-150034377D01*
X394778623Y-149699452D01*
X395063452Y-149414623D01*
X395398377Y-149190833D01*
X395552526Y-149126983D01*
X395770526Y-149036684D01*
X396165594Y-148958100D01*
X396568406Y-148958100D01*
X396963474Y-149036684D01*
X396963474Y-149036684D01*
G37*
G36*
X430364474Y-149036684D02*
G01*
X430582474Y-149126983D01*
X430736623Y-149190833D01*
X431071548Y-149414623D01*
X431356377Y-149699452D01*
X431580167Y-150034377D01*
X431612562Y-150112586D01*
X431734316Y-150406526D01*
X431812900Y-150801594D01*
X431812900Y-151204406D01*
X431734316Y-151599474D01*
X431683451Y-151722272D01*
X431580167Y-151971623D01*
X431356377Y-152306548D01*
X431071548Y-152591377D01*
X430736623Y-152815167D01*
X430582474Y-152879017D01*
X430364474Y-152969316D01*
X429969406Y-153047900D01*
X429566594Y-153047900D01*
X429171526Y-152969316D01*
X428953526Y-152879017D01*
X428799377Y-152815167D01*
X428464452Y-152591377D01*
X428179623Y-152306548D01*
X427955833Y-151971623D01*
X427852549Y-151722272D01*
X427801684Y-151599474D01*
X427723100Y-151204406D01*
X427723100Y-150801594D01*
X427801684Y-150406526D01*
X427923438Y-150112586D01*
X427955833Y-150034377D01*
X428179623Y-149699452D01*
X428464452Y-149414623D01*
X428799377Y-149190833D01*
X428953526Y-149126983D01*
X429171526Y-149036684D01*
X429566594Y-148958100D01*
X429969406Y-148958100D01*
X430364474Y-149036684D01*
X430364474Y-149036684D01*
G37*
G36*
X297014474Y-149036684D02*
G01*
X297232474Y-149126983D01*
X297386623Y-149190833D01*
X297721548Y-149414623D01*
X298006377Y-149699452D01*
X298230167Y-150034377D01*
X298262562Y-150112586D01*
X298384316Y-150406526D01*
X298462900Y-150801594D01*
X298462900Y-151204406D01*
X298384316Y-151599474D01*
X298333451Y-151722272D01*
X298230167Y-151971623D01*
X298006377Y-152306548D01*
X297721548Y-152591377D01*
X297386623Y-152815167D01*
X297232474Y-152879017D01*
X297014474Y-152969316D01*
X296619406Y-153047900D01*
X296216594Y-153047900D01*
X295821526Y-152969316D01*
X295603526Y-152879017D01*
X295449377Y-152815167D01*
X295114452Y-152591377D01*
X294829623Y-152306548D01*
X294605833Y-151971623D01*
X294502549Y-151722272D01*
X294451684Y-151599474D01*
X294373100Y-151204406D01*
X294373100Y-150801594D01*
X294451684Y-150406526D01*
X294573438Y-150112586D01*
X294605833Y-150034377D01*
X294829623Y-149699452D01*
X295114452Y-149414623D01*
X295449377Y-149190833D01*
X295603526Y-149126983D01*
X295821526Y-149036684D01*
X296216594Y-148958100D01*
X296619406Y-148958100D01*
X297014474Y-149036684D01*
X297014474Y-149036684D01*
G37*
G36*
X263613474Y-149036684D02*
G01*
X263831474Y-149126983D01*
X263985623Y-149190833D01*
X264320548Y-149414623D01*
X264605377Y-149699452D01*
X264829167Y-150034377D01*
X264861562Y-150112586D01*
X264983316Y-150406526D01*
X265061900Y-150801594D01*
X265061900Y-151204406D01*
X264983316Y-151599474D01*
X264932451Y-151722272D01*
X264829167Y-151971623D01*
X264605377Y-152306548D01*
X264320548Y-152591377D01*
X263985623Y-152815167D01*
X263831474Y-152879017D01*
X263613474Y-152969316D01*
X263218406Y-153047900D01*
X262815594Y-153047900D01*
X262420526Y-152969316D01*
X262202526Y-152879017D01*
X262048377Y-152815167D01*
X261713452Y-152591377D01*
X261428623Y-152306548D01*
X261204833Y-151971623D01*
X261101549Y-151722272D01*
X261050684Y-151599474D01*
X260972100Y-151204406D01*
X260972100Y-150801594D01*
X261050684Y-150406526D01*
X261172438Y-150112586D01*
X261204833Y-150034377D01*
X261428623Y-149699452D01*
X261713452Y-149414623D01*
X262048377Y-149190833D01*
X262202526Y-149126983D01*
X262420526Y-149036684D01*
X262815594Y-148958100D01*
X263218406Y-148958100D01*
X263613474Y-149036684D01*
X263613474Y-149036684D01*
G37*
G36*
X230339474Y-149036684D02*
G01*
X230557474Y-149126983D01*
X230711623Y-149190833D01*
X231046548Y-149414623D01*
X231331377Y-149699452D01*
X231555167Y-150034377D01*
X231587562Y-150112586D01*
X231709316Y-150406526D01*
X231787900Y-150801594D01*
X231787900Y-151204406D01*
X231709316Y-151599474D01*
X231658451Y-151722272D01*
X231555167Y-151971623D01*
X231331377Y-152306548D01*
X231046548Y-152591377D01*
X230711623Y-152815167D01*
X230557474Y-152879017D01*
X230339474Y-152969316D01*
X229944406Y-153047900D01*
X229541594Y-153047900D01*
X229146526Y-152969316D01*
X228928526Y-152879017D01*
X228774377Y-152815167D01*
X228439452Y-152591377D01*
X228154623Y-152306548D01*
X227930833Y-151971623D01*
X227827549Y-151722272D01*
X227776684Y-151599474D01*
X227698100Y-151204406D01*
X227698100Y-150801594D01*
X227776684Y-150406526D01*
X227898438Y-150112586D01*
X227930833Y-150034377D01*
X228154623Y-149699452D01*
X228439452Y-149414623D01*
X228774377Y-149190833D01*
X228928526Y-149126983D01*
X229146526Y-149036684D01*
X229541594Y-148958100D01*
X229944406Y-148958100D01*
X230339474Y-149036684D01*
X230339474Y-149036684D01*
G37*
G36*
X96989474Y-149036684D02*
G01*
X97207474Y-149126983D01*
X97361623Y-149190833D01*
X97696548Y-149414623D01*
X97981377Y-149699452D01*
X98205167Y-150034377D01*
X98237562Y-150112586D01*
X98359316Y-150406526D01*
X98437900Y-150801594D01*
X98437900Y-151204406D01*
X98359316Y-151599474D01*
X98308451Y-151722272D01*
X98205167Y-151971623D01*
X97981377Y-152306548D01*
X97696548Y-152591377D01*
X97361623Y-152815167D01*
X97207474Y-152879017D01*
X96989474Y-152969316D01*
X96594406Y-153047900D01*
X96191594Y-153047900D01*
X95796526Y-152969316D01*
X95578526Y-152879017D01*
X95424377Y-152815167D01*
X95089452Y-152591377D01*
X94804623Y-152306548D01*
X94580833Y-151971623D01*
X94477549Y-151722272D01*
X94426684Y-151599474D01*
X94348100Y-151204406D01*
X94348100Y-150801594D01*
X94426684Y-150406526D01*
X94548438Y-150112586D01*
X94580833Y-150034377D01*
X94804623Y-149699452D01*
X95089452Y-149414623D01*
X95424377Y-149190833D01*
X95578526Y-149126983D01*
X95796526Y-149036684D01*
X96191594Y-148958100D01*
X96594406Y-148958100D01*
X96989474Y-149036684D01*
X96989474Y-149036684D01*
G37*
G36*
X463638474Y-149036684D02*
G01*
X463856474Y-149126983D01*
X464010623Y-149190833D01*
X464345548Y-149414623D01*
X464630377Y-149699452D01*
X464854167Y-150034377D01*
X464886562Y-150112586D01*
X465008316Y-150406526D01*
X465086900Y-150801594D01*
X465086900Y-151204406D01*
X465008316Y-151599474D01*
X464957451Y-151722272D01*
X464854167Y-151971623D01*
X464630377Y-152306548D01*
X464345548Y-152591377D01*
X464010623Y-152815167D01*
X463856474Y-152879017D01*
X463638474Y-152969316D01*
X463243406Y-153047900D01*
X462840594Y-153047900D01*
X462445526Y-152969316D01*
X462227526Y-152879017D01*
X462073377Y-152815167D01*
X461738452Y-152591377D01*
X461453623Y-152306548D01*
X461229833Y-151971623D01*
X461126549Y-151722272D01*
X461075684Y-151599474D01*
X460997100Y-151204406D01*
X460997100Y-150801594D01*
X461075684Y-150406526D01*
X461197438Y-150112586D01*
X461229833Y-150034377D01*
X461453623Y-149699452D01*
X461738452Y-149414623D01*
X462073377Y-149190833D01*
X462227526Y-149126983D01*
X462445526Y-149036684D01*
X462840594Y-148958100D01*
X463243406Y-148958100D01*
X463638474Y-149036684D01*
X463638474Y-149036684D01*
G37*
G36*
X196938474Y-149036684D02*
G01*
X197156474Y-149126983D01*
X197310623Y-149190833D01*
X197645548Y-149414623D01*
X197930377Y-149699452D01*
X198154167Y-150034377D01*
X198186562Y-150112586D01*
X198308316Y-150406526D01*
X198386900Y-150801594D01*
X198386900Y-151204406D01*
X198308316Y-151599474D01*
X198257451Y-151722272D01*
X198154167Y-151971623D01*
X197930377Y-152306548D01*
X197645548Y-152591377D01*
X197310623Y-152815167D01*
X197156474Y-152879017D01*
X196938474Y-152969316D01*
X196543406Y-153047900D01*
X196140594Y-153047900D01*
X195745526Y-152969316D01*
X195527526Y-152879017D01*
X195373377Y-152815167D01*
X195038452Y-152591377D01*
X194753623Y-152306548D01*
X194529833Y-151971623D01*
X194426549Y-151722272D01*
X194375684Y-151599474D01*
X194297100Y-151204406D01*
X194297100Y-150801594D01*
X194375684Y-150406526D01*
X194497438Y-150112586D01*
X194529833Y-150034377D01*
X194753623Y-149699452D01*
X195038452Y-149414623D01*
X195373377Y-149190833D01*
X195527526Y-149126983D01*
X195745526Y-149036684D01*
X196140594Y-148958100D01*
X196543406Y-148958100D01*
X196938474Y-149036684D01*
X196938474Y-149036684D01*
G37*
G36*
X130390474Y-149036684D02*
G01*
X130608474Y-149126983D01*
X130762623Y-149190833D01*
X131097548Y-149414623D01*
X131382377Y-149699452D01*
X131606167Y-150034377D01*
X131638562Y-150112586D01*
X131760316Y-150406526D01*
X131838900Y-150801594D01*
X131838900Y-151204406D01*
X131760316Y-151599474D01*
X131709451Y-151722272D01*
X131606167Y-151971623D01*
X131382377Y-152306548D01*
X131097548Y-152591377D01*
X130762623Y-152815167D01*
X130608474Y-152879017D01*
X130390474Y-152969316D01*
X129995406Y-153047900D01*
X129592594Y-153047900D01*
X129197526Y-152969316D01*
X128979526Y-152879017D01*
X128825377Y-152815167D01*
X128490452Y-152591377D01*
X128205623Y-152306548D01*
X127981833Y-151971623D01*
X127878549Y-151722272D01*
X127827684Y-151599474D01*
X127749100Y-151204406D01*
X127749100Y-150801594D01*
X127827684Y-150406526D01*
X127949438Y-150112586D01*
X127981833Y-150034377D01*
X128205623Y-149699452D01*
X128490452Y-149414623D01*
X128825377Y-149190833D01*
X128979526Y-149126983D01*
X129197526Y-149036684D01*
X129592594Y-148958100D01*
X129995406Y-148958100D01*
X130390474Y-149036684D01*
X130390474Y-149036684D01*
G37*
G36*
X163664474Y-149036684D02*
G01*
X163882474Y-149126983D01*
X164036623Y-149190833D01*
X164371548Y-149414623D01*
X164656377Y-149699452D01*
X164880167Y-150034377D01*
X164912562Y-150112586D01*
X165034316Y-150406526D01*
X165112900Y-150801594D01*
X165112900Y-151204406D01*
X165034316Y-151599474D01*
X164983451Y-151722272D01*
X164880167Y-151971623D01*
X164656377Y-152306548D01*
X164371548Y-152591377D01*
X164036623Y-152815167D01*
X163882474Y-152879017D01*
X163664474Y-152969316D01*
X163269406Y-153047900D01*
X162866594Y-153047900D01*
X162471526Y-152969316D01*
X162253526Y-152879017D01*
X162099377Y-152815167D01*
X161764452Y-152591377D01*
X161479623Y-152306548D01*
X161255833Y-151971623D01*
X161152549Y-151722272D01*
X161101684Y-151599474D01*
X161023100Y-151204406D01*
X161023100Y-150801594D01*
X161101684Y-150406526D01*
X161223438Y-150112586D01*
X161255833Y-150034377D01*
X161479623Y-149699452D01*
X161764452Y-149414623D01*
X162099377Y-149190833D01*
X162253526Y-149126983D01*
X162471526Y-149036684D01*
X162866594Y-148958100D01*
X163269406Y-148958100D01*
X163664474Y-149036684D01*
X163664474Y-149036684D01*
G37*
G36*
X258207104Y-150112585D02*
G01*
X258375626Y-150182389D01*
X258527291Y-150283728D01*
X258656272Y-150412709D01*
X258757611Y-150564374D01*
X258827415Y-150732896D01*
X258863000Y-150911797D01*
X258863000Y-151094203D01*
X258827415Y-151273104D01*
X258757611Y-151441626D01*
X258656272Y-151593291D01*
X258527291Y-151722272D01*
X258375626Y-151823611D01*
X258207104Y-151893415D01*
X258028203Y-151929000D01*
X257845797Y-151929000D01*
X257666896Y-151893415D01*
X257498374Y-151823611D01*
X257346709Y-151722272D01*
X257217728Y-151593291D01*
X257116389Y-151441626D01*
X257046585Y-151273104D01*
X257011000Y-151094203D01*
X257011000Y-150911797D01*
X257046585Y-150732896D01*
X257116389Y-150564374D01*
X257217728Y-150412709D01*
X257346709Y-150283728D01*
X257498374Y-150182389D01*
X257666896Y-150112585D01*
X257845797Y-150077000D01*
X258028203Y-150077000D01*
X258207104Y-150112585D01*
X258207104Y-150112585D01*
G37*
G36*
X435118104Y-150112585D02*
G01*
X435286626Y-150182389D01*
X435438291Y-150283728D01*
X435567272Y-150412709D01*
X435668611Y-150564374D01*
X435738415Y-150732896D01*
X435774000Y-150911797D01*
X435774000Y-151094203D01*
X435738415Y-151273104D01*
X435668611Y-151441626D01*
X435567272Y-151593291D01*
X435438291Y-151722272D01*
X435286626Y-151823611D01*
X435118104Y-151893415D01*
X434939203Y-151929000D01*
X434756797Y-151929000D01*
X434577896Y-151893415D01*
X434409374Y-151823611D01*
X434257709Y-151722272D01*
X434128728Y-151593291D01*
X434027389Y-151441626D01*
X433957585Y-151273104D01*
X433922000Y-151094203D01*
X433922000Y-150911797D01*
X433957585Y-150732896D01*
X434027389Y-150564374D01*
X434128728Y-150412709D01*
X434257709Y-150283728D01*
X434409374Y-150182389D01*
X434577896Y-150112585D01*
X434756797Y-150077000D01*
X434939203Y-150077000D01*
X435118104Y-150112585D01*
X435118104Y-150112585D01*
G37*
G36*
X424958104Y-150112585D02*
G01*
X425126626Y-150182389D01*
X425278291Y-150283728D01*
X425407272Y-150412709D01*
X425508611Y-150564374D01*
X425578415Y-150732896D01*
X425614000Y-150911797D01*
X425614000Y-151094203D01*
X425578415Y-151273104D01*
X425508611Y-151441626D01*
X425407272Y-151593291D01*
X425278291Y-151722272D01*
X425126626Y-151823611D01*
X424958104Y-151893415D01*
X424779203Y-151929000D01*
X424596797Y-151929000D01*
X424417896Y-151893415D01*
X424249374Y-151823611D01*
X424097709Y-151722272D01*
X423968728Y-151593291D01*
X423867389Y-151441626D01*
X423797585Y-151273104D01*
X423762000Y-151094203D01*
X423762000Y-150911797D01*
X423797585Y-150732896D01*
X423867389Y-150564374D01*
X423968728Y-150412709D01*
X424097709Y-150283728D01*
X424249374Y-150182389D01*
X424417896Y-150112585D01*
X424596797Y-150077000D01*
X424779203Y-150077000D01*
X424958104Y-150112585D01*
X424958104Y-150112585D01*
G37*
G36*
X401717104Y-150112585D02*
G01*
X401885626Y-150182389D01*
X402037291Y-150283728D01*
X402166272Y-150412709D01*
X402267611Y-150564374D01*
X402337415Y-150732896D01*
X402373000Y-150911797D01*
X402373000Y-151094203D01*
X402337415Y-151273104D01*
X402267611Y-151441626D01*
X402166272Y-151593291D01*
X402037291Y-151722272D01*
X401885626Y-151823611D01*
X401717104Y-151893415D01*
X401538203Y-151929000D01*
X401355797Y-151929000D01*
X401176896Y-151893415D01*
X401008374Y-151823611D01*
X400856709Y-151722272D01*
X400727728Y-151593291D01*
X400626389Y-151441626D01*
X400556585Y-151273104D01*
X400521000Y-151094203D01*
X400521000Y-150911797D01*
X400556585Y-150732896D01*
X400626389Y-150564374D01*
X400727728Y-150412709D01*
X400856709Y-150283728D01*
X401008374Y-150182389D01*
X401176896Y-150112585D01*
X401355797Y-150077000D01*
X401538203Y-150077000D01*
X401717104Y-150112585D01*
X401717104Y-150112585D01*
G37*
G36*
X391557104Y-150112585D02*
G01*
X391725626Y-150182389D01*
X391877291Y-150283728D01*
X392006272Y-150412709D01*
X392107611Y-150564374D01*
X392177415Y-150732896D01*
X392213000Y-150911797D01*
X392213000Y-151094203D01*
X392177415Y-151273104D01*
X392107611Y-151441626D01*
X392006272Y-151593291D01*
X391877291Y-151722272D01*
X391725626Y-151823611D01*
X391557104Y-151893415D01*
X391378203Y-151929000D01*
X391195797Y-151929000D01*
X391016896Y-151893415D01*
X390848374Y-151823611D01*
X390696709Y-151722272D01*
X390567728Y-151593291D01*
X390466389Y-151441626D01*
X390396585Y-151273104D01*
X390361000Y-151094203D01*
X390361000Y-150911797D01*
X390396585Y-150732896D01*
X390466389Y-150564374D01*
X390567728Y-150412709D01*
X390696709Y-150283728D01*
X390848374Y-150182389D01*
X391016896Y-150112585D01*
X391195797Y-150077000D01*
X391378203Y-150077000D01*
X391557104Y-150112585D01*
X391557104Y-150112585D01*
G37*
G36*
X368316104Y-150112585D02*
G01*
X368484626Y-150182389D01*
X368636291Y-150283728D01*
X368765272Y-150412709D01*
X368866611Y-150564374D01*
X368936415Y-150732896D01*
X368972000Y-150911797D01*
X368972000Y-151094203D01*
X368936415Y-151273104D01*
X368866611Y-151441626D01*
X368765272Y-151593291D01*
X368636291Y-151722272D01*
X368484626Y-151823611D01*
X368316104Y-151893415D01*
X368137203Y-151929000D01*
X367954797Y-151929000D01*
X367775896Y-151893415D01*
X367607374Y-151823611D01*
X367455709Y-151722272D01*
X367326728Y-151593291D01*
X367225389Y-151441626D01*
X367155585Y-151273104D01*
X367120000Y-151094203D01*
X367120000Y-150911797D01*
X367155585Y-150732896D01*
X367225389Y-150564374D01*
X367326728Y-150412709D01*
X367455709Y-150283728D01*
X367607374Y-150182389D01*
X367775896Y-150112585D01*
X367954797Y-150077000D01*
X368137203Y-150077000D01*
X368316104Y-150112585D01*
X368316104Y-150112585D01*
G37*
G36*
X358156104Y-150112585D02*
G01*
X358324626Y-150182389D01*
X358476291Y-150283728D01*
X358605272Y-150412709D01*
X358706611Y-150564374D01*
X358776415Y-150732896D01*
X358812000Y-150911797D01*
X358812000Y-151094203D01*
X358776415Y-151273104D01*
X358706611Y-151441626D01*
X358605272Y-151593291D01*
X358476291Y-151722272D01*
X358324626Y-151823611D01*
X358156104Y-151893415D01*
X357977203Y-151929000D01*
X357794797Y-151929000D01*
X357615896Y-151893415D01*
X357447374Y-151823611D01*
X357295709Y-151722272D01*
X357166728Y-151593291D01*
X357065389Y-151441626D01*
X356995585Y-151273104D01*
X356960000Y-151094203D01*
X356960000Y-150911797D01*
X356995585Y-150732896D01*
X357065389Y-150564374D01*
X357166728Y-150412709D01*
X357295709Y-150283728D01*
X357447374Y-150182389D01*
X357615896Y-150112585D01*
X357794797Y-150077000D01*
X357977203Y-150077000D01*
X358156104Y-150112585D01*
X358156104Y-150112585D01*
G37*
G36*
X335042104Y-150112585D02*
G01*
X335210626Y-150182389D01*
X335362291Y-150283728D01*
X335491272Y-150412709D01*
X335592611Y-150564374D01*
X335662415Y-150732896D01*
X335698000Y-150911797D01*
X335698000Y-151094203D01*
X335662415Y-151273104D01*
X335592611Y-151441626D01*
X335491272Y-151593291D01*
X335362291Y-151722272D01*
X335210626Y-151823611D01*
X335042104Y-151893415D01*
X334863203Y-151929000D01*
X334680797Y-151929000D01*
X334501896Y-151893415D01*
X334333374Y-151823611D01*
X334181709Y-151722272D01*
X334052728Y-151593291D01*
X333951389Y-151441626D01*
X333881585Y-151273104D01*
X333846000Y-151094203D01*
X333846000Y-150911797D01*
X333881585Y-150732896D01*
X333951389Y-150564374D01*
X334052728Y-150412709D01*
X334181709Y-150283728D01*
X334333374Y-150182389D01*
X334501896Y-150112585D01*
X334680797Y-150077000D01*
X334863203Y-150077000D01*
X335042104Y-150112585D01*
X335042104Y-150112585D01*
G37*
G36*
X301768104Y-150112585D02*
G01*
X301936626Y-150182389D01*
X302088291Y-150283728D01*
X302217272Y-150412709D01*
X302318611Y-150564374D01*
X302388415Y-150732896D01*
X302424000Y-150911797D01*
X302424000Y-151094203D01*
X302388415Y-151273104D01*
X302318611Y-151441626D01*
X302217272Y-151593291D01*
X302088291Y-151722272D01*
X301936626Y-151823611D01*
X301768104Y-151893415D01*
X301589203Y-151929000D01*
X301406797Y-151929000D01*
X301227896Y-151893415D01*
X301059374Y-151823611D01*
X300907709Y-151722272D01*
X300778728Y-151593291D01*
X300677389Y-151441626D01*
X300607585Y-151273104D01*
X300572000Y-151094203D01*
X300572000Y-150911797D01*
X300607585Y-150732896D01*
X300677389Y-150564374D01*
X300778728Y-150412709D01*
X300907709Y-150283728D01*
X301059374Y-150182389D01*
X301227896Y-150112585D01*
X301406797Y-150077000D01*
X301589203Y-150077000D01*
X301768104Y-150112585D01*
X301768104Y-150112585D01*
G37*
G36*
X291608104Y-150112585D02*
G01*
X291776626Y-150182389D01*
X291928291Y-150283728D01*
X292057272Y-150412709D01*
X292158611Y-150564374D01*
X292228415Y-150732896D01*
X292264000Y-150911797D01*
X292264000Y-151094203D01*
X292228415Y-151273104D01*
X292158611Y-151441626D01*
X292057272Y-151593291D01*
X291928291Y-151722272D01*
X291776626Y-151823611D01*
X291608104Y-151893415D01*
X291429203Y-151929000D01*
X291246797Y-151929000D01*
X291067896Y-151893415D01*
X290899374Y-151823611D01*
X290747709Y-151722272D01*
X290618728Y-151593291D01*
X290517389Y-151441626D01*
X290447585Y-151273104D01*
X290412000Y-151094203D01*
X290412000Y-150911797D01*
X290447585Y-150732896D01*
X290517389Y-150564374D01*
X290618728Y-150412709D01*
X290747709Y-150283728D01*
X290899374Y-150182389D01*
X291067896Y-150112585D01*
X291246797Y-150077000D01*
X291429203Y-150077000D01*
X291608104Y-150112585D01*
X291608104Y-150112585D01*
G37*
G36*
X235093104Y-150112585D02*
G01*
X235261626Y-150182389D01*
X235413291Y-150283728D01*
X235542272Y-150412709D01*
X235643611Y-150564374D01*
X235713415Y-150732896D01*
X235749000Y-150911797D01*
X235749000Y-151094203D01*
X235713415Y-151273104D01*
X235643611Y-151441626D01*
X235542272Y-151593291D01*
X235413291Y-151722272D01*
X235261626Y-151823611D01*
X235093104Y-151893415D01*
X234914203Y-151929000D01*
X234731797Y-151929000D01*
X234552896Y-151893415D01*
X234384374Y-151823611D01*
X234232709Y-151722272D01*
X234103728Y-151593291D01*
X234002389Y-151441626D01*
X233932585Y-151273104D01*
X233897000Y-151094203D01*
X233897000Y-150911797D01*
X233932585Y-150732896D01*
X234002389Y-150564374D01*
X234103728Y-150412709D01*
X234232709Y-150283728D01*
X234384374Y-150182389D01*
X234552896Y-150112585D01*
X234731797Y-150077000D01*
X234914203Y-150077000D01*
X235093104Y-150112585D01*
X235093104Y-150112585D01*
G37*
G36*
X224933104Y-150112585D02*
G01*
X225101626Y-150182389D01*
X225253291Y-150283728D01*
X225382272Y-150412709D01*
X225483611Y-150564374D01*
X225553415Y-150732896D01*
X225589000Y-150911797D01*
X225589000Y-151094203D01*
X225553415Y-151273104D01*
X225483611Y-151441626D01*
X225382272Y-151593291D01*
X225253291Y-151722272D01*
X225101626Y-151823611D01*
X224933104Y-151893415D01*
X224754203Y-151929000D01*
X224571797Y-151929000D01*
X224392896Y-151893415D01*
X224224374Y-151823611D01*
X224072709Y-151722272D01*
X223943728Y-151593291D01*
X223842389Y-151441626D01*
X223772585Y-151273104D01*
X223737000Y-151094203D01*
X223737000Y-150911797D01*
X223772585Y-150732896D01*
X223842389Y-150564374D01*
X223943728Y-150412709D01*
X224072709Y-150283728D01*
X224224374Y-150182389D01*
X224392896Y-150112585D01*
X224571797Y-150077000D01*
X224754203Y-150077000D01*
X224933104Y-150112585D01*
X224933104Y-150112585D01*
G37*
G36*
X191532104Y-150112585D02*
G01*
X191700626Y-150182389D01*
X191852291Y-150283728D01*
X191981272Y-150412709D01*
X192082611Y-150564374D01*
X192152415Y-150732896D01*
X192188000Y-150911797D01*
X192188000Y-151094203D01*
X192152415Y-151273104D01*
X192082611Y-151441626D01*
X191981272Y-151593291D01*
X191852291Y-151722272D01*
X191700626Y-151823611D01*
X191532104Y-151893415D01*
X191353203Y-151929000D01*
X191170797Y-151929000D01*
X190991896Y-151893415D01*
X190823374Y-151823611D01*
X190671709Y-151722272D01*
X190542728Y-151593291D01*
X190441389Y-151441626D01*
X190371585Y-151273104D01*
X190336000Y-151094203D01*
X190336000Y-150911797D01*
X190371585Y-150732896D01*
X190441389Y-150564374D01*
X190542728Y-150412709D01*
X190671709Y-150283728D01*
X190823374Y-150182389D01*
X190991896Y-150112585D01*
X191170797Y-150077000D01*
X191353203Y-150077000D01*
X191532104Y-150112585D01*
X191532104Y-150112585D01*
G37*
G36*
X324882104Y-150112585D02*
G01*
X325050626Y-150182389D01*
X325202291Y-150283728D01*
X325331272Y-150412709D01*
X325432611Y-150564374D01*
X325502415Y-150732896D01*
X325538000Y-150911797D01*
X325538000Y-151094203D01*
X325502415Y-151273104D01*
X325432611Y-151441626D01*
X325331272Y-151593291D01*
X325202291Y-151722272D01*
X325050626Y-151823611D01*
X324882104Y-151893415D01*
X324703203Y-151929000D01*
X324520797Y-151929000D01*
X324341896Y-151893415D01*
X324173374Y-151823611D01*
X324021709Y-151722272D01*
X323892728Y-151593291D01*
X323791389Y-151441626D01*
X323721585Y-151273104D01*
X323686000Y-151094203D01*
X323686000Y-150911797D01*
X323721585Y-150732896D01*
X323791389Y-150564374D01*
X323892728Y-150412709D01*
X324021709Y-150283728D01*
X324173374Y-150182389D01*
X324341896Y-150112585D01*
X324520797Y-150077000D01*
X324703203Y-150077000D01*
X324882104Y-150112585D01*
X324882104Y-150112585D01*
G37*
G36*
X91583104Y-150112585D02*
G01*
X91751626Y-150182389D01*
X91903291Y-150283728D01*
X92032272Y-150412709D01*
X92133611Y-150564374D01*
X92203415Y-150732896D01*
X92239000Y-150911797D01*
X92239000Y-151094203D01*
X92203415Y-151273104D01*
X92133611Y-151441626D01*
X92032272Y-151593291D01*
X91903291Y-151722272D01*
X91751626Y-151823611D01*
X91583104Y-151893415D01*
X91404203Y-151929000D01*
X91221797Y-151929000D01*
X91042896Y-151893415D01*
X90874374Y-151823611D01*
X90722709Y-151722272D01*
X90593728Y-151593291D01*
X90492389Y-151441626D01*
X90422585Y-151273104D01*
X90387000Y-151094203D01*
X90387000Y-150911797D01*
X90422585Y-150732896D01*
X90492389Y-150564374D01*
X90593728Y-150412709D01*
X90722709Y-150283728D01*
X90874374Y-150182389D01*
X91042896Y-150112585D01*
X91221797Y-150077000D01*
X91404203Y-150077000D01*
X91583104Y-150112585D01*
X91583104Y-150112585D01*
G37*
G36*
X101743104Y-150112585D02*
G01*
X101911626Y-150182389D01*
X102063291Y-150283728D01*
X102192272Y-150412709D01*
X102293611Y-150564374D01*
X102363415Y-150732896D01*
X102399000Y-150911797D01*
X102399000Y-151094203D01*
X102363415Y-151273104D01*
X102293611Y-151441626D01*
X102192272Y-151593291D01*
X102063291Y-151722272D01*
X101911626Y-151823611D01*
X101743104Y-151893415D01*
X101564203Y-151929000D01*
X101381797Y-151929000D01*
X101202896Y-151893415D01*
X101034374Y-151823611D01*
X100882709Y-151722272D01*
X100753728Y-151593291D01*
X100652389Y-151441626D01*
X100582585Y-151273104D01*
X100547000Y-151094203D01*
X100547000Y-150911797D01*
X100582585Y-150732896D01*
X100652389Y-150564374D01*
X100753728Y-150412709D01*
X100882709Y-150283728D01*
X101034374Y-150182389D01*
X101202896Y-150112585D01*
X101381797Y-150077000D01*
X101564203Y-150077000D01*
X101743104Y-150112585D01*
X101743104Y-150112585D01*
G37*
G36*
X124984104Y-150112585D02*
G01*
X125152626Y-150182389D01*
X125304291Y-150283728D01*
X125433272Y-150412709D01*
X125534611Y-150564374D01*
X125604415Y-150732896D01*
X125640000Y-150911797D01*
X125640000Y-151094203D01*
X125604415Y-151273104D01*
X125534611Y-151441626D01*
X125433272Y-151593291D01*
X125304291Y-151722272D01*
X125152626Y-151823611D01*
X124984104Y-151893415D01*
X124805203Y-151929000D01*
X124622797Y-151929000D01*
X124443896Y-151893415D01*
X124275374Y-151823611D01*
X124123709Y-151722272D01*
X123994728Y-151593291D01*
X123893389Y-151441626D01*
X123823585Y-151273104D01*
X123788000Y-151094203D01*
X123788000Y-150911797D01*
X123823585Y-150732896D01*
X123893389Y-150564374D01*
X123994728Y-150412709D01*
X124123709Y-150283728D01*
X124275374Y-150182389D01*
X124443896Y-150112585D01*
X124622797Y-150077000D01*
X124805203Y-150077000D01*
X124984104Y-150112585D01*
X124984104Y-150112585D01*
G37*
G36*
X135144104Y-150112585D02*
G01*
X135312626Y-150182389D01*
X135464291Y-150283728D01*
X135593272Y-150412709D01*
X135694611Y-150564374D01*
X135764415Y-150732896D01*
X135800000Y-150911797D01*
X135800000Y-151094203D01*
X135764415Y-151273104D01*
X135694611Y-151441626D01*
X135593272Y-151593291D01*
X135464291Y-151722272D01*
X135312626Y-151823611D01*
X135144104Y-151893415D01*
X134965203Y-151929000D01*
X134782797Y-151929000D01*
X134603896Y-151893415D01*
X134435374Y-151823611D01*
X134283709Y-151722272D01*
X134154728Y-151593291D01*
X134053389Y-151441626D01*
X133983585Y-151273104D01*
X133948000Y-151094203D01*
X133948000Y-150911797D01*
X133983585Y-150732896D01*
X134053389Y-150564374D01*
X134154728Y-150412709D01*
X134283709Y-150283728D01*
X134435374Y-150182389D01*
X134603896Y-150112585D01*
X134782797Y-150077000D01*
X134965203Y-150077000D01*
X135144104Y-150112585D01*
X135144104Y-150112585D01*
G37*
G36*
X268367104Y-150112585D02*
G01*
X268535626Y-150182389D01*
X268687291Y-150283728D01*
X268816272Y-150412709D01*
X268917611Y-150564374D01*
X268987415Y-150732896D01*
X269023000Y-150911797D01*
X269023000Y-151094203D01*
X268987415Y-151273104D01*
X268917611Y-151441626D01*
X268816272Y-151593291D01*
X268687291Y-151722272D01*
X268535626Y-151823611D01*
X268367104Y-151893415D01*
X268188203Y-151929000D01*
X268005797Y-151929000D01*
X267826896Y-151893415D01*
X267658374Y-151823611D01*
X267506709Y-151722272D01*
X267377728Y-151593291D01*
X267276389Y-151441626D01*
X267206585Y-151273104D01*
X267171000Y-151094203D01*
X267171000Y-150911797D01*
X267206585Y-150732896D01*
X267276389Y-150564374D01*
X267377728Y-150412709D01*
X267506709Y-150283728D01*
X267658374Y-150182389D01*
X267826896Y-150112585D01*
X268005797Y-150077000D01*
X268188203Y-150077000D01*
X268367104Y-150112585D01*
X268367104Y-150112585D01*
G37*
G36*
X468392104Y-150112585D02*
G01*
X468560626Y-150182389D01*
X468712291Y-150283728D01*
X468841272Y-150412709D01*
X468942611Y-150564374D01*
X469012415Y-150732896D01*
X469048000Y-150911797D01*
X469048000Y-151094203D01*
X469012415Y-151273104D01*
X468942611Y-151441626D01*
X468841272Y-151593291D01*
X468712291Y-151722272D01*
X468560626Y-151823611D01*
X468392104Y-151893415D01*
X468213203Y-151929000D01*
X468030797Y-151929000D01*
X467851896Y-151893415D01*
X467683374Y-151823611D01*
X467531709Y-151722272D01*
X467402728Y-151593291D01*
X467301389Y-151441626D01*
X467231585Y-151273104D01*
X467196000Y-151094203D01*
X467196000Y-150911797D01*
X467231585Y-150732896D01*
X467301389Y-150564374D01*
X467402728Y-150412709D01*
X467531709Y-150283728D01*
X467683374Y-150182389D01*
X467851896Y-150112585D01*
X468030797Y-150077000D01*
X468213203Y-150077000D01*
X468392104Y-150112585D01*
X468392104Y-150112585D01*
G37*
G36*
X458232104Y-150112585D02*
G01*
X458400626Y-150182389D01*
X458552291Y-150283728D01*
X458681272Y-150412709D01*
X458782611Y-150564374D01*
X458852415Y-150732896D01*
X458888000Y-150911797D01*
X458888000Y-151094203D01*
X458852415Y-151273104D01*
X458782611Y-151441626D01*
X458681272Y-151593291D01*
X458552291Y-151722272D01*
X458400626Y-151823611D01*
X458232104Y-151893415D01*
X458053203Y-151929000D01*
X457870797Y-151929000D01*
X457691896Y-151893415D01*
X457523374Y-151823611D01*
X457371709Y-151722272D01*
X457242728Y-151593291D01*
X457141389Y-151441626D01*
X457071585Y-151273104D01*
X457036000Y-151094203D01*
X457036000Y-150911797D01*
X457071585Y-150732896D01*
X457141389Y-150564374D01*
X457242728Y-150412709D01*
X457371709Y-150283728D01*
X457523374Y-150182389D01*
X457691896Y-150112585D01*
X457870797Y-150077000D01*
X458053203Y-150077000D01*
X458232104Y-150112585D01*
X458232104Y-150112585D01*
G37*
G36*
X158258104Y-150112585D02*
G01*
X158426626Y-150182389D01*
X158578291Y-150283728D01*
X158707272Y-150412709D01*
X158808611Y-150564374D01*
X158878415Y-150732896D01*
X158914000Y-150911797D01*
X158914000Y-151094203D01*
X158878415Y-151273104D01*
X158808611Y-151441626D01*
X158707272Y-151593291D01*
X158578291Y-151722272D01*
X158426626Y-151823611D01*
X158258104Y-151893415D01*
X158079203Y-151929000D01*
X157896797Y-151929000D01*
X157717896Y-151893415D01*
X157549374Y-151823611D01*
X157397709Y-151722272D01*
X157268728Y-151593291D01*
X157167389Y-151441626D01*
X157097585Y-151273104D01*
X157062000Y-151094203D01*
X157062000Y-150911797D01*
X157097585Y-150732896D01*
X157167389Y-150564374D01*
X157268728Y-150412709D01*
X157397709Y-150283728D01*
X157549374Y-150182389D01*
X157717896Y-150112585D01*
X157896797Y-150077000D01*
X158079203Y-150077000D01*
X158258104Y-150112585D01*
X158258104Y-150112585D01*
G37*
G36*
X168418104Y-150112585D02*
G01*
X168586626Y-150182389D01*
X168738291Y-150283728D01*
X168867272Y-150412709D01*
X168968611Y-150564374D01*
X169038415Y-150732896D01*
X169074000Y-150911797D01*
X169074000Y-151094203D01*
X169038415Y-151273104D01*
X168968611Y-151441626D01*
X168867272Y-151593291D01*
X168738291Y-151722272D01*
X168586626Y-151823611D01*
X168418104Y-151893415D01*
X168239203Y-151929000D01*
X168056797Y-151929000D01*
X167877896Y-151893415D01*
X167709374Y-151823611D01*
X167557709Y-151722272D01*
X167428728Y-151593291D01*
X167327389Y-151441626D01*
X167257585Y-151273104D01*
X167222000Y-151094203D01*
X167222000Y-150911797D01*
X167257585Y-150732896D01*
X167327389Y-150564374D01*
X167428728Y-150412709D01*
X167557709Y-150283728D01*
X167709374Y-150182389D01*
X167877896Y-150112585D01*
X168056797Y-150077000D01*
X168239203Y-150077000D01*
X168418104Y-150112585D01*
X168418104Y-150112585D01*
G37*
G36*
X201692104Y-150112585D02*
G01*
X201860626Y-150182389D01*
X202012291Y-150283728D01*
X202141272Y-150412709D01*
X202242611Y-150564374D01*
X202312415Y-150732896D01*
X202348000Y-150911797D01*
X202348000Y-151094203D01*
X202312415Y-151273104D01*
X202242611Y-151441626D01*
X202141272Y-151593291D01*
X202012291Y-151722272D01*
X201860626Y-151823611D01*
X201692104Y-151893415D01*
X201513203Y-151929000D01*
X201330797Y-151929000D01*
X201151896Y-151893415D01*
X200983374Y-151823611D01*
X200831709Y-151722272D01*
X200702728Y-151593291D01*
X200601389Y-151441626D01*
X200531585Y-151273104D01*
X200496000Y-151094203D01*
X200496000Y-150911797D01*
X200531585Y-150732896D01*
X200601389Y-150564374D01*
X200702728Y-150412709D01*
X200831709Y-150283728D01*
X200983374Y-150182389D01*
X201151896Y-150112585D01*
X201330797Y-150077000D01*
X201513203Y-150077000D01*
X201692104Y-150112585D01*
X201692104Y-150112585D01*
G37*
G36*
X459534585Y-146941802D02*
G01*
X459684410Y-146971604D01*
X459966674Y-147088521D01*
X460220705Y-147258259D01*
X460436741Y-147474295D01*
X460606479Y-147728326D01*
X460723396Y-148010590D01*
X460783000Y-148310240D01*
X460783000Y-148615760D01*
X460723396Y-148915410D01*
X460606479Y-149197674D01*
X460436741Y-149451705D01*
X460220705Y-149667741D01*
X459966674Y-149837479D01*
X459684410Y-149954396D01*
X459534585Y-149984198D01*
X459384761Y-150014000D01*
X459079239Y-150014000D01*
X458929415Y-149984198D01*
X458779590Y-149954396D01*
X458497326Y-149837479D01*
X458243295Y-149667741D01*
X458027259Y-149451705D01*
X457857521Y-149197674D01*
X457740604Y-148915410D01*
X457681000Y-148615760D01*
X457681000Y-148310240D01*
X457740604Y-148010590D01*
X457857521Y-147728326D01*
X458027259Y-147474295D01*
X458243295Y-147258259D01*
X458497326Y-147088521D01*
X458779590Y-146971604D01*
X458929415Y-146941802D01*
X459079239Y-146912000D01*
X459384761Y-146912000D01*
X459534585Y-146941802D01*
X459534585Y-146941802D01*
G37*
G36*
X159560585Y-146941802D02*
G01*
X159710410Y-146971604D01*
X159992674Y-147088521D01*
X160246705Y-147258259D01*
X160462741Y-147474295D01*
X160632479Y-147728326D01*
X160749396Y-148010590D01*
X160809000Y-148310240D01*
X160809000Y-148615760D01*
X160749396Y-148915410D01*
X160632479Y-149197674D01*
X160462741Y-149451705D01*
X160246705Y-149667741D01*
X159992674Y-149837479D01*
X159710410Y-149954396D01*
X159560585Y-149984198D01*
X159410761Y-150014000D01*
X159105239Y-150014000D01*
X158955415Y-149984198D01*
X158805590Y-149954396D01*
X158523326Y-149837479D01*
X158269295Y-149667741D01*
X158053259Y-149451705D01*
X157883521Y-149197674D01*
X157766604Y-148915410D01*
X157707000Y-148615760D01*
X157707000Y-148310240D01*
X157766604Y-148010590D01*
X157883521Y-147728326D01*
X158053259Y-147474295D01*
X158269295Y-147258259D01*
X158523326Y-147088521D01*
X158805590Y-146971604D01*
X158955415Y-146941802D01*
X159105239Y-146912000D01*
X159410761Y-146912000D01*
X159560585Y-146941802D01*
X159560585Y-146941802D01*
G37*
G36*
X326184585Y-146941802D02*
G01*
X326334410Y-146971604D01*
X326616674Y-147088521D01*
X326870705Y-147258259D01*
X327086741Y-147474295D01*
X327256479Y-147728326D01*
X327373396Y-148010590D01*
X327433000Y-148310240D01*
X327433000Y-148615760D01*
X327373396Y-148915410D01*
X327256479Y-149197674D01*
X327086741Y-149451705D01*
X326870705Y-149667741D01*
X326616674Y-149837479D01*
X326334410Y-149954396D01*
X326184585Y-149984198D01*
X326034761Y-150014000D01*
X325729239Y-150014000D01*
X325579415Y-149984198D01*
X325429590Y-149954396D01*
X325147326Y-149837479D01*
X324893295Y-149667741D01*
X324677259Y-149451705D01*
X324507521Y-149197674D01*
X324390604Y-148915410D01*
X324331000Y-148615760D01*
X324331000Y-148310240D01*
X324390604Y-148010590D01*
X324507521Y-147728326D01*
X324677259Y-147474295D01*
X324893295Y-147258259D01*
X325147326Y-147088521D01*
X325429590Y-146971604D01*
X325579415Y-146941802D01*
X325729239Y-146912000D01*
X326034761Y-146912000D01*
X326184585Y-146941802D01*
X326184585Y-146941802D01*
G37*
G36*
X192834585Y-146941802D02*
G01*
X192984410Y-146971604D01*
X193266674Y-147088521D01*
X193520705Y-147258259D01*
X193736741Y-147474295D01*
X193906479Y-147728326D01*
X194023396Y-148010590D01*
X194083000Y-148310240D01*
X194083000Y-148615760D01*
X194023396Y-148915410D01*
X193906479Y-149197674D01*
X193736741Y-149451705D01*
X193520705Y-149667741D01*
X193266674Y-149837479D01*
X192984410Y-149954396D01*
X192834585Y-149984198D01*
X192684761Y-150014000D01*
X192379239Y-150014000D01*
X192229415Y-149984198D01*
X192079590Y-149954396D01*
X191797326Y-149837479D01*
X191543295Y-149667741D01*
X191327259Y-149451705D01*
X191157521Y-149197674D01*
X191040604Y-148915410D01*
X190981000Y-148615760D01*
X190981000Y-148310240D01*
X191040604Y-148010590D01*
X191157521Y-147728326D01*
X191327259Y-147474295D01*
X191543295Y-147258259D01*
X191797326Y-147088521D01*
X192079590Y-146971604D01*
X192229415Y-146941802D01*
X192379239Y-146912000D01*
X192684761Y-146912000D01*
X192834585Y-146941802D01*
X192834585Y-146941802D01*
G37*
G36*
X426260585Y-146941802D02*
G01*
X426410410Y-146971604D01*
X426692674Y-147088521D01*
X426946705Y-147258259D01*
X427162741Y-147474295D01*
X427332479Y-147728326D01*
X427449396Y-148010590D01*
X427509000Y-148310240D01*
X427509000Y-148615760D01*
X427449396Y-148915410D01*
X427332479Y-149197674D01*
X427162741Y-149451705D01*
X426946705Y-149667741D01*
X426692674Y-149837479D01*
X426410410Y-149954396D01*
X426260585Y-149984198D01*
X426110761Y-150014000D01*
X425805239Y-150014000D01*
X425655415Y-149984198D01*
X425505590Y-149954396D01*
X425223326Y-149837479D01*
X424969295Y-149667741D01*
X424753259Y-149451705D01*
X424583521Y-149197674D01*
X424466604Y-148915410D01*
X424407000Y-148615760D01*
X424407000Y-148310240D01*
X424466604Y-148010590D01*
X424583521Y-147728326D01*
X424753259Y-147474295D01*
X424969295Y-147258259D01*
X425223326Y-147088521D01*
X425505590Y-146971604D01*
X425655415Y-146941802D01*
X425805239Y-146912000D01*
X426110761Y-146912000D01*
X426260585Y-146941802D01*
X426260585Y-146941802D01*
G37*
G36*
X126286585Y-146941802D02*
G01*
X126436410Y-146971604D01*
X126718674Y-147088521D01*
X126972705Y-147258259D01*
X127188741Y-147474295D01*
X127358479Y-147728326D01*
X127475396Y-148010590D01*
X127535000Y-148310240D01*
X127535000Y-148615760D01*
X127475396Y-148915410D01*
X127358479Y-149197674D01*
X127188741Y-149451705D01*
X126972705Y-149667741D01*
X126718674Y-149837479D01*
X126436410Y-149954396D01*
X126286585Y-149984198D01*
X126136761Y-150014000D01*
X125831239Y-150014000D01*
X125681415Y-149984198D01*
X125531590Y-149954396D01*
X125249326Y-149837479D01*
X124995295Y-149667741D01*
X124779259Y-149451705D01*
X124609521Y-149197674D01*
X124492604Y-148915410D01*
X124433000Y-148615760D01*
X124433000Y-148310240D01*
X124492604Y-148010590D01*
X124609521Y-147728326D01*
X124779259Y-147474295D01*
X124995295Y-147258259D01*
X125249326Y-147088521D01*
X125531590Y-146971604D01*
X125681415Y-146941802D01*
X125831239Y-146912000D01*
X126136761Y-146912000D01*
X126286585Y-146941802D01*
X126286585Y-146941802D01*
G37*
G36*
X226235585Y-146941802D02*
G01*
X226385410Y-146971604D01*
X226667674Y-147088521D01*
X226921705Y-147258259D01*
X227137741Y-147474295D01*
X227307479Y-147728326D01*
X227424396Y-148010590D01*
X227484000Y-148310240D01*
X227484000Y-148615760D01*
X227424396Y-148915410D01*
X227307479Y-149197674D01*
X227137741Y-149451705D01*
X226921705Y-149667741D01*
X226667674Y-149837479D01*
X226385410Y-149954396D01*
X226235585Y-149984198D01*
X226085761Y-150014000D01*
X225780239Y-150014000D01*
X225630415Y-149984198D01*
X225480590Y-149954396D01*
X225198326Y-149837479D01*
X224944295Y-149667741D01*
X224728259Y-149451705D01*
X224558521Y-149197674D01*
X224441604Y-148915410D01*
X224382000Y-148615760D01*
X224382000Y-148310240D01*
X224441604Y-148010590D01*
X224558521Y-147728326D01*
X224728259Y-147474295D01*
X224944295Y-147258259D01*
X225198326Y-147088521D01*
X225480590Y-146971604D01*
X225630415Y-146941802D01*
X225780239Y-146912000D01*
X226085761Y-146912000D01*
X226235585Y-146941802D01*
X226235585Y-146941802D01*
G37*
G36*
X292910585Y-146941802D02*
G01*
X293060410Y-146971604D01*
X293342674Y-147088521D01*
X293596705Y-147258259D01*
X293812741Y-147474295D01*
X293982479Y-147728326D01*
X294099396Y-148010590D01*
X294159000Y-148310240D01*
X294159000Y-148615760D01*
X294099396Y-148915410D01*
X293982479Y-149197674D01*
X293812741Y-149451705D01*
X293596705Y-149667741D01*
X293342674Y-149837479D01*
X293060410Y-149954396D01*
X292910585Y-149984198D01*
X292760761Y-150014000D01*
X292455239Y-150014000D01*
X292305415Y-149984198D01*
X292155590Y-149954396D01*
X291873326Y-149837479D01*
X291619295Y-149667741D01*
X291403259Y-149451705D01*
X291233521Y-149197674D01*
X291116604Y-148915410D01*
X291057000Y-148615760D01*
X291057000Y-148310240D01*
X291116604Y-148010590D01*
X291233521Y-147728326D01*
X291403259Y-147474295D01*
X291619295Y-147258259D01*
X291873326Y-147088521D01*
X292155590Y-146971604D01*
X292305415Y-146941802D01*
X292455239Y-146912000D01*
X292760761Y-146912000D01*
X292910585Y-146941802D01*
X292910585Y-146941802D01*
G37*
G36*
X92885585Y-146941802D02*
G01*
X93035410Y-146971604D01*
X93317674Y-147088521D01*
X93571705Y-147258259D01*
X93787741Y-147474295D01*
X93957479Y-147728326D01*
X94074396Y-148010590D01*
X94134000Y-148310240D01*
X94134000Y-148615760D01*
X94074396Y-148915410D01*
X93957479Y-149197674D01*
X93787741Y-149451705D01*
X93571705Y-149667741D01*
X93317674Y-149837479D01*
X93035410Y-149954396D01*
X92885585Y-149984198D01*
X92735761Y-150014000D01*
X92430239Y-150014000D01*
X92280415Y-149984198D01*
X92130590Y-149954396D01*
X91848326Y-149837479D01*
X91594295Y-149667741D01*
X91378259Y-149451705D01*
X91208521Y-149197674D01*
X91091604Y-148915410D01*
X91032000Y-148615760D01*
X91032000Y-148310240D01*
X91091604Y-148010590D01*
X91208521Y-147728326D01*
X91378259Y-147474295D01*
X91594295Y-147258259D01*
X91848326Y-147088521D01*
X92130590Y-146971604D01*
X92280415Y-146941802D01*
X92430239Y-146912000D01*
X92735761Y-146912000D01*
X92885585Y-146941802D01*
X92885585Y-146941802D01*
G37*
G36*
X392859585Y-146941802D02*
G01*
X393009410Y-146971604D01*
X393291674Y-147088521D01*
X393545705Y-147258259D01*
X393761741Y-147474295D01*
X393931479Y-147728326D01*
X394048396Y-148010590D01*
X394108000Y-148310240D01*
X394108000Y-148615760D01*
X394048396Y-148915410D01*
X393931479Y-149197674D01*
X393761741Y-149451705D01*
X393545705Y-149667741D01*
X393291674Y-149837479D01*
X393009410Y-149954396D01*
X392859585Y-149984198D01*
X392709761Y-150014000D01*
X392404239Y-150014000D01*
X392254415Y-149984198D01*
X392104590Y-149954396D01*
X391822326Y-149837479D01*
X391568295Y-149667741D01*
X391352259Y-149451705D01*
X391182521Y-149197674D01*
X391065604Y-148915410D01*
X391006000Y-148615760D01*
X391006000Y-148310240D01*
X391065604Y-148010590D01*
X391182521Y-147728326D01*
X391352259Y-147474295D01*
X391568295Y-147258259D01*
X391822326Y-147088521D01*
X392104590Y-146971604D01*
X392254415Y-146941802D01*
X392404239Y-146912000D01*
X392709761Y-146912000D01*
X392859585Y-146941802D01*
X392859585Y-146941802D01*
G37*
G36*
X259509585Y-146941802D02*
G01*
X259659410Y-146971604D01*
X259941674Y-147088521D01*
X260195705Y-147258259D01*
X260411741Y-147474295D01*
X260581479Y-147728326D01*
X260698396Y-148010590D01*
X260758000Y-148310240D01*
X260758000Y-148615760D01*
X260698396Y-148915410D01*
X260581479Y-149197674D01*
X260411741Y-149451705D01*
X260195705Y-149667741D01*
X259941674Y-149837479D01*
X259659410Y-149954396D01*
X259509585Y-149984198D01*
X259359761Y-150014000D01*
X259054239Y-150014000D01*
X258904415Y-149984198D01*
X258754590Y-149954396D01*
X258472326Y-149837479D01*
X258218295Y-149667741D01*
X258002259Y-149451705D01*
X257832521Y-149197674D01*
X257715604Y-148915410D01*
X257656000Y-148615760D01*
X257656000Y-148310240D01*
X257715604Y-148010590D01*
X257832521Y-147728326D01*
X258002259Y-147474295D01*
X258218295Y-147258259D01*
X258472326Y-147088521D01*
X258754590Y-146971604D01*
X258904415Y-146941802D01*
X259054239Y-146912000D01*
X259359761Y-146912000D01*
X259509585Y-146941802D01*
X259509585Y-146941802D01*
G37*
G36*
X359458585Y-146941802D02*
G01*
X359608410Y-146971604D01*
X359890674Y-147088521D01*
X360144705Y-147258259D01*
X360360741Y-147474295D01*
X360530479Y-147728326D01*
X360647396Y-148010590D01*
X360707000Y-148310240D01*
X360707000Y-148615760D01*
X360647396Y-148915410D01*
X360530479Y-149197674D01*
X360360741Y-149451705D01*
X360144705Y-149667741D01*
X359890674Y-149837479D01*
X359608410Y-149954396D01*
X359458585Y-149984198D01*
X359308761Y-150014000D01*
X359003239Y-150014000D01*
X358853415Y-149984198D01*
X358703590Y-149954396D01*
X358421326Y-149837479D01*
X358167295Y-149667741D01*
X357951259Y-149451705D01*
X357781521Y-149197674D01*
X357664604Y-148915410D01*
X357605000Y-148615760D01*
X357605000Y-148310240D01*
X357664604Y-148010590D01*
X357781521Y-147728326D01*
X357951259Y-147474295D01*
X358167295Y-147258259D01*
X358421326Y-147088521D01*
X358703590Y-146971604D01*
X358853415Y-146941802D01*
X359003239Y-146912000D01*
X359308761Y-146912000D01*
X359458585Y-146941802D01*
X359458585Y-146941802D01*
G37*
G36*
X357207000Y-149764000D02*
G01*
X354555000Y-149764000D01*
X354555000Y-147162000D01*
X357207000Y-147162000D01*
X357207000Y-149764000D01*
X357207000Y-149764000D01*
G37*
G36*
X424009000Y-149764000D02*
G01*
X421357000Y-149764000D01*
X421357000Y-147162000D01*
X424009000Y-147162000D01*
X424009000Y-149764000D01*
X424009000Y-149764000D01*
G37*
G36*
X457283000Y-149764000D02*
G01*
X454631000Y-149764000D01*
X454631000Y-147162000D01*
X457283000Y-147162000D01*
X457283000Y-149764000D01*
X457283000Y-149764000D01*
G37*
G36*
X257258000Y-149764000D02*
G01*
X254606000Y-149764000D01*
X254606000Y-147162000D01*
X257258000Y-147162000D01*
X257258000Y-149764000D01*
X257258000Y-149764000D01*
G37*
G36*
X323933000Y-149764000D02*
G01*
X321281000Y-149764000D01*
X321281000Y-147162000D01*
X323933000Y-147162000D01*
X323933000Y-149764000D01*
X323933000Y-149764000D01*
G37*
G36*
X90634000Y-149764000D02*
G01*
X87982000Y-149764000D01*
X87982000Y-147162000D01*
X90634000Y-147162000D01*
X90634000Y-149764000D01*
X90634000Y-149764000D01*
G37*
G36*
X290659000Y-149764000D02*
G01*
X288007000Y-149764000D01*
X288007000Y-147162000D01*
X290659000Y-147162000D01*
X290659000Y-149764000D01*
X290659000Y-149764000D01*
G37*
G36*
X223984000Y-149764000D02*
G01*
X221332000Y-149764000D01*
X221332000Y-147162000D01*
X223984000Y-147162000D01*
X223984000Y-149764000D01*
X223984000Y-149764000D01*
G37*
G36*
X190583000Y-149764000D02*
G01*
X187931000Y-149764000D01*
X187931000Y-147162000D01*
X190583000Y-147162000D01*
X190583000Y-149764000D01*
X190583000Y-149764000D01*
G37*
G36*
X157309000Y-149764000D02*
G01*
X154657000Y-149764000D01*
X154657000Y-147162000D01*
X157309000Y-147162000D01*
X157309000Y-149764000D01*
X157309000Y-149764000D01*
G37*
G36*
X390608000Y-149764000D02*
G01*
X387956000Y-149764000D01*
X387956000Y-147162000D01*
X390608000Y-147162000D01*
X390608000Y-149764000D01*
X390608000Y-149764000D01*
G37*
G36*
X124035000Y-149764000D02*
G01*
X121383000Y-149764000D01*
X121383000Y-147162000D01*
X124035000Y-147162000D01*
X124035000Y-149764000D01*
X124035000Y-149764000D01*
G37*
G36*
X265859585Y-144401802D02*
G01*
X266009410Y-144431604D01*
X266291674Y-144548521D01*
X266545705Y-144718259D01*
X266761741Y-144934295D01*
X266931479Y-145188326D01*
X267048396Y-145470590D01*
X267108000Y-145770240D01*
X267108000Y-146075760D01*
X267048396Y-146375410D01*
X266931479Y-146657674D01*
X266761741Y-146911705D01*
X266545705Y-147127741D01*
X266291674Y-147297479D01*
X266009410Y-147414396D01*
X265859585Y-147444198D01*
X265709761Y-147474000D01*
X265404239Y-147474000D01*
X265254415Y-147444198D01*
X265104590Y-147414396D01*
X264822326Y-147297479D01*
X264568295Y-147127741D01*
X264352259Y-146911705D01*
X264182521Y-146657674D01*
X264065604Y-146375410D01*
X264006000Y-146075760D01*
X264006000Y-145770240D01*
X264065604Y-145470590D01*
X264182521Y-145188326D01*
X264352259Y-144934295D01*
X264568295Y-144718259D01*
X264822326Y-144548521D01*
X265104590Y-144431604D01*
X265254415Y-144401802D01*
X265404239Y-144372000D01*
X265709761Y-144372000D01*
X265859585Y-144401802D01*
X265859585Y-144401802D01*
G37*
G36*
X99235585Y-144401802D02*
G01*
X99385410Y-144431604D01*
X99667674Y-144548521D01*
X99921705Y-144718259D01*
X100137741Y-144934295D01*
X100307479Y-145188326D01*
X100424396Y-145470590D01*
X100484000Y-145770240D01*
X100484000Y-146075760D01*
X100424396Y-146375410D01*
X100307479Y-146657674D01*
X100137741Y-146911705D01*
X99921705Y-147127741D01*
X99667674Y-147297479D01*
X99385410Y-147414396D01*
X99235585Y-147444198D01*
X99085761Y-147474000D01*
X98780239Y-147474000D01*
X98630415Y-147444198D01*
X98480590Y-147414396D01*
X98198326Y-147297479D01*
X97944295Y-147127741D01*
X97728259Y-146911705D01*
X97558521Y-146657674D01*
X97441604Y-146375410D01*
X97382000Y-146075760D01*
X97382000Y-145770240D01*
X97441604Y-145470590D01*
X97558521Y-145188326D01*
X97728259Y-144934295D01*
X97944295Y-144718259D01*
X98198326Y-144548521D01*
X98480590Y-144431604D01*
X98630415Y-144401802D01*
X98780239Y-144372000D01*
X99085761Y-144372000D01*
X99235585Y-144401802D01*
X99235585Y-144401802D01*
G37*
G36*
X165910585Y-144401802D02*
G01*
X166060410Y-144431604D01*
X166342674Y-144548521D01*
X166596705Y-144718259D01*
X166812741Y-144934295D01*
X166982479Y-145188326D01*
X167099396Y-145470590D01*
X167159000Y-145770240D01*
X167159000Y-146075760D01*
X167099396Y-146375410D01*
X166982479Y-146657674D01*
X166812741Y-146911705D01*
X166596705Y-147127741D01*
X166342674Y-147297479D01*
X166060410Y-147414396D01*
X165910585Y-147444198D01*
X165760761Y-147474000D01*
X165455239Y-147474000D01*
X165305415Y-147444198D01*
X165155590Y-147414396D01*
X164873326Y-147297479D01*
X164619295Y-147127741D01*
X164403259Y-146911705D01*
X164233521Y-146657674D01*
X164116604Y-146375410D01*
X164057000Y-146075760D01*
X164057000Y-145770240D01*
X164116604Y-145470590D01*
X164233521Y-145188326D01*
X164403259Y-144934295D01*
X164619295Y-144718259D01*
X164873326Y-144548521D01*
X165155590Y-144431604D01*
X165305415Y-144401802D01*
X165455239Y-144372000D01*
X165760761Y-144372000D01*
X165910585Y-144401802D01*
X165910585Y-144401802D01*
G37*
G36*
X199184585Y-144401802D02*
G01*
X199334410Y-144431604D01*
X199616674Y-144548521D01*
X199870705Y-144718259D01*
X200086741Y-144934295D01*
X200256479Y-145188326D01*
X200373396Y-145470590D01*
X200433000Y-145770240D01*
X200433000Y-146075760D01*
X200373396Y-146375410D01*
X200256479Y-146657674D01*
X200086741Y-146911705D01*
X199870705Y-147127741D01*
X199616674Y-147297479D01*
X199334410Y-147414396D01*
X199184585Y-147444198D01*
X199034761Y-147474000D01*
X198729239Y-147474000D01*
X198579415Y-147444198D01*
X198429590Y-147414396D01*
X198147326Y-147297479D01*
X197893295Y-147127741D01*
X197677259Y-146911705D01*
X197507521Y-146657674D01*
X197390604Y-146375410D01*
X197331000Y-146075760D01*
X197331000Y-145770240D01*
X197390604Y-145470590D01*
X197507521Y-145188326D01*
X197677259Y-144934295D01*
X197893295Y-144718259D01*
X198147326Y-144548521D01*
X198429590Y-144431604D01*
X198579415Y-144401802D01*
X198729239Y-144372000D01*
X199034761Y-144372000D01*
X199184585Y-144401802D01*
X199184585Y-144401802D01*
G37*
G36*
X232585585Y-144401802D02*
G01*
X232735410Y-144431604D01*
X233017674Y-144548521D01*
X233271705Y-144718259D01*
X233487741Y-144934295D01*
X233657479Y-145188326D01*
X233774396Y-145470590D01*
X233834000Y-145770240D01*
X233834000Y-146075760D01*
X233774396Y-146375410D01*
X233657479Y-146657674D01*
X233487741Y-146911705D01*
X233271705Y-147127741D01*
X233017674Y-147297479D01*
X232735410Y-147414396D01*
X232585585Y-147444198D01*
X232435761Y-147474000D01*
X232130239Y-147474000D01*
X231980415Y-147444198D01*
X231830590Y-147414396D01*
X231548326Y-147297479D01*
X231294295Y-147127741D01*
X231078259Y-146911705D01*
X230908521Y-146657674D01*
X230791604Y-146375410D01*
X230732000Y-146075760D01*
X230732000Y-145770240D01*
X230791604Y-145470590D01*
X230908521Y-145188326D01*
X231078259Y-144934295D01*
X231294295Y-144718259D01*
X231548326Y-144548521D01*
X231830590Y-144431604D01*
X231980415Y-144401802D01*
X232130239Y-144372000D01*
X232435761Y-144372000D01*
X232585585Y-144401802D01*
X232585585Y-144401802D01*
G37*
G36*
X132636585Y-144401802D02*
G01*
X132786410Y-144431604D01*
X133068674Y-144548521D01*
X133322705Y-144718259D01*
X133538741Y-144934295D01*
X133708479Y-145188326D01*
X133825396Y-145470590D01*
X133885000Y-145770240D01*
X133885000Y-146075760D01*
X133825396Y-146375410D01*
X133708479Y-146657674D01*
X133538741Y-146911705D01*
X133322705Y-147127741D01*
X133068674Y-147297479D01*
X132786410Y-147414396D01*
X132636585Y-147444198D01*
X132486761Y-147474000D01*
X132181239Y-147474000D01*
X132031415Y-147444198D01*
X131881590Y-147414396D01*
X131599326Y-147297479D01*
X131345295Y-147127741D01*
X131129259Y-146911705D01*
X130959521Y-146657674D01*
X130842604Y-146375410D01*
X130783000Y-146075760D01*
X130783000Y-145770240D01*
X130842604Y-145470590D01*
X130959521Y-145188326D01*
X131129259Y-144934295D01*
X131345295Y-144718259D01*
X131599326Y-144548521D01*
X131881590Y-144431604D01*
X132031415Y-144401802D01*
X132181239Y-144372000D01*
X132486761Y-144372000D01*
X132636585Y-144401802D01*
X132636585Y-144401802D01*
G37*
G36*
X432610585Y-144401802D02*
G01*
X432760410Y-144431604D01*
X433042674Y-144548521D01*
X433296705Y-144718259D01*
X433512741Y-144934295D01*
X433682479Y-145188326D01*
X433799396Y-145470590D01*
X433859000Y-145770240D01*
X433859000Y-146075760D01*
X433799396Y-146375410D01*
X433682479Y-146657674D01*
X433512741Y-146911705D01*
X433296705Y-147127741D01*
X433042674Y-147297479D01*
X432760410Y-147414396D01*
X432610585Y-147444198D01*
X432460761Y-147474000D01*
X432155239Y-147474000D01*
X432005415Y-147444198D01*
X431855590Y-147414396D01*
X431573326Y-147297479D01*
X431319295Y-147127741D01*
X431103259Y-146911705D01*
X430933521Y-146657674D01*
X430816604Y-146375410D01*
X430757000Y-146075760D01*
X430757000Y-145770240D01*
X430816604Y-145470590D01*
X430933521Y-145188326D01*
X431103259Y-144934295D01*
X431319295Y-144718259D01*
X431573326Y-144548521D01*
X431855590Y-144431604D01*
X432005415Y-144401802D01*
X432155239Y-144372000D01*
X432460761Y-144372000D01*
X432610585Y-144401802D01*
X432610585Y-144401802D01*
G37*
G36*
X399209585Y-144401802D02*
G01*
X399359410Y-144431604D01*
X399641674Y-144548521D01*
X399895705Y-144718259D01*
X400111741Y-144934295D01*
X400281479Y-145188326D01*
X400398396Y-145470590D01*
X400458000Y-145770240D01*
X400458000Y-146075760D01*
X400398396Y-146375410D01*
X400281479Y-146657674D01*
X400111741Y-146911705D01*
X399895705Y-147127741D01*
X399641674Y-147297479D01*
X399359410Y-147414396D01*
X399209585Y-147444198D01*
X399059761Y-147474000D01*
X398754239Y-147474000D01*
X398604415Y-147444198D01*
X398454590Y-147414396D01*
X398172326Y-147297479D01*
X397918295Y-147127741D01*
X397702259Y-146911705D01*
X397532521Y-146657674D01*
X397415604Y-146375410D01*
X397356000Y-146075760D01*
X397356000Y-145770240D01*
X397415604Y-145470590D01*
X397532521Y-145188326D01*
X397702259Y-144934295D01*
X397918295Y-144718259D01*
X398172326Y-144548521D01*
X398454590Y-144431604D01*
X398604415Y-144401802D01*
X398754239Y-144372000D01*
X399059761Y-144372000D01*
X399209585Y-144401802D01*
X399209585Y-144401802D01*
G37*
G36*
X365808585Y-144401802D02*
G01*
X365958410Y-144431604D01*
X366240674Y-144548521D01*
X366494705Y-144718259D01*
X366710741Y-144934295D01*
X366880479Y-145188326D01*
X366997396Y-145470590D01*
X367057000Y-145770240D01*
X367057000Y-146075760D01*
X366997396Y-146375410D01*
X366880479Y-146657674D01*
X366710741Y-146911705D01*
X366494705Y-147127741D01*
X366240674Y-147297479D01*
X365958410Y-147414396D01*
X365808585Y-147444198D01*
X365658761Y-147474000D01*
X365353239Y-147474000D01*
X365203415Y-147444198D01*
X365053590Y-147414396D01*
X364771326Y-147297479D01*
X364517295Y-147127741D01*
X364301259Y-146911705D01*
X364131521Y-146657674D01*
X364014604Y-146375410D01*
X363955000Y-146075760D01*
X363955000Y-145770240D01*
X364014604Y-145470590D01*
X364131521Y-145188326D01*
X364301259Y-144934295D01*
X364517295Y-144718259D01*
X364771326Y-144548521D01*
X365053590Y-144431604D01*
X365203415Y-144401802D01*
X365353239Y-144372000D01*
X365658761Y-144372000D01*
X365808585Y-144401802D01*
X365808585Y-144401802D01*
G37*
G36*
X332534585Y-144401802D02*
G01*
X332684410Y-144431604D01*
X332966674Y-144548521D01*
X333220705Y-144718259D01*
X333436741Y-144934295D01*
X333606479Y-145188326D01*
X333723396Y-145470590D01*
X333783000Y-145770240D01*
X333783000Y-146075760D01*
X333723396Y-146375410D01*
X333606479Y-146657674D01*
X333436741Y-146911705D01*
X333220705Y-147127741D01*
X332966674Y-147297479D01*
X332684410Y-147414396D01*
X332534585Y-147444198D01*
X332384761Y-147474000D01*
X332079239Y-147474000D01*
X331929415Y-147444198D01*
X331779590Y-147414396D01*
X331497326Y-147297479D01*
X331243295Y-147127741D01*
X331027259Y-146911705D01*
X330857521Y-146657674D01*
X330740604Y-146375410D01*
X330681000Y-146075760D01*
X330681000Y-145770240D01*
X330740604Y-145470590D01*
X330857521Y-145188326D01*
X331027259Y-144934295D01*
X331243295Y-144718259D01*
X331497326Y-144548521D01*
X331779590Y-144431604D01*
X331929415Y-144401802D01*
X332079239Y-144372000D01*
X332384761Y-144372000D01*
X332534585Y-144401802D01*
X332534585Y-144401802D01*
G37*
G36*
X299260585Y-144401802D02*
G01*
X299410410Y-144431604D01*
X299692674Y-144548521D01*
X299946705Y-144718259D01*
X300162741Y-144934295D01*
X300332479Y-145188326D01*
X300449396Y-145470590D01*
X300509000Y-145770240D01*
X300509000Y-146075760D01*
X300449396Y-146375410D01*
X300332479Y-146657674D01*
X300162741Y-146911705D01*
X299946705Y-147127741D01*
X299692674Y-147297479D01*
X299410410Y-147414396D01*
X299260585Y-147444198D01*
X299110761Y-147474000D01*
X298805239Y-147474000D01*
X298655415Y-147444198D01*
X298505590Y-147414396D01*
X298223326Y-147297479D01*
X297969295Y-147127741D01*
X297753259Y-146911705D01*
X297583521Y-146657674D01*
X297466604Y-146375410D01*
X297407000Y-146075760D01*
X297407000Y-145770240D01*
X297466604Y-145470590D01*
X297583521Y-145188326D01*
X297753259Y-144934295D01*
X297969295Y-144718259D01*
X298223326Y-144548521D01*
X298505590Y-144431604D01*
X298655415Y-144401802D01*
X298805239Y-144372000D01*
X299110761Y-144372000D01*
X299260585Y-144401802D01*
X299260585Y-144401802D01*
G37*
G36*
X465884585Y-144401802D02*
G01*
X466034410Y-144431604D01*
X466316674Y-144548521D01*
X466570705Y-144718259D01*
X466786741Y-144934295D01*
X466956479Y-145188326D01*
X467073396Y-145470590D01*
X467133000Y-145770240D01*
X467133000Y-146075760D01*
X467073396Y-146375410D01*
X466956479Y-146657674D01*
X466786741Y-146911705D01*
X466570705Y-147127741D01*
X466316674Y-147297479D01*
X466034410Y-147414396D01*
X465884585Y-147444198D01*
X465734761Y-147474000D01*
X465429239Y-147474000D01*
X465279415Y-147444198D01*
X465129590Y-147414396D01*
X464847326Y-147297479D01*
X464593295Y-147127741D01*
X464377259Y-146911705D01*
X464207521Y-146657674D01*
X464090604Y-146375410D01*
X464031000Y-146075760D01*
X464031000Y-145770240D01*
X464090604Y-145470590D01*
X464207521Y-145188326D01*
X464377259Y-144934295D01*
X464593295Y-144718259D01*
X464847326Y-144548521D01*
X465129590Y-144431604D01*
X465279415Y-144401802D01*
X465429239Y-144372000D01*
X465734761Y-144372000D01*
X465884585Y-144401802D01*
X465884585Y-144401802D01*
G37*
G36*
X236911000Y-147224000D02*
G01*
X234259000Y-147224000D01*
X234259000Y-144622000D01*
X236911000Y-144622000D01*
X236911000Y-147224000D01*
X236911000Y-147224000D01*
G37*
G36*
X370134000Y-147224000D02*
G01*
X367482000Y-147224000D01*
X367482000Y-144622000D01*
X370134000Y-144622000D01*
X370134000Y-147224000D01*
X370134000Y-147224000D01*
G37*
G36*
X203510000Y-147224000D02*
G01*
X200858000Y-147224000D01*
X200858000Y-144622000D01*
X203510000Y-144622000D01*
X203510000Y-147224000D01*
X203510000Y-147224000D01*
G37*
G36*
X336860000Y-147224000D02*
G01*
X334208000Y-147224000D01*
X334208000Y-144622000D01*
X336860000Y-144622000D01*
X336860000Y-147224000D01*
X336860000Y-147224000D01*
G37*
G36*
X270185000Y-147224000D02*
G01*
X267533000Y-147224000D01*
X267533000Y-144622000D01*
X270185000Y-144622000D01*
X270185000Y-147224000D01*
X270185000Y-147224000D01*
G37*
G36*
X436936000Y-147224000D02*
G01*
X434284000Y-147224000D01*
X434284000Y-144622000D01*
X436936000Y-144622000D01*
X436936000Y-147224000D01*
X436936000Y-147224000D01*
G37*
G36*
X103561000Y-147224000D02*
G01*
X100909000Y-147224000D01*
X100909000Y-144622000D01*
X103561000Y-144622000D01*
X103561000Y-147224000D01*
X103561000Y-147224000D01*
G37*
G36*
X136962000Y-147224000D02*
G01*
X134310000Y-147224000D01*
X134310000Y-144622000D01*
X136962000Y-144622000D01*
X136962000Y-147224000D01*
X136962000Y-147224000D01*
G37*
G36*
X170236000Y-147224000D02*
G01*
X167584000Y-147224000D01*
X167584000Y-144622000D01*
X170236000Y-144622000D01*
X170236000Y-147224000D01*
X170236000Y-147224000D01*
G37*
G36*
X303586000Y-147224000D02*
G01*
X300934000Y-147224000D01*
X300934000Y-144622000D01*
X303586000Y-144622000D01*
X303586000Y-147224000D01*
X303586000Y-147224000D01*
G37*
G36*
X403535000Y-147224000D02*
G01*
X400883000Y-147224000D01*
X400883000Y-144622000D01*
X403535000Y-144622000D01*
X403535000Y-147224000D01*
X403535000Y-147224000D01*
G37*
G36*
X470210000Y-147224000D02*
G01*
X467558000Y-147224000D01*
X467558000Y-144622000D01*
X470210000Y-144622000D01*
X470210000Y-147224000D01*
X470210000Y-147224000D01*
G37*
G36*
X71995591Y-137908085D02*
G01*
X72029569Y-137918393D01*
X72060890Y-137935134D01*
X72088339Y-137957661D01*
X72110866Y-137985110D01*
X72127607Y-138016431D01*
X72137915Y-138050409D01*
X72142000Y-138091890D01*
X72142000Y-138768110D01*
X72137915Y-138809591D01*
X72127607Y-138843569D01*
X72110866Y-138874890D01*
X72088339Y-138902339D01*
X72060890Y-138924866D01*
X72029569Y-138941607D01*
X71995591Y-138951915D01*
X71954110Y-138956000D01*
X71352890Y-138956000D01*
X71311409Y-138951915D01*
X71277431Y-138941607D01*
X71246110Y-138924866D01*
X71218661Y-138902339D01*
X71196134Y-138874890D01*
X71179393Y-138843569D01*
X71169085Y-138809591D01*
X71165000Y-138768110D01*
X71165000Y-138091890D01*
X71169085Y-138050409D01*
X71179393Y-138016431D01*
X71196134Y-137985110D01*
X71218661Y-137957661D01*
X71246110Y-137935134D01*
X71277431Y-137918393D01*
X71311409Y-137908085D01*
X71352890Y-137904000D01*
X71954110Y-137904000D01*
X71995591Y-137908085D01*
X71995591Y-137908085D01*
G37*
G36*
X70420591Y-137908085D02*
G01*
X70454569Y-137918393D01*
X70485890Y-137935134D01*
X70513339Y-137957661D01*
X70535866Y-137985110D01*
X70552607Y-138016431D01*
X70562915Y-138050409D01*
X70567000Y-138091890D01*
X70567000Y-138768110D01*
X70562915Y-138809591D01*
X70552607Y-138843569D01*
X70535866Y-138874890D01*
X70513339Y-138902339D01*
X70485890Y-138924866D01*
X70454569Y-138941607D01*
X70420591Y-138951915D01*
X70379110Y-138956000D01*
X69777890Y-138956000D01*
X69736409Y-138951915D01*
X69702431Y-138941607D01*
X69671110Y-138924866D01*
X69643661Y-138902339D01*
X69621134Y-138874890D01*
X69604393Y-138843569D01*
X69594085Y-138809591D01*
X69590000Y-138768110D01*
X69590000Y-138091890D01*
X69594085Y-138050409D01*
X69604393Y-138016431D01*
X69621134Y-137985110D01*
X69643661Y-137957661D01*
X69671110Y-137935134D01*
X69702431Y-137918393D01*
X69736409Y-137908085D01*
X69777890Y-137904000D01*
X70379110Y-137904000D01*
X70420591Y-137908085D01*
X70420591Y-137908085D01*
G37*
G36*
X235474000Y-138168000D02*
G01*
X234172000Y-138168000D01*
X234172000Y-137166000D01*
X235474000Y-137166000D01*
X235474000Y-138168000D01*
X235474000Y-138168000D01*
G37*
G36*
X435499000Y-138168000D02*
G01*
X434197000Y-138168000D01*
X434197000Y-137166000D01*
X435499000Y-137166000D01*
X435499000Y-138168000D01*
X435499000Y-138168000D01*
G37*
G36*
X402098000Y-138168000D02*
G01*
X400796000Y-138168000D01*
X400796000Y-137166000D01*
X402098000Y-137166000D01*
X402098000Y-138168000D01*
X402098000Y-138168000D01*
G37*
G36*
X368824000Y-138168000D02*
G01*
X367522000Y-138168000D01*
X367522000Y-137166000D01*
X368824000Y-137166000D01*
X368824000Y-138168000D01*
X368824000Y-138168000D01*
G37*
G36*
X335423000Y-138168000D02*
G01*
X334121000Y-138168000D01*
X334121000Y-137166000D01*
X335423000Y-137166000D01*
X335423000Y-138168000D01*
X335423000Y-138168000D01*
G37*
G36*
X302149000Y-138168000D02*
G01*
X300847000Y-138168000D01*
X300847000Y-137166000D01*
X302149000Y-137166000D01*
X302149000Y-138168000D01*
X302149000Y-138168000D01*
G37*
G36*
X268748000Y-138168000D02*
G01*
X267446000Y-138168000D01*
X267446000Y-137166000D01*
X268748000Y-137166000D01*
X268748000Y-138168000D01*
X268748000Y-138168000D01*
G37*
G36*
X202073000Y-138168000D02*
G01*
X200771000Y-138168000D01*
X200771000Y-137166000D01*
X202073000Y-137166000D01*
X202073000Y-138168000D01*
X202073000Y-138168000D01*
G37*
G36*
X168799000Y-138168000D02*
G01*
X167497000Y-138168000D01*
X167497000Y-137166000D01*
X168799000Y-137166000D01*
X168799000Y-138168000D01*
X168799000Y-138168000D01*
G37*
G36*
X135398000Y-138168000D02*
G01*
X134096000Y-138168000D01*
X134096000Y-137166000D01*
X135398000Y-137166000D01*
X135398000Y-138168000D01*
X135398000Y-138168000D01*
G37*
G36*
X468773000Y-138168000D02*
G01*
X467471000Y-138168000D01*
X467471000Y-137166000D01*
X468773000Y-137166000D01*
X468773000Y-138168000D01*
X468773000Y-138168000D01*
G37*
G36*
X102124000Y-138168000D02*
G01*
X100822000Y-138168000D01*
X100822000Y-137166000D01*
X102124000Y-137166000D01*
X102124000Y-138168000D01*
X102124000Y-138168000D01*
G37*
G36*
X402098000Y-134868000D02*
G01*
X400796000Y-134868000D01*
X400796000Y-133866000D01*
X402098000Y-133866000D01*
X402098000Y-134868000D01*
X402098000Y-134868000D01*
G37*
G36*
X468773000Y-134868000D02*
G01*
X467471000Y-134868000D01*
X467471000Y-133866000D01*
X468773000Y-133866000D01*
X468773000Y-134868000D01*
X468773000Y-134868000D01*
G37*
G36*
X435499000Y-134868000D02*
G01*
X434197000Y-134868000D01*
X434197000Y-133866000D01*
X435499000Y-133866000D01*
X435499000Y-134868000D01*
X435499000Y-134868000D01*
G37*
G36*
X368824000Y-134868000D02*
G01*
X367522000Y-134868000D01*
X367522000Y-133866000D01*
X368824000Y-133866000D01*
X368824000Y-134868000D01*
X368824000Y-134868000D01*
G37*
G36*
X335423000Y-134868000D02*
G01*
X334121000Y-134868000D01*
X334121000Y-133866000D01*
X335423000Y-133866000D01*
X335423000Y-134868000D01*
X335423000Y-134868000D01*
G37*
G36*
X302149000Y-134868000D02*
G01*
X300847000Y-134868000D01*
X300847000Y-133866000D01*
X302149000Y-133866000D01*
X302149000Y-134868000D01*
X302149000Y-134868000D01*
G37*
G36*
X202073000Y-134868000D02*
G01*
X200771000Y-134868000D01*
X200771000Y-133866000D01*
X202073000Y-133866000D01*
X202073000Y-134868000D01*
X202073000Y-134868000D01*
G37*
G36*
X168799000Y-134868000D02*
G01*
X167497000Y-134868000D01*
X167497000Y-133866000D01*
X168799000Y-133866000D01*
X168799000Y-134868000D01*
X168799000Y-134868000D01*
G37*
G36*
X235474000Y-134868000D02*
G01*
X234172000Y-134868000D01*
X234172000Y-133866000D01*
X235474000Y-133866000D01*
X235474000Y-134868000D01*
X235474000Y-134868000D01*
G37*
G36*
X135398000Y-134868000D02*
G01*
X134096000Y-134868000D01*
X134096000Y-133866000D01*
X135398000Y-133866000D01*
X135398000Y-134868000D01*
X135398000Y-134868000D01*
G37*
G36*
X102124000Y-134868000D02*
G01*
X100822000Y-134868000D01*
X100822000Y-133866000D01*
X102124000Y-133866000D01*
X102124000Y-134868000D01*
X102124000Y-134868000D01*
G37*
G36*
X268748000Y-134868000D02*
G01*
X267446000Y-134868000D01*
X267446000Y-133866000D01*
X268748000Y-133866000D01*
X268748000Y-134868000D01*
X268748000Y-134868000D01*
G37*
G36*
X488178000Y-134161000D02*
G01*
X486676000Y-134161000D01*
X486676000Y-132259000D01*
X488178000Y-132259000D01*
X488178000Y-134161000D01*
X488178000Y-134161000D01*
G37*
G36*
X491478000Y-134161000D02*
G01*
X489976000Y-134161000D01*
X489976000Y-132259000D01*
X491478000Y-132259000D01*
X491478000Y-134161000D01*
X491478000Y-134161000D01*
G37*
G36*
X297014474Y-129986684D02*
G01*
X297232474Y-130076983D01*
X297386623Y-130140833D01*
X297721548Y-130364623D01*
X298006377Y-130649452D01*
X298230167Y-130984377D01*
X298262562Y-131062586D01*
X298384316Y-131356526D01*
X298462900Y-131751594D01*
X298462900Y-132154406D01*
X298384316Y-132549474D01*
X298333451Y-132672272D01*
X298230167Y-132921623D01*
X298006377Y-133256548D01*
X297721548Y-133541377D01*
X297386623Y-133765167D01*
X297232474Y-133829017D01*
X297014474Y-133919316D01*
X296619406Y-133997900D01*
X296216594Y-133997900D01*
X295821526Y-133919316D01*
X295603526Y-133829017D01*
X295449377Y-133765167D01*
X295114452Y-133541377D01*
X294829623Y-133256548D01*
X294605833Y-132921623D01*
X294502549Y-132672272D01*
X294451684Y-132549474D01*
X294373100Y-132154406D01*
X294373100Y-131751594D01*
X294451684Y-131356526D01*
X294573438Y-131062586D01*
X294605833Y-130984377D01*
X294829623Y-130649452D01*
X295114452Y-130364623D01*
X295449377Y-130140833D01*
X295603526Y-130076983D01*
X295821526Y-129986684D01*
X296216594Y-129908100D01*
X296619406Y-129908100D01*
X297014474Y-129986684D01*
X297014474Y-129986684D01*
G37*
G36*
X396963474Y-129986684D02*
G01*
X397181474Y-130076983D01*
X397335623Y-130140833D01*
X397670548Y-130364623D01*
X397955377Y-130649452D01*
X398179167Y-130984377D01*
X398211562Y-131062586D01*
X398333316Y-131356526D01*
X398411900Y-131751594D01*
X398411900Y-132154406D01*
X398333316Y-132549474D01*
X398282451Y-132672272D01*
X398179167Y-132921623D01*
X397955377Y-133256548D01*
X397670548Y-133541377D01*
X397335623Y-133765167D01*
X397181474Y-133829017D01*
X396963474Y-133919316D01*
X396568406Y-133997900D01*
X396165594Y-133997900D01*
X395770526Y-133919316D01*
X395552526Y-133829017D01*
X395398377Y-133765167D01*
X395063452Y-133541377D01*
X394778623Y-133256548D01*
X394554833Y-132921623D01*
X394451549Y-132672272D01*
X394400684Y-132549474D01*
X394322100Y-132154406D01*
X394322100Y-131751594D01*
X394400684Y-131356526D01*
X394522438Y-131062586D01*
X394554833Y-130984377D01*
X394778623Y-130649452D01*
X395063452Y-130364623D01*
X395398377Y-130140833D01*
X395552526Y-130076983D01*
X395770526Y-129986684D01*
X396165594Y-129908100D01*
X396568406Y-129908100D01*
X396963474Y-129986684D01*
X396963474Y-129986684D01*
G37*
G36*
X363689474Y-129986684D02*
G01*
X363907474Y-130076983D01*
X364061623Y-130140833D01*
X364396548Y-130364623D01*
X364681377Y-130649452D01*
X364905167Y-130984377D01*
X364937562Y-131062586D01*
X365059316Y-131356526D01*
X365137900Y-131751594D01*
X365137900Y-132154406D01*
X365059316Y-132549474D01*
X365008451Y-132672272D01*
X364905167Y-132921623D01*
X364681377Y-133256548D01*
X364396548Y-133541377D01*
X364061623Y-133765167D01*
X363907474Y-133829017D01*
X363689474Y-133919316D01*
X363294406Y-133997900D01*
X362891594Y-133997900D01*
X362496526Y-133919316D01*
X362278526Y-133829017D01*
X362124377Y-133765167D01*
X361789452Y-133541377D01*
X361504623Y-133256548D01*
X361280833Y-132921623D01*
X361177549Y-132672272D01*
X361126684Y-132549474D01*
X361048100Y-132154406D01*
X361048100Y-131751594D01*
X361126684Y-131356526D01*
X361248438Y-131062586D01*
X361280833Y-130984377D01*
X361504623Y-130649452D01*
X361789452Y-130364623D01*
X362124377Y-130140833D01*
X362278526Y-130076983D01*
X362496526Y-129986684D01*
X362891594Y-129908100D01*
X363294406Y-129908100D01*
X363689474Y-129986684D01*
X363689474Y-129986684D01*
G37*
G36*
X330288474Y-129986684D02*
G01*
X330506474Y-130076983D01*
X330660623Y-130140833D01*
X330995548Y-130364623D01*
X331280377Y-130649452D01*
X331504167Y-130984377D01*
X331536562Y-131062586D01*
X331658316Y-131356526D01*
X331736900Y-131751594D01*
X331736900Y-132154406D01*
X331658316Y-132549474D01*
X331607451Y-132672272D01*
X331504167Y-132921623D01*
X331280377Y-133256548D01*
X330995548Y-133541377D01*
X330660623Y-133765167D01*
X330506474Y-133829017D01*
X330288474Y-133919316D01*
X329893406Y-133997900D01*
X329490594Y-133997900D01*
X329095526Y-133919316D01*
X328877526Y-133829017D01*
X328723377Y-133765167D01*
X328388452Y-133541377D01*
X328103623Y-133256548D01*
X327879833Y-132921623D01*
X327776549Y-132672272D01*
X327725684Y-132549474D01*
X327647100Y-132154406D01*
X327647100Y-131751594D01*
X327725684Y-131356526D01*
X327847438Y-131062586D01*
X327879833Y-130984377D01*
X328103623Y-130649452D01*
X328388452Y-130364623D01*
X328723377Y-130140833D01*
X328877526Y-130076983D01*
X329095526Y-129986684D01*
X329490594Y-129908100D01*
X329893406Y-129908100D01*
X330288474Y-129986684D01*
X330288474Y-129986684D01*
G37*
G36*
X430364474Y-129986684D02*
G01*
X430582474Y-130076983D01*
X430736623Y-130140833D01*
X431071548Y-130364623D01*
X431356377Y-130649452D01*
X431580167Y-130984377D01*
X431612562Y-131062586D01*
X431734316Y-131356526D01*
X431812900Y-131751594D01*
X431812900Y-132154406D01*
X431734316Y-132549474D01*
X431683451Y-132672272D01*
X431580167Y-132921623D01*
X431356377Y-133256548D01*
X431071548Y-133541377D01*
X430736623Y-133765167D01*
X430582474Y-133829017D01*
X430364474Y-133919316D01*
X429969406Y-133997900D01*
X429566594Y-133997900D01*
X429171526Y-133919316D01*
X428953526Y-133829017D01*
X428799377Y-133765167D01*
X428464452Y-133541377D01*
X428179623Y-133256548D01*
X427955833Y-132921623D01*
X427852549Y-132672272D01*
X427801684Y-132549474D01*
X427723100Y-132154406D01*
X427723100Y-131751594D01*
X427801684Y-131356526D01*
X427923438Y-131062586D01*
X427955833Y-130984377D01*
X428179623Y-130649452D01*
X428464452Y-130364623D01*
X428799377Y-130140833D01*
X428953526Y-130076983D01*
X429171526Y-129986684D01*
X429566594Y-129908100D01*
X429969406Y-129908100D01*
X430364474Y-129986684D01*
X430364474Y-129986684D01*
G37*
G36*
X263613474Y-129986684D02*
G01*
X263831474Y-130076983D01*
X263985623Y-130140833D01*
X264320548Y-130364623D01*
X264605377Y-130649452D01*
X264829167Y-130984377D01*
X264861562Y-131062586D01*
X264983316Y-131356526D01*
X265061900Y-131751594D01*
X265061900Y-132154406D01*
X264983316Y-132549474D01*
X264932451Y-132672272D01*
X264829167Y-132921623D01*
X264605377Y-133256548D01*
X264320548Y-133541377D01*
X263985623Y-133765167D01*
X263831474Y-133829017D01*
X263613474Y-133919316D01*
X263218406Y-133997900D01*
X262815594Y-133997900D01*
X262420526Y-133919316D01*
X262202526Y-133829017D01*
X262048377Y-133765167D01*
X261713452Y-133541377D01*
X261428623Y-133256548D01*
X261204833Y-132921623D01*
X261101549Y-132672272D01*
X261050684Y-132549474D01*
X260972100Y-132154406D01*
X260972100Y-131751594D01*
X261050684Y-131356526D01*
X261172438Y-131062586D01*
X261204833Y-130984377D01*
X261428623Y-130649452D01*
X261713452Y-130364623D01*
X262048377Y-130140833D01*
X262202526Y-130076983D01*
X262420526Y-129986684D01*
X262815594Y-129908100D01*
X263218406Y-129908100D01*
X263613474Y-129986684D01*
X263613474Y-129986684D01*
G37*
G36*
X463638474Y-129986684D02*
G01*
X463856474Y-130076983D01*
X464010623Y-130140833D01*
X464345548Y-130364623D01*
X464630377Y-130649452D01*
X464854167Y-130984377D01*
X464886562Y-131062586D01*
X465008316Y-131356526D01*
X465086900Y-131751594D01*
X465086900Y-132154406D01*
X465008316Y-132549474D01*
X464957451Y-132672272D01*
X464854167Y-132921623D01*
X464630377Y-133256548D01*
X464345548Y-133541377D01*
X464010623Y-133765167D01*
X463856474Y-133829017D01*
X463638474Y-133919316D01*
X463243406Y-133997900D01*
X462840594Y-133997900D01*
X462445526Y-133919316D01*
X462227526Y-133829017D01*
X462073377Y-133765167D01*
X461738452Y-133541377D01*
X461453623Y-133256548D01*
X461229833Y-132921623D01*
X461126549Y-132672272D01*
X461075684Y-132549474D01*
X460997100Y-132154406D01*
X460997100Y-131751594D01*
X461075684Y-131356526D01*
X461197438Y-131062586D01*
X461229833Y-130984377D01*
X461453623Y-130649452D01*
X461738452Y-130364623D01*
X462073377Y-130140833D01*
X462227526Y-130076983D01*
X462445526Y-129986684D01*
X462840594Y-129908100D01*
X463243406Y-129908100D01*
X463638474Y-129986684D01*
X463638474Y-129986684D01*
G37*
G36*
X196938474Y-129986684D02*
G01*
X197156474Y-130076983D01*
X197310623Y-130140833D01*
X197645548Y-130364623D01*
X197930377Y-130649452D01*
X198154167Y-130984377D01*
X198186562Y-131062586D01*
X198308316Y-131356526D01*
X198386900Y-131751594D01*
X198386900Y-132154406D01*
X198308316Y-132549474D01*
X198257451Y-132672272D01*
X198154167Y-132921623D01*
X197930377Y-133256548D01*
X197645548Y-133541377D01*
X197310623Y-133765167D01*
X197156474Y-133829017D01*
X196938474Y-133919316D01*
X196543406Y-133997900D01*
X196140594Y-133997900D01*
X195745526Y-133919316D01*
X195527526Y-133829017D01*
X195373377Y-133765167D01*
X195038452Y-133541377D01*
X194753623Y-133256548D01*
X194529833Y-132921623D01*
X194426549Y-132672272D01*
X194375684Y-132549474D01*
X194297100Y-132154406D01*
X194297100Y-131751594D01*
X194375684Y-131356526D01*
X194497438Y-131062586D01*
X194529833Y-130984377D01*
X194753623Y-130649452D01*
X195038452Y-130364623D01*
X195373377Y-130140833D01*
X195527526Y-130076983D01*
X195745526Y-129986684D01*
X196140594Y-129908100D01*
X196543406Y-129908100D01*
X196938474Y-129986684D01*
X196938474Y-129986684D01*
G37*
G36*
X163664474Y-129986684D02*
G01*
X163882474Y-130076983D01*
X164036623Y-130140833D01*
X164371548Y-130364623D01*
X164656377Y-130649452D01*
X164880167Y-130984377D01*
X164912562Y-131062586D01*
X165034316Y-131356526D01*
X165112900Y-131751594D01*
X165112900Y-132154406D01*
X165034316Y-132549474D01*
X164983451Y-132672272D01*
X164880167Y-132921623D01*
X164656377Y-133256548D01*
X164371548Y-133541377D01*
X164036623Y-133765167D01*
X163882474Y-133829017D01*
X163664474Y-133919316D01*
X163269406Y-133997900D01*
X162866594Y-133997900D01*
X162471526Y-133919316D01*
X162253526Y-133829017D01*
X162099377Y-133765167D01*
X161764452Y-133541377D01*
X161479623Y-133256548D01*
X161255833Y-132921623D01*
X161152549Y-132672272D01*
X161101684Y-132549474D01*
X161023100Y-132154406D01*
X161023100Y-131751594D01*
X161101684Y-131356526D01*
X161223438Y-131062586D01*
X161255833Y-130984377D01*
X161479623Y-130649452D01*
X161764452Y-130364623D01*
X162099377Y-130140833D01*
X162253526Y-130076983D01*
X162471526Y-129986684D01*
X162866594Y-129908100D01*
X163269406Y-129908100D01*
X163664474Y-129986684D01*
X163664474Y-129986684D01*
G37*
G36*
X96989474Y-129986684D02*
G01*
X97207474Y-130076983D01*
X97361623Y-130140833D01*
X97696548Y-130364623D01*
X97981377Y-130649452D01*
X98205167Y-130984377D01*
X98237562Y-131062586D01*
X98359316Y-131356526D01*
X98437900Y-131751594D01*
X98437900Y-132154406D01*
X98359316Y-132549474D01*
X98308451Y-132672272D01*
X98205167Y-132921623D01*
X97981377Y-133256548D01*
X97696548Y-133541377D01*
X97361623Y-133765167D01*
X97207474Y-133829017D01*
X96989474Y-133919316D01*
X96594406Y-133997900D01*
X96191594Y-133997900D01*
X95796526Y-133919316D01*
X95578526Y-133829017D01*
X95424377Y-133765167D01*
X95089452Y-133541377D01*
X94804623Y-133256548D01*
X94580833Y-132921623D01*
X94477549Y-132672272D01*
X94426684Y-132549474D01*
X94348100Y-132154406D01*
X94348100Y-131751594D01*
X94426684Y-131356526D01*
X94548438Y-131062586D01*
X94580833Y-130984377D01*
X94804623Y-130649452D01*
X95089452Y-130364623D01*
X95424377Y-130140833D01*
X95578526Y-130076983D01*
X95796526Y-129986684D01*
X96191594Y-129908100D01*
X96594406Y-129908100D01*
X96989474Y-129986684D01*
X96989474Y-129986684D01*
G37*
G36*
X130263474Y-129986684D02*
G01*
X130481474Y-130076983D01*
X130635623Y-130140833D01*
X130970548Y-130364623D01*
X131255377Y-130649452D01*
X131479167Y-130984377D01*
X131511562Y-131062586D01*
X131633316Y-131356526D01*
X131711900Y-131751594D01*
X131711900Y-132154406D01*
X131633316Y-132549474D01*
X131582451Y-132672272D01*
X131479167Y-132921623D01*
X131255377Y-133256548D01*
X130970548Y-133541377D01*
X130635623Y-133765167D01*
X130481474Y-133829017D01*
X130263474Y-133919316D01*
X129868406Y-133997900D01*
X129465594Y-133997900D01*
X129070526Y-133919316D01*
X128852526Y-133829017D01*
X128698377Y-133765167D01*
X128363452Y-133541377D01*
X128078623Y-133256548D01*
X127854833Y-132921623D01*
X127751549Y-132672272D01*
X127700684Y-132549474D01*
X127622100Y-132154406D01*
X127622100Y-131751594D01*
X127700684Y-131356526D01*
X127822438Y-131062586D01*
X127854833Y-130984377D01*
X128078623Y-130649452D01*
X128363452Y-130364623D01*
X128698377Y-130140833D01*
X128852526Y-130076983D01*
X129070526Y-129986684D01*
X129465594Y-129908100D01*
X129868406Y-129908100D01*
X130263474Y-129986684D01*
X130263474Y-129986684D01*
G37*
G36*
X230339474Y-129986684D02*
G01*
X230557474Y-130076983D01*
X230711623Y-130140833D01*
X231046548Y-130364623D01*
X231331377Y-130649452D01*
X231555167Y-130984377D01*
X231587562Y-131062586D01*
X231709316Y-131356526D01*
X231787900Y-131751594D01*
X231787900Y-132154406D01*
X231709316Y-132549474D01*
X231658451Y-132672272D01*
X231555167Y-132921623D01*
X231331377Y-133256548D01*
X231046548Y-133541377D01*
X230711623Y-133765167D01*
X230557474Y-133829017D01*
X230339474Y-133919316D01*
X229944406Y-133997900D01*
X229541594Y-133997900D01*
X229146526Y-133919316D01*
X228928526Y-133829017D01*
X228774377Y-133765167D01*
X228439452Y-133541377D01*
X228154623Y-133256548D01*
X227930833Y-132921623D01*
X227827549Y-132672272D01*
X227776684Y-132549474D01*
X227698100Y-132154406D01*
X227698100Y-131751594D01*
X227776684Y-131356526D01*
X227898438Y-131062586D01*
X227930833Y-130984377D01*
X228154623Y-130649452D01*
X228439452Y-130364623D01*
X228774377Y-130140833D01*
X228928526Y-130076983D01*
X229146526Y-129986684D01*
X229541594Y-129908100D01*
X229944406Y-129908100D01*
X230339474Y-129986684D01*
X230339474Y-129986684D01*
G37*
G36*
X301768104Y-131062585D02*
G01*
X301936626Y-131132389D01*
X302088291Y-131233728D01*
X302217272Y-131362709D01*
X302318611Y-131514374D01*
X302388415Y-131682896D01*
X302424000Y-131861797D01*
X302424000Y-132044203D01*
X302388415Y-132223104D01*
X302318611Y-132391626D01*
X302217272Y-132543291D01*
X302088291Y-132672272D01*
X301936626Y-132773611D01*
X301768104Y-132843415D01*
X301589203Y-132879000D01*
X301406797Y-132879000D01*
X301227896Y-132843415D01*
X301059374Y-132773611D01*
X300907709Y-132672272D01*
X300778728Y-132543291D01*
X300677389Y-132391626D01*
X300607585Y-132223104D01*
X300572000Y-132044203D01*
X300572000Y-131861797D01*
X300607585Y-131682896D01*
X300677389Y-131514374D01*
X300778728Y-131362709D01*
X300907709Y-131233728D01*
X301059374Y-131132389D01*
X301227896Y-131062585D01*
X301406797Y-131027000D01*
X301589203Y-131027000D01*
X301768104Y-131062585D01*
X301768104Y-131062585D01*
G37*
G36*
X324882104Y-131062585D02*
G01*
X325050626Y-131132389D01*
X325202291Y-131233728D01*
X325331272Y-131362709D01*
X325432611Y-131514374D01*
X325502415Y-131682896D01*
X325538000Y-131861797D01*
X325538000Y-132044203D01*
X325502415Y-132223104D01*
X325432611Y-132391626D01*
X325331272Y-132543291D01*
X325202291Y-132672272D01*
X325050626Y-132773611D01*
X324882104Y-132843415D01*
X324703203Y-132879000D01*
X324520797Y-132879000D01*
X324341896Y-132843415D01*
X324173374Y-132773611D01*
X324021709Y-132672272D01*
X323892728Y-132543291D01*
X323791389Y-132391626D01*
X323721585Y-132223104D01*
X323686000Y-132044203D01*
X323686000Y-131861797D01*
X323721585Y-131682896D01*
X323791389Y-131514374D01*
X323892728Y-131362709D01*
X324021709Y-131233728D01*
X324173374Y-131132389D01*
X324341896Y-131062585D01*
X324520797Y-131027000D01*
X324703203Y-131027000D01*
X324882104Y-131062585D01*
X324882104Y-131062585D01*
G37*
G36*
X358283104Y-131062585D02*
G01*
X358451626Y-131132389D01*
X358603291Y-131233728D01*
X358732272Y-131362709D01*
X358833611Y-131514374D01*
X358903415Y-131682896D01*
X358939000Y-131861797D01*
X358939000Y-132044203D01*
X358903415Y-132223104D01*
X358833611Y-132391626D01*
X358732272Y-132543291D01*
X358603291Y-132672272D01*
X358451626Y-132773611D01*
X358283104Y-132843415D01*
X358104203Y-132879000D01*
X357921797Y-132879000D01*
X357742896Y-132843415D01*
X357574374Y-132773611D01*
X357422709Y-132672272D01*
X357293728Y-132543291D01*
X357192389Y-132391626D01*
X357122585Y-132223104D01*
X357087000Y-132044203D01*
X357087000Y-131861797D01*
X357122585Y-131682896D01*
X357192389Y-131514374D01*
X357293728Y-131362709D01*
X357422709Y-131233728D01*
X357574374Y-131132389D01*
X357742896Y-131062585D01*
X357921797Y-131027000D01*
X358104203Y-131027000D01*
X358283104Y-131062585D01*
X358283104Y-131062585D01*
G37*
G36*
X368443104Y-131062585D02*
G01*
X368611626Y-131132389D01*
X368763291Y-131233728D01*
X368892272Y-131362709D01*
X368993611Y-131514374D01*
X369063415Y-131682896D01*
X369099000Y-131861797D01*
X369099000Y-132044203D01*
X369063415Y-132223104D01*
X368993611Y-132391626D01*
X368892272Y-132543291D01*
X368763291Y-132672272D01*
X368611626Y-132773611D01*
X368443104Y-132843415D01*
X368264203Y-132879000D01*
X368081797Y-132879000D01*
X367902896Y-132843415D01*
X367734374Y-132773611D01*
X367582709Y-132672272D01*
X367453728Y-132543291D01*
X367352389Y-132391626D01*
X367282585Y-132223104D01*
X367247000Y-132044203D01*
X367247000Y-131861797D01*
X367282585Y-131682896D01*
X367352389Y-131514374D01*
X367453728Y-131362709D01*
X367582709Y-131233728D01*
X367734374Y-131132389D01*
X367902896Y-131062585D01*
X368081797Y-131027000D01*
X368264203Y-131027000D01*
X368443104Y-131062585D01*
X368443104Y-131062585D01*
G37*
G36*
X468392104Y-131062585D02*
G01*
X468560626Y-131132389D01*
X468712291Y-131233728D01*
X468841272Y-131362709D01*
X468942611Y-131514374D01*
X469012415Y-131682896D01*
X469048000Y-131861797D01*
X469048000Y-132044203D01*
X469012415Y-132223104D01*
X468942611Y-132391626D01*
X468841272Y-132543291D01*
X468712291Y-132672272D01*
X468560626Y-132773611D01*
X468392104Y-132843415D01*
X468213203Y-132879000D01*
X468030797Y-132879000D01*
X467851896Y-132843415D01*
X467683374Y-132773611D01*
X467531709Y-132672272D01*
X467402728Y-132543291D01*
X467301389Y-132391626D01*
X467231585Y-132223104D01*
X467196000Y-132044203D01*
X467196000Y-131861797D01*
X467231585Y-131682896D01*
X467301389Y-131514374D01*
X467402728Y-131362709D01*
X467531709Y-131233728D01*
X467683374Y-131132389D01*
X467851896Y-131062585D01*
X468030797Y-131027000D01*
X468213203Y-131027000D01*
X468392104Y-131062585D01*
X468392104Y-131062585D01*
G37*
G36*
X458232104Y-131062585D02*
G01*
X458400626Y-131132389D01*
X458552291Y-131233728D01*
X458681272Y-131362709D01*
X458782611Y-131514374D01*
X458852415Y-131682896D01*
X458888000Y-131861797D01*
X458888000Y-132044203D01*
X458852415Y-132223104D01*
X458782611Y-132391626D01*
X458681272Y-132543291D01*
X458552291Y-132672272D01*
X458400626Y-132773611D01*
X458232104Y-132843415D01*
X458053203Y-132879000D01*
X457870797Y-132879000D01*
X457691896Y-132843415D01*
X457523374Y-132773611D01*
X457371709Y-132672272D01*
X457242728Y-132543291D01*
X457141389Y-132391626D01*
X457071585Y-132223104D01*
X457036000Y-132044203D01*
X457036000Y-131861797D01*
X457071585Y-131682896D01*
X457141389Y-131514374D01*
X457242728Y-131362709D01*
X457371709Y-131233728D01*
X457523374Y-131132389D01*
X457691896Y-131062585D01*
X457870797Y-131027000D01*
X458053203Y-131027000D01*
X458232104Y-131062585D01*
X458232104Y-131062585D01*
G37*
G36*
X435118104Y-131062585D02*
G01*
X435286626Y-131132389D01*
X435438291Y-131233728D01*
X435567272Y-131362709D01*
X435668611Y-131514374D01*
X435738415Y-131682896D01*
X435774000Y-131861797D01*
X435774000Y-132044203D01*
X435738415Y-132223104D01*
X435668611Y-132391626D01*
X435567272Y-132543291D01*
X435438291Y-132672272D01*
X435286626Y-132773611D01*
X435118104Y-132843415D01*
X434939203Y-132879000D01*
X434756797Y-132879000D01*
X434577896Y-132843415D01*
X434409374Y-132773611D01*
X434257709Y-132672272D01*
X434128728Y-132543291D01*
X434027389Y-132391626D01*
X433957585Y-132223104D01*
X433922000Y-132044203D01*
X433922000Y-131861797D01*
X433957585Y-131682896D01*
X434027389Y-131514374D01*
X434128728Y-131362709D01*
X434257709Y-131233728D01*
X434409374Y-131132389D01*
X434577896Y-131062585D01*
X434756797Y-131027000D01*
X434939203Y-131027000D01*
X435118104Y-131062585D01*
X435118104Y-131062585D01*
G37*
G36*
X424958104Y-131062585D02*
G01*
X425126626Y-131132389D01*
X425278291Y-131233728D01*
X425407272Y-131362709D01*
X425508611Y-131514374D01*
X425578415Y-131682896D01*
X425614000Y-131861797D01*
X425614000Y-132044203D01*
X425578415Y-132223104D01*
X425508611Y-132391626D01*
X425407272Y-132543291D01*
X425278291Y-132672272D01*
X425126626Y-132773611D01*
X424958104Y-132843415D01*
X424779203Y-132879000D01*
X424596797Y-132879000D01*
X424417896Y-132843415D01*
X424249374Y-132773611D01*
X424097709Y-132672272D01*
X423968728Y-132543291D01*
X423867389Y-132391626D01*
X423797585Y-132223104D01*
X423762000Y-132044203D01*
X423762000Y-131861797D01*
X423797585Y-131682896D01*
X423867389Y-131514374D01*
X423968728Y-131362709D01*
X424097709Y-131233728D01*
X424249374Y-131132389D01*
X424417896Y-131062585D01*
X424596797Y-131027000D01*
X424779203Y-131027000D01*
X424958104Y-131062585D01*
X424958104Y-131062585D01*
G37*
G36*
X401717104Y-131062585D02*
G01*
X401885626Y-131132389D01*
X402037291Y-131233728D01*
X402166272Y-131362709D01*
X402267611Y-131514374D01*
X402337415Y-131682896D01*
X402373000Y-131861797D01*
X402373000Y-132044203D01*
X402337415Y-132223104D01*
X402267611Y-132391626D01*
X402166272Y-132543291D01*
X402037291Y-132672272D01*
X401885626Y-132773611D01*
X401717104Y-132843415D01*
X401538203Y-132879000D01*
X401355797Y-132879000D01*
X401176896Y-132843415D01*
X401008374Y-132773611D01*
X400856709Y-132672272D01*
X400727728Y-132543291D01*
X400626389Y-132391626D01*
X400556585Y-132223104D01*
X400521000Y-132044203D01*
X400521000Y-131861797D01*
X400556585Y-131682896D01*
X400626389Y-131514374D01*
X400727728Y-131362709D01*
X400856709Y-131233728D01*
X401008374Y-131132389D01*
X401176896Y-131062585D01*
X401355797Y-131027000D01*
X401538203Y-131027000D01*
X401717104Y-131062585D01*
X401717104Y-131062585D01*
G37*
G36*
X391557104Y-131062585D02*
G01*
X391725626Y-131132389D01*
X391877291Y-131233728D01*
X392006272Y-131362709D01*
X392107611Y-131514374D01*
X392177415Y-131682896D01*
X392213000Y-131861797D01*
X392213000Y-132044203D01*
X392177415Y-132223104D01*
X392107611Y-132391626D01*
X392006272Y-132543291D01*
X391877291Y-132672272D01*
X391725626Y-132773611D01*
X391557104Y-132843415D01*
X391378203Y-132879000D01*
X391195797Y-132879000D01*
X391016896Y-132843415D01*
X390848374Y-132773611D01*
X390696709Y-132672272D01*
X390567728Y-132543291D01*
X390466389Y-132391626D01*
X390396585Y-132223104D01*
X390361000Y-132044203D01*
X390361000Y-131861797D01*
X390396585Y-131682896D01*
X390466389Y-131514374D01*
X390567728Y-131362709D01*
X390696709Y-131233728D01*
X390848374Y-131132389D01*
X391016896Y-131062585D01*
X391195797Y-131027000D01*
X391378203Y-131027000D01*
X391557104Y-131062585D01*
X391557104Y-131062585D01*
G37*
G36*
X101743104Y-131062585D02*
G01*
X101911626Y-131132389D01*
X102063291Y-131233728D01*
X102192272Y-131362709D01*
X102293611Y-131514374D01*
X102363415Y-131682896D01*
X102399000Y-131861797D01*
X102399000Y-132044203D01*
X102363415Y-132223104D01*
X102293611Y-132391626D01*
X102192272Y-132543291D01*
X102063291Y-132672272D01*
X101911626Y-132773611D01*
X101743104Y-132843415D01*
X101564203Y-132879000D01*
X101381797Y-132879000D01*
X101202896Y-132843415D01*
X101034374Y-132773611D01*
X100882709Y-132672272D01*
X100753728Y-132543291D01*
X100652389Y-132391626D01*
X100582585Y-132223104D01*
X100547000Y-132044203D01*
X100547000Y-131861797D01*
X100582585Y-131682896D01*
X100652389Y-131514374D01*
X100753728Y-131362709D01*
X100882709Y-131233728D01*
X101034374Y-131132389D01*
X101202896Y-131062585D01*
X101381797Y-131027000D01*
X101564203Y-131027000D01*
X101743104Y-131062585D01*
X101743104Y-131062585D01*
G37*
G36*
X91583104Y-131062585D02*
G01*
X91751626Y-131132389D01*
X91903291Y-131233728D01*
X92032272Y-131362709D01*
X92133611Y-131514374D01*
X92203415Y-131682896D01*
X92239000Y-131861797D01*
X92239000Y-132044203D01*
X92203415Y-132223104D01*
X92133611Y-132391626D01*
X92032272Y-132543291D01*
X91903291Y-132672272D01*
X91751626Y-132773611D01*
X91583104Y-132843415D01*
X91404203Y-132879000D01*
X91221797Y-132879000D01*
X91042896Y-132843415D01*
X90874374Y-132773611D01*
X90722709Y-132672272D01*
X90593728Y-132543291D01*
X90492389Y-132391626D01*
X90422585Y-132223104D01*
X90387000Y-132044203D01*
X90387000Y-131861797D01*
X90422585Y-131682896D01*
X90492389Y-131514374D01*
X90593728Y-131362709D01*
X90722709Y-131233728D01*
X90874374Y-131132389D01*
X91042896Y-131062585D01*
X91221797Y-131027000D01*
X91404203Y-131027000D01*
X91583104Y-131062585D01*
X91583104Y-131062585D01*
G37*
G36*
X268367104Y-131062585D02*
G01*
X268535626Y-131132389D01*
X268687291Y-131233728D01*
X268816272Y-131362709D01*
X268917611Y-131514374D01*
X268987415Y-131682896D01*
X269023000Y-131861797D01*
X269023000Y-132044203D01*
X268987415Y-132223104D01*
X268917611Y-132391626D01*
X268816272Y-132543291D01*
X268687291Y-132672272D01*
X268535626Y-132773611D01*
X268367104Y-132843415D01*
X268188203Y-132879000D01*
X268005797Y-132879000D01*
X267826896Y-132843415D01*
X267658374Y-132773611D01*
X267506709Y-132672272D01*
X267377728Y-132543291D01*
X267276389Y-132391626D01*
X267206585Y-132223104D01*
X267171000Y-132044203D01*
X267171000Y-131861797D01*
X267206585Y-131682896D01*
X267276389Y-131514374D01*
X267377728Y-131362709D01*
X267506709Y-131233728D01*
X267658374Y-131132389D01*
X267826896Y-131062585D01*
X268005797Y-131027000D01*
X268188203Y-131027000D01*
X268367104Y-131062585D01*
X268367104Y-131062585D01*
G37*
G36*
X291608104Y-131062585D02*
G01*
X291776626Y-131132389D01*
X291928291Y-131233728D01*
X292057272Y-131362709D01*
X292158611Y-131514374D01*
X292228415Y-131682896D01*
X292264000Y-131861797D01*
X292264000Y-132044203D01*
X292228415Y-132223104D01*
X292158611Y-132391626D01*
X292057272Y-132543291D01*
X291928291Y-132672272D01*
X291776626Y-132773611D01*
X291608104Y-132843415D01*
X291429203Y-132879000D01*
X291246797Y-132879000D01*
X291067896Y-132843415D01*
X290899374Y-132773611D01*
X290747709Y-132672272D01*
X290618728Y-132543291D01*
X290517389Y-132391626D01*
X290447585Y-132223104D01*
X290412000Y-132044203D01*
X290412000Y-131861797D01*
X290447585Y-131682896D01*
X290517389Y-131514374D01*
X290618728Y-131362709D01*
X290747709Y-131233728D01*
X290899374Y-131132389D01*
X291067896Y-131062585D01*
X291246797Y-131027000D01*
X291429203Y-131027000D01*
X291608104Y-131062585D01*
X291608104Y-131062585D01*
G37*
G36*
X135017104Y-131062585D02*
G01*
X135185626Y-131132389D01*
X135337291Y-131233728D01*
X135466272Y-131362709D01*
X135567611Y-131514374D01*
X135637415Y-131682896D01*
X135673000Y-131861797D01*
X135673000Y-132044203D01*
X135637415Y-132223104D01*
X135567611Y-132391626D01*
X135466272Y-132543291D01*
X135337291Y-132672272D01*
X135185626Y-132773611D01*
X135017104Y-132843415D01*
X134838203Y-132879000D01*
X134655797Y-132879000D01*
X134476896Y-132843415D01*
X134308374Y-132773611D01*
X134156709Y-132672272D01*
X134027728Y-132543291D01*
X133926389Y-132391626D01*
X133856585Y-132223104D01*
X133821000Y-132044203D01*
X133821000Y-131861797D01*
X133856585Y-131682896D01*
X133926389Y-131514374D01*
X134027728Y-131362709D01*
X134156709Y-131233728D01*
X134308374Y-131132389D01*
X134476896Y-131062585D01*
X134655797Y-131027000D01*
X134838203Y-131027000D01*
X135017104Y-131062585D01*
X135017104Y-131062585D01*
G37*
G36*
X335042104Y-131062585D02*
G01*
X335210626Y-131132389D01*
X335362291Y-131233728D01*
X335491272Y-131362709D01*
X335592611Y-131514374D01*
X335662415Y-131682896D01*
X335698000Y-131861797D01*
X335698000Y-132044203D01*
X335662415Y-132223104D01*
X335592611Y-132391626D01*
X335491272Y-132543291D01*
X335362291Y-132672272D01*
X335210626Y-132773611D01*
X335042104Y-132843415D01*
X334863203Y-132879000D01*
X334680797Y-132879000D01*
X334501896Y-132843415D01*
X334333374Y-132773611D01*
X334181709Y-132672272D01*
X334052728Y-132543291D01*
X333951389Y-132391626D01*
X333881585Y-132223104D01*
X333846000Y-132044203D01*
X333846000Y-131861797D01*
X333881585Y-131682896D01*
X333951389Y-131514374D01*
X334052728Y-131362709D01*
X334181709Y-131233728D01*
X334333374Y-131132389D01*
X334501896Y-131062585D01*
X334680797Y-131027000D01*
X334863203Y-131027000D01*
X335042104Y-131062585D01*
X335042104Y-131062585D01*
G37*
G36*
X124857104Y-131062585D02*
G01*
X125025626Y-131132389D01*
X125177291Y-131233728D01*
X125306272Y-131362709D01*
X125407611Y-131514374D01*
X125477415Y-131682896D01*
X125513000Y-131861797D01*
X125513000Y-132044203D01*
X125477415Y-132223104D01*
X125407611Y-132391626D01*
X125306272Y-132543291D01*
X125177291Y-132672272D01*
X125025626Y-132773611D01*
X124857104Y-132843415D01*
X124678203Y-132879000D01*
X124495797Y-132879000D01*
X124316896Y-132843415D01*
X124148374Y-132773611D01*
X123996709Y-132672272D01*
X123867728Y-132543291D01*
X123766389Y-132391626D01*
X123696585Y-132223104D01*
X123661000Y-132044203D01*
X123661000Y-131861797D01*
X123696585Y-131682896D01*
X123766389Y-131514374D01*
X123867728Y-131362709D01*
X123996709Y-131233728D01*
X124148374Y-131132389D01*
X124316896Y-131062585D01*
X124495797Y-131027000D01*
X124678203Y-131027000D01*
X124857104Y-131062585D01*
X124857104Y-131062585D01*
G37*
G36*
X191532104Y-131062585D02*
G01*
X191700626Y-131132389D01*
X191852291Y-131233728D01*
X191981272Y-131362709D01*
X192082611Y-131514374D01*
X192152415Y-131682896D01*
X192188000Y-131861797D01*
X192188000Y-132044203D01*
X192152415Y-132223104D01*
X192082611Y-132391626D01*
X191981272Y-132543291D01*
X191852291Y-132672272D01*
X191700626Y-132773611D01*
X191532104Y-132843415D01*
X191353203Y-132879000D01*
X191170797Y-132879000D01*
X190991896Y-132843415D01*
X190823374Y-132773611D01*
X190671709Y-132672272D01*
X190542728Y-132543291D01*
X190441389Y-132391626D01*
X190371585Y-132223104D01*
X190336000Y-132044203D01*
X190336000Y-131861797D01*
X190371585Y-131682896D01*
X190441389Y-131514374D01*
X190542728Y-131362709D01*
X190671709Y-131233728D01*
X190823374Y-131132389D01*
X190991896Y-131062585D01*
X191170797Y-131027000D01*
X191353203Y-131027000D01*
X191532104Y-131062585D01*
X191532104Y-131062585D01*
G37*
G36*
X158258104Y-131062585D02*
G01*
X158426626Y-131132389D01*
X158578291Y-131233728D01*
X158707272Y-131362709D01*
X158808611Y-131514374D01*
X158878415Y-131682896D01*
X158914000Y-131861797D01*
X158914000Y-132044203D01*
X158878415Y-132223104D01*
X158808611Y-132391626D01*
X158707272Y-132543291D01*
X158578291Y-132672272D01*
X158426626Y-132773611D01*
X158258104Y-132843415D01*
X158079203Y-132879000D01*
X157896797Y-132879000D01*
X157717896Y-132843415D01*
X157549374Y-132773611D01*
X157397709Y-132672272D01*
X157268728Y-132543291D01*
X157167389Y-132391626D01*
X157097585Y-132223104D01*
X157062000Y-132044203D01*
X157062000Y-131861797D01*
X157097585Y-131682896D01*
X157167389Y-131514374D01*
X157268728Y-131362709D01*
X157397709Y-131233728D01*
X157549374Y-131132389D01*
X157717896Y-131062585D01*
X157896797Y-131027000D01*
X158079203Y-131027000D01*
X158258104Y-131062585D01*
X158258104Y-131062585D01*
G37*
G36*
X168418104Y-131062585D02*
G01*
X168586626Y-131132389D01*
X168738291Y-131233728D01*
X168867272Y-131362709D01*
X168968611Y-131514374D01*
X169038415Y-131682896D01*
X169074000Y-131861797D01*
X169074000Y-132044203D01*
X169038415Y-132223104D01*
X168968611Y-132391626D01*
X168867272Y-132543291D01*
X168738291Y-132672272D01*
X168586626Y-132773611D01*
X168418104Y-132843415D01*
X168239203Y-132879000D01*
X168056797Y-132879000D01*
X167877896Y-132843415D01*
X167709374Y-132773611D01*
X167557709Y-132672272D01*
X167428728Y-132543291D01*
X167327389Y-132391626D01*
X167257585Y-132223104D01*
X167222000Y-132044203D01*
X167222000Y-131861797D01*
X167257585Y-131682896D01*
X167327389Y-131514374D01*
X167428728Y-131362709D01*
X167557709Y-131233728D01*
X167709374Y-131132389D01*
X167877896Y-131062585D01*
X168056797Y-131027000D01*
X168239203Y-131027000D01*
X168418104Y-131062585D01*
X168418104Y-131062585D01*
G37*
G36*
X201692104Y-131062585D02*
G01*
X201860626Y-131132389D01*
X202012291Y-131233728D01*
X202141272Y-131362709D01*
X202242611Y-131514374D01*
X202312415Y-131682896D01*
X202348000Y-131861797D01*
X202348000Y-132044203D01*
X202312415Y-132223104D01*
X202242611Y-132391626D01*
X202141272Y-132543291D01*
X202012291Y-132672272D01*
X201860626Y-132773611D01*
X201692104Y-132843415D01*
X201513203Y-132879000D01*
X201330797Y-132879000D01*
X201151896Y-132843415D01*
X200983374Y-132773611D01*
X200831709Y-132672272D01*
X200702728Y-132543291D01*
X200601389Y-132391626D01*
X200531585Y-132223104D01*
X200496000Y-132044203D01*
X200496000Y-131861797D01*
X200531585Y-131682896D01*
X200601389Y-131514374D01*
X200702728Y-131362709D01*
X200831709Y-131233728D01*
X200983374Y-131132389D01*
X201151896Y-131062585D01*
X201330797Y-131027000D01*
X201513203Y-131027000D01*
X201692104Y-131062585D01*
X201692104Y-131062585D01*
G37*
G36*
X224933104Y-131062585D02*
G01*
X225101626Y-131132389D01*
X225253291Y-131233728D01*
X225382272Y-131362709D01*
X225483611Y-131514374D01*
X225553415Y-131682896D01*
X225589000Y-131861797D01*
X225589000Y-132044203D01*
X225553415Y-132223104D01*
X225483611Y-132391626D01*
X225382272Y-132543291D01*
X225253291Y-132672272D01*
X225101626Y-132773611D01*
X224933104Y-132843415D01*
X224754203Y-132879000D01*
X224571797Y-132879000D01*
X224392896Y-132843415D01*
X224224374Y-132773611D01*
X224072709Y-132672272D01*
X223943728Y-132543291D01*
X223842389Y-132391626D01*
X223772585Y-132223104D01*
X223737000Y-132044203D01*
X223737000Y-131861797D01*
X223772585Y-131682896D01*
X223842389Y-131514374D01*
X223943728Y-131362709D01*
X224072709Y-131233728D01*
X224224374Y-131132389D01*
X224392896Y-131062585D01*
X224571797Y-131027000D01*
X224754203Y-131027000D01*
X224933104Y-131062585D01*
X224933104Y-131062585D01*
G37*
G36*
X235093104Y-131062585D02*
G01*
X235261626Y-131132389D01*
X235413291Y-131233728D01*
X235542272Y-131362709D01*
X235643611Y-131514374D01*
X235713415Y-131682896D01*
X235749000Y-131861797D01*
X235749000Y-132044203D01*
X235713415Y-132223104D01*
X235643611Y-132391626D01*
X235542272Y-132543291D01*
X235413291Y-132672272D01*
X235261626Y-132773611D01*
X235093104Y-132843415D01*
X234914203Y-132879000D01*
X234731797Y-132879000D01*
X234552896Y-132843415D01*
X234384374Y-132773611D01*
X234232709Y-132672272D01*
X234103728Y-132543291D01*
X234002389Y-132391626D01*
X233932585Y-132223104D01*
X233897000Y-132044203D01*
X233897000Y-131861797D01*
X233932585Y-131682896D01*
X234002389Y-131514374D01*
X234103728Y-131362709D01*
X234232709Y-131233728D01*
X234384374Y-131132389D01*
X234552896Y-131062585D01*
X234731797Y-131027000D01*
X234914203Y-131027000D01*
X235093104Y-131062585D01*
X235093104Y-131062585D01*
G37*
G36*
X258207104Y-131062585D02*
G01*
X258375626Y-131132389D01*
X258527291Y-131233728D01*
X258656272Y-131362709D01*
X258757611Y-131514374D01*
X258827415Y-131682896D01*
X258863000Y-131861797D01*
X258863000Y-132044203D01*
X258827415Y-132223104D01*
X258757611Y-132391626D01*
X258656272Y-132543291D01*
X258527291Y-132672272D01*
X258375626Y-132773611D01*
X258207104Y-132843415D01*
X258028203Y-132879000D01*
X257845797Y-132879000D01*
X257666896Y-132843415D01*
X257498374Y-132773611D01*
X257346709Y-132672272D01*
X257217728Y-132543291D01*
X257116389Y-132391626D01*
X257046585Y-132223104D01*
X257011000Y-132044203D01*
X257011000Y-131861797D01*
X257046585Y-131682896D01*
X257116389Y-131514374D01*
X257217728Y-131362709D01*
X257346709Y-131233728D01*
X257498374Y-131132389D01*
X257666896Y-131062585D01*
X257845797Y-131027000D01*
X258028203Y-131027000D01*
X258207104Y-131062585D01*
X258207104Y-131062585D01*
G37*
G36*
X73013000Y-132637000D02*
G01*
X71511000Y-132637000D01*
X71511000Y-130735000D01*
X73013000Y-130735000D01*
X73013000Y-132637000D01*
X73013000Y-132637000D01*
G37*
G36*
X69713000Y-132637000D02*
G01*
X68211000Y-132637000D01*
X68211000Y-130735000D01*
X69713000Y-130735000D01*
X69713000Y-132637000D01*
X69713000Y-132637000D01*
G37*
G36*
X459534585Y-127891802D02*
G01*
X459684410Y-127921604D01*
X459966674Y-128038521D01*
X460220705Y-128208259D01*
X460436741Y-128424295D01*
X460606479Y-128678326D01*
X460723396Y-128960590D01*
X460783000Y-129260240D01*
X460783000Y-129565760D01*
X460723396Y-129865410D01*
X460606479Y-130147674D01*
X460436741Y-130401705D01*
X460220705Y-130617741D01*
X459966674Y-130787479D01*
X459684410Y-130904396D01*
X459534585Y-130934198D01*
X459384761Y-130964000D01*
X459079239Y-130964000D01*
X458929415Y-130934198D01*
X458779590Y-130904396D01*
X458497326Y-130787479D01*
X458243295Y-130617741D01*
X458027259Y-130401705D01*
X457857521Y-130147674D01*
X457740604Y-129865410D01*
X457681000Y-129565760D01*
X457681000Y-129260240D01*
X457740604Y-128960590D01*
X457857521Y-128678326D01*
X458027259Y-128424295D01*
X458243295Y-128208259D01*
X458497326Y-128038521D01*
X458779590Y-127921604D01*
X458929415Y-127891802D01*
X459079239Y-127862000D01*
X459384761Y-127862000D01*
X459534585Y-127891802D01*
X459534585Y-127891802D01*
G37*
G36*
X126159585Y-127891802D02*
G01*
X126309410Y-127921604D01*
X126591674Y-128038521D01*
X126845705Y-128208259D01*
X127061741Y-128424295D01*
X127231479Y-128678326D01*
X127348396Y-128960590D01*
X127408000Y-129260240D01*
X127408000Y-129565760D01*
X127348396Y-129865410D01*
X127231479Y-130147674D01*
X127061741Y-130401705D01*
X126845705Y-130617741D01*
X126591674Y-130787479D01*
X126309410Y-130904396D01*
X126159585Y-130934198D01*
X126009761Y-130964000D01*
X125704239Y-130964000D01*
X125554415Y-130934198D01*
X125404590Y-130904396D01*
X125122326Y-130787479D01*
X124868295Y-130617741D01*
X124652259Y-130401705D01*
X124482521Y-130147674D01*
X124365604Y-129865410D01*
X124306000Y-129565760D01*
X124306000Y-129260240D01*
X124365604Y-128960590D01*
X124482521Y-128678326D01*
X124652259Y-128424295D01*
X124868295Y-128208259D01*
X125122326Y-128038521D01*
X125404590Y-127921604D01*
X125554415Y-127891802D01*
X125704239Y-127862000D01*
X126009761Y-127862000D01*
X126159585Y-127891802D01*
X126159585Y-127891802D01*
G37*
G36*
X426260585Y-127891802D02*
G01*
X426410410Y-127921604D01*
X426692674Y-128038521D01*
X426946705Y-128208259D01*
X427162741Y-128424295D01*
X427332479Y-128678326D01*
X427449396Y-128960590D01*
X427509000Y-129260240D01*
X427509000Y-129565760D01*
X427449396Y-129865410D01*
X427332479Y-130147674D01*
X427162741Y-130401705D01*
X426946705Y-130617741D01*
X426692674Y-130787479D01*
X426410410Y-130904396D01*
X426260585Y-130934198D01*
X426110761Y-130964000D01*
X425805239Y-130964000D01*
X425655415Y-130934198D01*
X425505590Y-130904396D01*
X425223326Y-130787479D01*
X424969295Y-130617741D01*
X424753259Y-130401705D01*
X424583521Y-130147674D01*
X424466604Y-129865410D01*
X424407000Y-129565760D01*
X424407000Y-129260240D01*
X424466604Y-128960590D01*
X424583521Y-128678326D01*
X424753259Y-128424295D01*
X424969295Y-128208259D01*
X425223326Y-128038521D01*
X425505590Y-127921604D01*
X425655415Y-127891802D01*
X425805239Y-127862000D01*
X426110761Y-127862000D01*
X426260585Y-127891802D01*
X426260585Y-127891802D01*
G37*
G36*
X392859585Y-127891802D02*
G01*
X393009410Y-127921604D01*
X393291674Y-128038521D01*
X393545705Y-128208259D01*
X393761741Y-128424295D01*
X393931479Y-128678326D01*
X394048396Y-128960590D01*
X394108000Y-129260240D01*
X394108000Y-129565760D01*
X394048396Y-129865410D01*
X393931479Y-130147674D01*
X393761741Y-130401705D01*
X393545705Y-130617741D01*
X393291674Y-130787479D01*
X393009410Y-130904396D01*
X392859585Y-130934198D01*
X392709761Y-130964000D01*
X392404239Y-130964000D01*
X392254415Y-130934198D01*
X392104590Y-130904396D01*
X391822326Y-130787479D01*
X391568295Y-130617741D01*
X391352259Y-130401705D01*
X391182521Y-130147674D01*
X391065604Y-129865410D01*
X391006000Y-129565760D01*
X391006000Y-129260240D01*
X391065604Y-128960590D01*
X391182521Y-128678326D01*
X391352259Y-128424295D01*
X391568295Y-128208259D01*
X391822326Y-128038521D01*
X392104590Y-127921604D01*
X392254415Y-127891802D01*
X392404239Y-127862000D01*
X392709761Y-127862000D01*
X392859585Y-127891802D01*
X392859585Y-127891802D01*
G37*
G36*
X359585585Y-127891802D02*
G01*
X359735410Y-127921604D01*
X360017674Y-128038521D01*
X360271705Y-128208259D01*
X360487741Y-128424295D01*
X360657479Y-128678326D01*
X360774396Y-128960590D01*
X360834000Y-129260240D01*
X360834000Y-129565760D01*
X360774396Y-129865410D01*
X360657479Y-130147674D01*
X360487741Y-130401705D01*
X360271705Y-130617741D01*
X360017674Y-130787479D01*
X359735410Y-130904396D01*
X359585585Y-130934198D01*
X359435761Y-130964000D01*
X359130239Y-130964000D01*
X358980415Y-130934198D01*
X358830590Y-130904396D01*
X358548326Y-130787479D01*
X358294295Y-130617741D01*
X358078259Y-130401705D01*
X357908521Y-130147674D01*
X357791604Y-129865410D01*
X357732000Y-129565760D01*
X357732000Y-129260240D01*
X357791604Y-128960590D01*
X357908521Y-128678326D01*
X358078259Y-128424295D01*
X358294295Y-128208259D01*
X358548326Y-128038521D01*
X358830590Y-127921604D01*
X358980415Y-127891802D01*
X359130239Y-127862000D01*
X359435761Y-127862000D01*
X359585585Y-127891802D01*
X359585585Y-127891802D01*
G37*
G36*
X159560585Y-127891802D02*
G01*
X159710410Y-127921604D01*
X159992674Y-128038521D01*
X160246705Y-128208259D01*
X160462741Y-128424295D01*
X160632479Y-128678326D01*
X160749396Y-128960590D01*
X160809000Y-129260240D01*
X160809000Y-129565760D01*
X160749396Y-129865410D01*
X160632479Y-130147674D01*
X160462741Y-130401705D01*
X160246705Y-130617741D01*
X159992674Y-130787479D01*
X159710410Y-130904396D01*
X159560585Y-130934198D01*
X159410761Y-130964000D01*
X159105239Y-130964000D01*
X158955415Y-130934198D01*
X158805590Y-130904396D01*
X158523326Y-130787479D01*
X158269295Y-130617741D01*
X158053259Y-130401705D01*
X157883521Y-130147674D01*
X157766604Y-129865410D01*
X157707000Y-129565760D01*
X157707000Y-129260240D01*
X157766604Y-128960590D01*
X157883521Y-128678326D01*
X158053259Y-128424295D01*
X158269295Y-128208259D01*
X158523326Y-128038521D01*
X158805590Y-127921604D01*
X158955415Y-127891802D01*
X159105239Y-127862000D01*
X159410761Y-127862000D01*
X159560585Y-127891802D01*
X159560585Y-127891802D01*
G37*
G36*
X326184585Y-127891802D02*
G01*
X326334410Y-127921604D01*
X326616674Y-128038521D01*
X326870705Y-128208259D01*
X327086741Y-128424295D01*
X327256479Y-128678326D01*
X327373396Y-128960590D01*
X327433000Y-129260240D01*
X327433000Y-129565760D01*
X327373396Y-129865410D01*
X327256479Y-130147674D01*
X327086741Y-130401705D01*
X326870705Y-130617741D01*
X326616674Y-130787479D01*
X326334410Y-130904396D01*
X326184585Y-130934198D01*
X326034761Y-130964000D01*
X325729239Y-130964000D01*
X325579415Y-130934198D01*
X325429590Y-130904396D01*
X325147326Y-130787479D01*
X324893295Y-130617741D01*
X324677259Y-130401705D01*
X324507521Y-130147674D01*
X324390604Y-129865410D01*
X324331000Y-129565760D01*
X324331000Y-129260240D01*
X324390604Y-128960590D01*
X324507521Y-128678326D01*
X324677259Y-128424295D01*
X324893295Y-128208259D01*
X325147326Y-128038521D01*
X325429590Y-127921604D01*
X325579415Y-127891802D01*
X325729239Y-127862000D01*
X326034761Y-127862000D01*
X326184585Y-127891802D01*
X326184585Y-127891802D01*
G37*
G36*
X92885585Y-127891802D02*
G01*
X93035410Y-127921604D01*
X93317674Y-128038521D01*
X93571705Y-128208259D01*
X93787741Y-128424295D01*
X93957479Y-128678326D01*
X94074396Y-128960590D01*
X94134000Y-129260240D01*
X94134000Y-129565760D01*
X94074396Y-129865410D01*
X93957479Y-130147674D01*
X93787741Y-130401705D01*
X93571705Y-130617741D01*
X93317674Y-130787479D01*
X93035410Y-130904396D01*
X92885585Y-130934198D01*
X92735761Y-130964000D01*
X92430239Y-130964000D01*
X92280415Y-130934198D01*
X92130590Y-130904396D01*
X91848326Y-130787479D01*
X91594295Y-130617741D01*
X91378259Y-130401705D01*
X91208521Y-130147674D01*
X91091604Y-129865410D01*
X91032000Y-129565760D01*
X91032000Y-129260240D01*
X91091604Y-128960590D01*
X91208521Y-128678326D01*
X91378259Y-128424295D01*
X91594295Y-128208259D01*
X91848326Y-128038521D01*
X92130590Y-127921604D01*
X92280415Y-127891802D01*
X92430239Y-127862000D01*
X92735761Y-127862000D01*
X92885585Y-127891802D01*
X92885585Y-127891802D01*
G37*
G36*
X292910585Y-127891802D02*
G01*
X293060410Y-127921604D01*
X293342674Y-128038521D01*
X293596705Y-128208259D01*
X293812741Y-128424295D01*
X293982479Y-128678326D01*
X294099396Y-128960590D01*
X294159000Y-129260240D01*
X294159000Y-129565760D01*
X294099396Y-129865410D01*
X293982479Y-130147674D01*
X293812741Y-130401705D01*
X293596705Y-130617741D01*
X293342674Y-130787479D01*
X293060410Y-130904396D01*
X292910585Y-130934198D01*
X292760761Y-130964000D01*
X292455239Y-130964000D01*
X292305415Y-130934198D01*
X292155590Y-130904396D01*
X291873326Y-130787479D01*
X291619295Y-130617741D01*
X291403259Y-130401705D01*
X291233521Y-130147674D01*
X291116604Y-129865410D01*
X291057000Y-129565760D01*
X291057000Y-129260240D01*
X291116604Y-128960590D01*
X291233521Y-128678326D01*
X291403259Y-128424295D01*
X291619295Y-128208259D01*
X291873326Y-128038521D01*
X292155590Y-127921604D01*
X292305415Y-127891802D01*
X292455239Y-127862000D01*
X292760761Y-127862000D01*
X292910585Y-127891802D01*
X292910585Y-127891802D01*
G37*
G36*
X259509585Y-127891802D02*
G01*
X259659410Y-127921604D01*
X259941674Y-128038521D01*
X260195705Y-128208259D01*
X260411741Y-128424295D01*
X260581479Y-128678326D01*
X260698396Y-128960590D01*
X260758000Y-129260240D01*
X260758000Y-129565760D01*
X260698396Y-129865410D01*
X260581479Y-130147674D01*
X260411741Y-130401705D01*
X260195705Y-130617741D01*
X259941674Y-130787479D01*
X259659410Y-130904396D01*
X259509585Y-130934198D01*
X259359761Y-130964000D01*
X259054239Y-130964000D01*
X258904415Y-130934198D01*
X258754590Y-130904396D01*
X258472326Y-130787479D01*
X258218295Y-130617741D01*
X258002259Y-130401705D01*
X257832521Y-130147674D01*
X257715604Y-129865410D01*
X257656000Y-129565760D01*
X257656000Y-129260240D01*
X257715604Y-128960590D01*
X257832521Y-128678326D01*
X258002259Y-128424295D01*
X258218295Y-128208259D01*
X258472326Y-128038521D01*
X258754590Y-127921604D01*
X258904415Y-127891802D01*
X259054239Y-127862000D01*
X259359761Y-127862000D01*
X259509585Y-127891802D01*
X259509585Y-127891802D01*
G37*
G36*
X192834585Y-127891802D02*
G01*
X192984410Y-127921604D01*
X193266674Y-128038521D01*
X193520705Y-128208259D01*
X193736741Y-128424295D01*
X193906479Y-128678326D01*
X194023396Y-128960590D01*
X194083000Y-129260240D01*
X194083000Y-129565760D01*
X194023396Y-129865410D01*
X193906479Y-130147674D01*
X193736741Y-130401705D01*
X193520705Y-130617741D01*
X193266674Y-130787479D01*
X192984410Y-130904396D01*
X192834585Y-130934198D01*
X192684761Y-130964000D01*
X192379239Y-130964000D01*
X192229415Y-130934198D01*
X192079590Y-130904396D01*
X191797326Y-130787479D01*
X191543295Y-130617741D01*
X191327259Y-130401705D01*
X191157521Y-130147674D01*
X191040604Y-129865410D01*
X190981000Y-129565760D01*
X190981000Y-129260240D01*
X191040604Y-128960590D01*
X191157521Y-128678326D01*
X191327259Y-128424295D01*
X191543295Y-128208259D01*
X191797326Y-128038521D01*
X192079590Y-127921604D01*
X192229415Y-127891802D01*
X192379239Y-127862000D01*
X192684761Y-127862000D01*
X192834585Y-127891802D01*
X192834585Y-127891802D01*
G37*
G36*
X226235585Y-127891802D02*
G01*
X226385410Y-127921604D01*
X226667674Y-128038521D01*
X226921705Y-128208259D01*
X227137741Y-128424295D01*
X227307479Y-128678326D01*
X227424396Y-128960590D01*
X227484000Y-129260240D01*
X227484000Y-129565760D01*
X227424396Y-129865410D01*
X227307479Y-130147674D01*
X227137741Y-130401705D01*
X226921705Y-130617741D01*
X226667674Y-130787479D01*
X226385410Y-130904396D01*
X226235585Y-130934198D01*
X226085761Y-130964000D01*
X225780239Y-130964000D01*
X225630415Y-130934198D01*
X225480590Y-130904396D01*
X225198326Y-130787479D01*
X224944295Y-130617741D01*
X224728259Y-130401705D01*
X224558521Y-130147674D01*
X224441604Y-129865410D01*
X224382000Y-129565760D01*
X224382000Y-129260240D01*
X224441604Y-128960590D01*
X224558521Y-128678326D01*
X224728259Y-128424295D01*
X224944295Y-128208259D01*
X225198326Y-128038521D01*
X225480590Y-127921604D01*
X225630415Y-127891802D01*
X225780239Y-127862000D01*
X226085761Y-127862000D01*
X226235585Y-127891802D01*
X226235585Y-127891802D01*
G37*
G36*
X290659000Y-130714000D02*
G01*
X288007000Y-130714000D01*
X288007000Y-128112000D01*
X290659000Y-128112000D01*
X290659000Y-130714000D01*
X290659000Y-130714000D01*
G37*
G36*
X457283000Y-130714000D02*
G01*
X454631000Y-130714000D01*
X454631000Y-128112000D01*
X457283000Y-128112000D01*
X457283000Y-130714000D01*
X457283000Y-130714000D01*
G37*
G36*
X424009000Y-130714000D02*
G01*
X421357000Y-130714000D01*
X421357000Y-128112000D01*
X424009000Y-128112000D01*
X424009000Y-130714000D01*
X424009000Y-130714000D01*
G37*
G36*
X390608000Y-130714000D02*
G01*
X387956000Y-130714000D01*
X387956000Y-128112000D01*
X390608000Y-128112000D01*
X390608000Y-130714000D01*
X390608000Y-130714000D01*
G37*
G36*
X257258000Y-130714000D02*
G01*
X254606000Y-130714000D01*
X254606000Y-128112000D01*
X257258000Y-128112000D01*
X257258000Y-130714000D01*
X257258000Y-130714000D01*
G37*
G36*
X223984000Y-130714000D02*
G01*
X221332000Y-130714000D01*
X221332000Y-128112000D01*
X223984000Y-128112000D01*
X223984000Y-130714000D01*
X223984000Y-130714000D01*
G37*
G36*
X157309000Y-130714000D02*
G01*
X154657000Y-130714000D01*
X154657000Y-128112000D01*
X157309000Y-128112000D01*
X157309000Y-130714000D01*
X157309000Y-130714000D01*
G37*
G36*
X123908000Y-130714000D02*
G01*
X121256000Y-130714000D01*
X121256000Y-128112000D01*
X123908000Y-128112000D01*
X123908000Y-130714000D01*
X123908000Y-130714000D01*
G37*
G36*
X90634000Y-130714000D02*
G01*
X87982000Y-130714000D01*
X87982000Y-128112000D01*
X90634000Y-128112000D01*
X90634000Y-130714000D01*
X90634000Y-130714000D01*
G37*
G36*
X357334000Y-130714000D02*
G01*
X354682000Y-130714000D01*
X354682000Y-128112000D01*
X357334000Y-128112000D01*
X357334000Y-130714000D01*
X357334000Y-130714000D01*
G37*
G36*
X323933000Y-130714000D02*
G01*
X321281000Y-130714000D01*
X321281000Y-128112000D01*
X323933000Y-128112000D01*
X323933000Y-130714000D01*
X323933000Y-130714000D01*
G37*
G36*
X190583000Y-130714000D02*
G01*
X187931000Y-130714000D01*
X187931000Y-128112000D01*
X190583000Y-128112000D01*
X190583000Y-130714000D01*
X190583000Y-130714000D01*
G37*
G36*
X488178000Y-129361000D02*
G01*
X486676000Y-129361000D01*
X486676000Y-127459000D01*
X488178000Y-127459000D01*
X488178000Y-129361000D01*
X488178000Y-129361000D01*
G37*
G36*
X491478000Y-129361000D02*
G01*
X489976000Y-129361000D01*
X489976000Y-127459000D01*
X491478000Y-127459000D01*
X491478000Y-129361000D01*
X491478000Y-129361000D01*
G37*
G36*
X432610585Y-125351802D02*
G01*
X432760410Y-125381604D01*
X433042674Y-125498521D01*
X433296705Y-125668259D01*
X433512741Y-125884295D01*
X433682479Y-126138326D01*
X433799396Y-126420590D01*
X433859000Y-126720240D01*
X433859000Y-127025760D01*
X433799396Y-127325410D01*
X433682479Y-127607674D01*
X433512741Y-127861705D01*
X433296705Y-128077741D01*
X433042674Y-128247479D01*
X432760410Y-128364396D01*
X432610585Y-128394198D01*
X432460761Y-128424000D01*
X432155239Y-128424000D01*
X432005415Y-128394198D01*
X431855590Y-128364396D01*
X431573326Y-128247479D01*
X431319295Y-128077741D01*
X431103259Y-127861705D01*
X430933521Y-127607674D01*
X430816604Y-127325410D01*
X430757000Y-127025760D01*
X430757000Y-126720240D01*
X430816604Y-126420590D01*
X430933521Y-126138326D01*
X431103259Y-125884295D01*
X431319295Y-125668259D01*
X431573326Y-125498521D01*
X431855590Y-125381604D01*
X432005415Y-125351802D01*
X432155239Y-125322000D01*
X432460761Y-125322000D01*
X432610585Y-125351802D01*
X432610585Y-125351802D01*
G37*
G36*
X299260585Y-125351802D02*
G01*
X299410410Y-125381604D01*
X299692674Y-125498521D01*
X299946705Y-125668259D01*
X300162741Y-125884295D01*
X300332479Y-126138326D01*
X300449396Y-126420590D01*
X300509000Y-126720240D01*
X300509000Y-127025760D01*
X300449396Y-127325410D01*
X300332479Y-127607674D01*
X300162741Y-127861705D01*
X299946705Y-128077741D01*
X299692674Y-128247479D01*
X299410410Y-128364396D01*
X299260585Y-128394198D01*
X299110761Y-128424000D01*
X298805239Y-128424000D01*
X298655415Y-128394198D01*
X298505590Y-128364396D01*
X298223326Y-128247479D01*
X297969295Y-128077741D01*
X297753259Y-127861705D01*
X297583521Y-127607674D01*
X297466604Y-127325410D01*
X297407000Y-127025760D01*
X297407000Y-126720240D01*
X297466604Y-126420590D01*
X297583521Y-126138326D01*
X297753259Y-125884295D01*
X297969295Y-125668259D01*
X298223326Y-125498521D01*
X298505590Y-125381604D01*
X298655415Y-125351802D01*
X298805239Y-125322000D01*
X299110761Y-125322000D01*
X299260585Y-125351802D01*
X299260585Y-125351802D01*
G37*
G36*
X99235585Y-125351802D02*
G01*
X99385410Y-125381604D01*
X99667674Y-125498521D01*
X99921705Y-125668259D01*
X100137741Y-125884295D01*
X100307479Y-126138326D01*
X100424396Y-126420590D01*
X100484000Y-126720240D01*
X100484000Y-127025760D01*
X100424396Y-127325410D01*
X100307479Y-127607674D01*
X100137741Y-127861705D01*
X99921705Y-128077741D01*
X99667674Y-128247479D01*
X99385410Y-128364396D01*
X99235585Y-128394198D01*
X99085761Y-128424000D01*
X98780239Y-128424000D01*
X98630415Y-128394198D01*
X98480590Y-128364396D01*
X98198326Y-128247479D01*
X97944295Y-128077741D01*
X97728259Y-127861705D01*
X97558521Y-127607674D01*
X97441604Y-127325410D01*
X97382000Y-127025760D01*
X97382000Y-126720240D01*
X97441604Y-126420590D01*
X97558521Y-126138326D01*
X97728259Y-125884295D01*
X97944295Y-125668259D01*
X98198326Y-125498521D01*
X98480590Y-125381604D01*
X98630415Y-125351802D01*
X98780239Y-125322000D01*
X99085761Y-125322000D01*
X99235585Y-125351802D01*
X99235585Y-125351802D01*
G37*
G36*
X165910585Y-125351802D02*
G01*
X166060410Y-125381604D01*
X166342674Y-125498521D01*
X166596705Y-125668259D01*
X166812741Y-125884295D01*
X166982479Y-126138326D01*
X167099396Y-126420590D01*
X167159000Y-126720240D01*
X167159000Y-127025760D01*
X167099396Y-127325410D01*
X166982479Y-127607674D01*
X166812741Y-127861705D01*
X166596705Y-128077741D01*
X166342674Y-128247479D01*
X166060410Y-128364396D01*
X165910585Y-128394198D01*
X165760761Y-128424000D01*
X165455239Y-128424000D01*
X165305415Y-128394198D01*
X165155590Y-128364396D01*
X164873326Y-128247479D01*
X164619295Y-128077741D01*
X164403259Y-127861705D01*
X164233521Y-127607674D01*
X164116604Y-127325410D01*
X164057000Y-127025760D01*
X164057000Y-126720240D01*
X164116604Y-126420590D01*
X164233521Y-126138326D01*
X164403259Y-125884295D01*
X164619295Y-125668259D01*
X164873326Y-125498521D01*
X165155590Y-125381604D01*
X165305415Y-125351802D01*
X165455239Y-125322000D01*
X165760761Y-125322000D01*
X165910585Y-125351802D01*
X165910585Y-125351802D01*
G37*
G36*
X132509585Y-125351802D02*
G01*
X132659410Y-125381604D01*
X132941674Y-125498521D01*
X133195705Y-125668259D01*
X133411741Y-125884295D01*
X133581479Y-126138326D01*
X133698396Y-126420590D01*
X133758000Y-126720240D01*
X133758000Y-127025760D01*
X133698396Y-127325410D01*
X133581479Y-127607674D01*
X133411741Y-127861705D01*
X133195705Y-128077741D01*
X132941674Y-128247479D01*
X132659410Y-128364396D01*
X132509585Y-128394198D01*
X132359761Y-128424000D01*
X132054239Y-128424000D01*
X131904415Y-128394198D01*
X131754590Y-128364396D01*
X131472326Y-128247479D01*
X131218295Y-128077741D01*
X131002259Y-127861705D01*
X130832521Y-127607674D01*
X130715604Y-127325410D01*
X130656000Y-127025760D01*
X130656000Y-126720240D01*
X130715604Y-126420590D01*
X130832521Y-126138326D01*
X131002259Y-125884295D01*
X131218295Y-125668259D01*
X131472326Y-125498521D01*
X131754590Y-125381604D01*
X131904415Y-125351802D01*
X132054239Y-125322000D01*
X132359761Y-125322000D01*
X132509585Y-125351802D01*
X132509585Y-125351802D01*
G37*
G36*
X365935585Y-125351802D02*
G01*
X366085410Y-125381604D01*
X366367674Y-125498521D01*
X366621705Y-125668259D01*
X366837741Y-125884295D01*
X367007479Y-126138326D01*
X367124396Y-126420590D01*
X367184000Y-126720240D01*
X367184000Y-127025760D01*
X367124396Y-127325410D01*
X367007479Y-127607674D01*
X366837741Y-127861705D01*
X366621705Y-128077741D01*
X366367674Y-128247479D01*
X366085410Y-128364396D01*
X365935585Y-128394198D01*
X365785761Y-128424000D01*
X365480239Y-128424000D01*
X365330415Y-128394198D01*
X365180590Y-128364396D01*
X364898326Y-128247479D01*
X364644295Y-128077741D01*
X364428259Y-127861705D01*
X364258521Y-127607674D01*
X364141604Y-127325410D01*
X364082000Y-127025760D01*
X364082000Y-126720240D01*
X364141604Y-126420590D01*
X364258521Y-126138326D01*
X364428259Y-125884295D01*
X364644295Y-125668259D01*
X364898326Y-125498521D01*
X365180590Y-125381604D01*
X365330415Y-125351802D01*
X365480239Y-125322000D01*
X365785761Y-125322000D01*
X365935585Y-125351802D01*
X365935585Y-125351802D01*
G37*
G36*
X399209585Y-125351802D02*
G01*
X399359410Y-125381604D01*
X399641674Y-125498521D01*
X399895705Y-125668259D01*
X400111741Y-125884295D01*
X400281479Y-126138326D01*
X400398396Y-126420590D01*
X400458000Y-126720240D01*
X400458000Y-127025760D01*
X400398396Y-127325410D01*
X400281479Y-127607674D01*
X400111741Y-127861705D01*
X399895705Y-128077741D01*
X399641674Y-128247479D01*
X399359410Y-128364396D01*
X399209585Y-128394198D01*
X399059761Y-128424000D01*
X398754239Y-128424000D01*
X398604415Y-128394198D01*
X398454590Y-128364396D01*
X398172326Y-128247479D01*
X397918295Y-128077741D01*
X397702259Y-127861705D01*
X397532521Y-127607674D01*
X397415604Y-127325410D01*
X397356000Y-127025760D01*
X397356000Y-126720240D01*
X397415604Y-126420590D01*
X397532521Y-126138326D01*
X397702259Y-125884295D01*
X397918295Y-125668259D01*
X398172326Y-125498521D01*
X398454590Y-125381604D01*
X398604415Y-125351802D01*
X398754239Y-125322000D01*
X399059761Y-125322000D01*
X399209585Y-125351802D01*
X399209585Y-125351802D01*
G37*
G36*
X232585585Y-125351802D02*
G01*
X232735410Y-125381604D01*
X233017674Y-125498521D01*
X233271705Y-125668259D01*
X233487741Y-125884295D01*
X233657479Y-126138326D01*
X233774396Y-126420590D01*
X233834000Y-126720240D01*
X233834000Y-127025760D01*
X233774396Y-127325410D01*
X233657479Y-127607674D01*
X233487741Y-127861705D01*
X233271705Y-128077741D01*
X233017674Y-128247479D01*
X232735410Y-128364396D01*
X232585585Y-128394198D01*
X232435761Y-128424000D01*
X232130239Y-128424000D01*
X231980415Y-128394198D01*
X231830590Y-128364396D01*
X231548326Y-128247479D01*
X231294295Y-128077741D01*
X231078259Y-127861705D01*
X230908521Y-127607674D01*
X230791604Y-127325410D01*
X230732000Y-127025760D01*
X230732000Y-126720240D01*
X230791604Y-126420590D01*
X230908521Y-126138326D01*
X231078259Y-125884295D01*
X231294295Y-125668259D01*
X231548326Y-125498521D01*
X231830590Y-125381604D01*
X231980415Y-125351802D01*
X232130239Y-125322000D01*
X232435761Y-125322000D01*
X232585585Y-125351802D01*
X232585585Y-125351802D01*
G37*
G36*
X265859585Y-125351802D02*
G01*
X266009410Y-125381604D01*
X266291674Y-125498521D01*
X266545705Y-125668259D01*
X266761741Y-125884295D01*
X266931479Y-126138326D01*
X267048396Y-126420590D01*
X267108000Y-126720240D01*
X267108000Y-127025760D01*
X267048396Y-127325410D01*
X266931479Y-127607674D01*
X266761741Y-127861705D01*
X266545705Y-128077741D01*
X266291674Y-128247479D01*
X266009410Y-128364396D01*
X265859585Y-128394198D01*
X265709761Y-128424000D01*
X265404239Y-128424000D01*
X265254415Y-128394198D01*
X265104590Y-128364396D01*
X264822326Y-128247479D01*
X264568295Y-128077741D01*
X264352259Y-127861705D01*
X264182521Y-127607674D01*
X264065604Y-127325410D01*
X264006000Y-127025760D01*
X264006000Y-126720240D01*
X264065604Y-126420590D01*
X264182521Y-126138326D01*
X264352259Y-125884295D01*
X264568295Y-125668259D01*
X264822326Y-125498521D01*
X265104590Y-125381604D01*
X265254415Y-125351802D01*
X265404239Y-125322000D01*
X265709761Y-125322000D01*
X265859585Y-125351802D01*
X265859585Y-125351802D01*
G37*
G36*
X465884585Y-125351802D02*
G01*
X466034410Y-125381604D01*
X466316674Y-125498521D01*
X466570705Y-125668259D01*
X466786741Y-125884295D01*
X466956479Y-126138326D01*
X467073396Y-126420590D01*
X467133000Y-126720240D01*
X467133000Y-127025760D01*
X467073396Y-127325410D01*
X466956479Y-127607674D01*
X466786741Y-127861705D01*
X466570705Y-128077741D01*
X466316674Y-128247479D01*
X466034410Y-128364396D01*
X465884585Y-128394198D01*
X465734761Y-128424000D01*
X465429239Y-128424000D01*
X465279415Y-128394198D01*
X465129590Y-128364396D01*
X464847326Y-128247479D01*
X464593295Y-128077741D01*
X464377259Y-127861705D01*
X464207521Y-127607674D01*
X464090604Y-127325410D01*
X464031000Y-127025760D01*
X464031000Y-126720240D01*
X464090604Y-126420590D01*
X464207521Y-126138326D01*
X464377259Y-125884295D01*
X464593295Y-125668259D01*
X464847326Y-125498521D01*
X465129590Y-125381604D01*
X465279415Y-125351802D01*
X465429239Y-125322000D01*
X465734761Y-125322000D01*
X465884585Y-125351802D01*
X465884585Y-125351802D01*
G37*
G36*
X332534585Y-125351802D02*
G01*
X332684410Y-125381604D01*
X332966674Y-125498521D01*
X333220705Y-125668259D01*
X333436741Y-125884295D01*
X333606479Y-126138326D01*
X333723396Y-126420590D01*
X333783000Y-126720240D01*
X333783000Y-127025760D01*
X333723396Y-127325410D01*
X333606479Y-127607674D01*
X333436741Y-127861705D01*
X333220705Y-128077741D01*
X332966674Y-128247479D01*
X332684410Y-128364396D01*
X332534585Y-128394198D01*
X332384761Y-128424000D01*
X332079239Y-128424000D01*
X331929415Y-128394198D01*
X331779590Y-128364396D01*
X331497326Y-128247479D01*
X331243295Y-128077741D01*
X331027259Y-127861705D01*
X330857521Y-127607674D01*
X330740604Y-127325410D01*
X330681000Y-127025760D01*
X330681000Y-126720240D01*
X330740604Y-126420590D01*
X330857521Y-126138326D01*
X331027259Y-125884295D01*
X331243295Y-125668259D01*
X331497326Y-125498521D01*
X331779590Y-125381604D01*
X331929415Y-125351802D01*
X332079239Y-125322000D01*
X332384761Y-125322000D01*
X332534585Y-125351802D01*
X332534585Y-125351802D01*
G37*
G36*
X199184585Y-125351802D02*
G01*
X199334410Y-125381604D01*
X199616674Y-125498521D01*
X199870705Y-125668259D01*
X200086741Y-125884295D01*
X200256479Y-126138326D01*
X200373396Y-126420590D01*
X200433000Y-126720240D01*
X200433000Y-127025760D01*
X200373396Y-127325410D01*
X200256479Y-127607674D01*
X200086741Y-127861705D01*
X199870705Y-128077741D01*
X199616674Y-128247479D01*
X199334410Y-128364396D01*
X199184585Y-128394198D01*
X199034761Y-128424000D01*
X198729239Y-128424000D01*
X198579415Y-128394198D01*
X198429590Y-128364396D01*
X198147326Y-128247479D01*
X197893295Y-128077741D01*
X197677259Y-127861705D01*
X197507521Y-127607674D01*
X197390604Y-127325410D01*
X197331000Y-127025760D01*
X197331000Y-126720240D01*
X197390604Y-126420590D01*
X197507521Y-126138326D01*
X197677259Y-125884295D01*
X197893295Y-125668259D01*
X198147326Y-125498521D01*
X198429590Y-125381604D01*
X198579415Y-125351802D01*
X198729239Y-125322000D01*
X199034761Y-125322000D01*
X199184585Y-125351802D01*
X199184585Y-125351802D01*
G37*
G36*
X470210000Y-128174000D02*
G01*
X467558000Y-128174000D01*
X467558000Y-125572000D01*
X470210000Y-125572000D01*
X470210000Y-128174000D01*
X470210000Y-128174000D01*
G37*
G36*
X436936000Y-128174000D02*
G01*
X434284000Y-128174000D01*
X434284000Y-125572000D01*
X436936000Y-125572000D01*
X436936000Y-128174000D01*
X436936000Y-128174000D01*
G37*
G36*
X370261000Y-128174000D02*
G01*
X367609000Y-128174000D01*
X367609000Y-125572000D01*
X370261000Y-125572000D01*
X370261000Y-128174000D01*
X370261000Y-128174000D01*
G37*
G36*
X303586000Y-128174000D02*
G01*
X300934000Y-128174000D01*
X300934000Y-125572000D01*
X303586000Y-125572000D01*
X303586000Y-128174000D01*
X303586000Y-128174000D01*
G37*
G36*
X236911000Y-128174000D02*
G01*
X234259000Y-128174000D01*
X234259000Y-125572000D01*
X236911000Y-125572000D01*
X236911000Y-128174000D01*
X236911000Y-128174000D01*
G37*
G36*
X170236000Y-128174000D02*
G01*
X167584000Y-128174000D01*
X167584000Y-125572000D01*
X170236000Y-125572000D01*
X170236000Y-128174000D01*
X170236000Y-128174000D01*
G37*
G36*
X136835000Y-128174000D02*
G01*
X134183000Y-128174000D01*
X134183000Y-125572000D01*
X136835000Y-125572000D01*
X136835000Y-128174000D01*
X136835000Y-128174000D01*
G37*
G36*
X336860000Y-128174000D02*
G01*
X334208000Y-128174000D01*
X334208000Y-125572000D01*
X336860000Y-125572000D01*
X336860000Y-128174000D01*
X336860000Y-128174000D01*
G37*
G36*
X270185000Y-128174000D02*
G01*
X267533000Y-128174000D01*
X267533000Y-125572000D01*
X270185000Y-125572000D01*
X270185000Y-128174000D01*
X270185000Y-128174000D01*
G37*
G36*
X103561000Y-128174000D02*
G01*
X100909000Y-128174000D01*
X100909000Y-125572000D01*
X103561000Y-125572000D01*
X103561000Y-128174000D01*
X103561000Y-128174000D01*
G37*
G36*
X403535000Y-128174000D02*
G01*
X400883000Y-128174000D01*
X400883000Y-125572000D01*
X403535000Y-125572000D01*
X403535000Y-128174000D01*
X403535000Y-128174000D01*
G37*
G36*
X203510000Y-128174000D02*
G01*
X200858000Y-128174000D01*
X200858000Y-125572000D01*
X203510000Y-125572000D01*
X203510000Y-128174000D01*
X203510000Y-128174000D01*
G37*
G36*
X73013000Y-127837000D02*
G01*
X71511000Y-127837000D01*
X71511000Y-125935000D01*
X73013000Y-125935000D01*
X73013000Y-127837000D01*
X73013000Y-127837000D01*
G37*
G36*
X69713000Y-127837000D02*
G01*
X68211000Y-127837000D01*
X68211000Y-125935000D01*
X69713000Y-125935000D01*
X69713000Y-127837000D01*
X69713000Y-127837000D01*
G37*
G36*
X488758591Y-124065085D02*
G01*
X488792569Y-124075393D01*
X488823890Y-124092134D01*
X488851339Y-124114661D01*
X488873866Y-124142110D01*
X488890607Y-124173431D01*
X488900915Y-124207409D01*
X488905000Y-124248890D01*
X488905000Y-124925110D01*
X488900915Y-124966591D01*
X488890607Y-125000569D01*
X488873866Y-125031890D01*
X488851339Y-125059339D01*
X488823890Y-125081866D01*
X488792569Y-125098607D01*
X488758591Y-125108915D01*
X488717110Y-125113000D01*
X488115890Y-125113000D01*
X488074409Y-125108915D01*
X488040431Y-125098607D01*
X488009110Y-125081866D01*
X487981661Y-125059339D01*
X487959134Y-125031890D01*
X487942393Y-125000569D01*
X487932085Y-124966591D01*
X487928000Y-124925110D01*
X487928000Y-124248890D01*
X487932085Y-124207409D01*
X487942393Y-124173431D01*
X487959134Y-124142110D01*
X487981661Y-124114661D01*
X488009110Y-124092134D01*
X488040431Y-124075393D01*
X488074409Y-124065085D01*
X488115890Y-124061000D01*
X488717110Y-124061000D01*
X488758591Y-124065085D01*
X488758591Y-124065085D01*
G37*
G36*
X490333591Y-124065085D02*
G01*
X490367569Y-124075393D01*
X490398890Y-124092134D01*
X490426339Y-124114661D01*
X490448866Y-124142110D01*
X490465607Y-124173431D01*
X490475915Y-124207409D01*
X490480000Y-124248890D01*
X490480000Y-124925110D01*
X490475915Y-124966591D01*
X490465607Y-125000569D01*
X490448866Y-125031890D01*
X490426339Y-125059339D01*
X490398890Y-125081866D01*
X490367569Y-125098607D01*
X490333591Y-125108915D01*
X490292110Y-125113000D01*
X489690890Y-125113000D01*
X489649409Y-125108915D01*
X489615431Y-125098607D01*
X489584110Y-125081866D01*
X489556661Y-125059339D01*
X489534134Y-125031890D01*
X489517393Y-125000569D01*
X489507085Y-124966591D01*
X489503000Y-124925110D01*
X489503000Y-124248890D01*
X489507085Y-124207409D01*
X489517393Y-124173431D01*
X489534134Y-124142110D01*
X489556661Y-124114661D01*
X489584110Y-124092134D01*
X489615431Y-124075393D01*
X489649409Y-124065085D01*
X489690890Y-124061000D01*
X490292110Y-124061000D01*
X490333591Y-124065085D01*
X490333591Y-124065085D01*
G37*
M02*
